G75*
%MOIN*%
%OFA0B0*%
%FSLAX24Y24*%
%IPPOS*%
%LPD*%
%AMOC8*
5,1,8,0,0,1.08239X$1,22.5*
%
%ADD10C,0.0030*%
%ADD11C,0.0080*%
%ADD12C,0.0040*%
D10*
X003837Y004045D02*
X003933Y004045D01*
X003982Y004093D01*
X004083Y004045D02*
X004276Y004045D01*
X004180Y004045D02*
X004180Y004335D01*
X004083Y004238D01*
X003982Y004287D02*
X003933Y004335D01*
X003837Y004335D01*
X003788Y004287D01*
X003788Y004093D01*
X003837Y004045D01*
X004378Y004045D02*
X004571Y004045D01*
X004474Y004045D02*
X004474Y004335D01*
X004378Y004238D01*
X004588Y003585D02*
X004733Y003585D01*
X004782Y003537D01*
X004782Y003440D01*
X004733Y003392D01*
X004588Y003392D01*
X004588Y003295D02*
X004588Y003585D01*
X004685Y003392D02*
X004782Y003295D01*
X004883Y003343D02*
X004931Y003295D01*
X005028Y003295D01*
X005076Y003343D01*
X005076Y003537D01*
X005028Y003585D01*
X004931Y003585D01*
X004883Y003537D01*
X004883Y003488D01*
X004931Y003440D01*
X005076Y003440D01*
X004208Y002029D02*
X004112Y002029D01*
X004063Y001981D01*
X004208Y002029D02*
X004257Y001981D01*
X004257Y001932D01*
X004063Y001739D01*
X004257Y001739D01*
X004191Y001529D02*
X004191Y001239D01*
X004095Y001239D02*
X004288Y001239D01*
X004095Y001432D02*
X004191Y001529D01*
X006438Y003659D02*
X006486Y003611D01*
X006680Y003611D01*
X006728Y003659D01*
X006728Y003756D01*
X006680Y003805D01*
X006728Y003906D02*
X006728Y004099D01*
X006728Y004002D02*
X006438Y004002D01*
X006535Y003906D01*
X006486Y003805D02*
X006438Y003756D01*
X006438Y003659D01*
X006438Y004200D02*
X006438Y004394D01*
X006486Y004394D01*
X006680Y004200D01*
X006728Y004200D01*
X007187Y004795D02*
X007283Y004795D01*
X007332Y004843D01*
X007433Y004795D02*
X007626Y004795D01*
X007530Y004795D02*
X007530Y005085D01*
X007433Y004988D01*
X007332Y005037D02*
X007283Y005085D01*
X007187Y005085D01*
X007138Y005037D01*
X007138Y004843D01*
X007187Y004795D01*
X007728Y004843D02*
X007776Y004795D01*
X007873Y004795D01*
X007921Y004843D01*
X007921Y004892D01*
X007873Y004940D01*
X007728Y004940D01*
X007728Y004843D01*
X007728Y004940D02*
X007824Y005037D01*
X007921Y005085D01*
X007678Y005695D02*
X007726Y005743D01*
X007726Y005937D01*
X007678Y005985D01*
X007581Y005985D01*
X007533Y005937D01*
X007533Y005888D01*
X007581Y005840D01*
X007726Y005840D01*
X007678Y005695D02*
X007581Y005695D01*
X007533Y005743D01*
X007432Y005743D02*
X007383Y005695D01*
X007287Y005695D01*
X007238Y005743D01*
X007238Y005937D01*
X007287Y005985D01*
X007383Y005985D01*
X007432Y005937D01*
X007483Y006495D02*
X007676Y006495D01*
X007580Y006495D02*
X007580Y006785D01*
X007483Y006688D01*
X007382Y006737D02*
X007333Y006785D01*
X007237Y006785D01*
X007188Y006737D01*
X007188Y006543D01*
X007237Y006495D01*
X007333Y006495D01*
X007382Y006543D01*
X007778Y006543D02*
X007971Y006737D01*
X007971Y006543D01*
X007923Y006495D01*
X007826Y006495D01*
X007778Y006543D01*
X007778Y006737D01*
X007826Y006785D01*
X007923Y006785D01*
X007971Y006737D01*
X007923Y007295D02*
X007826Y007295D01*
X007778Y007343D01*
X007676Y007295D02*
X007483Y007295D01*
X007580Y007295D02*
X007580Y007585D01*
X007483Y007488D01*
X007382Y007537D02*
X007333Y007585D01*
X007237Y007585D01*
X007188Y007537D01*
X007188Y007343D01*
X007237Y007295D01*
X007333Y007295D01*
X007382Y007343D01*
X007778Y007537D02*
X007826Y007585D01*
X007923Y007585D01*
X007971Y007537D01*
X007971Y007488D01*
X007923Y007440D01*
X007971Y007392D01*
X007971Y007343D01*
X007923Y007295D01*
X007923Y007440D02*
X007874Y007440D01*
X007833Y008045D02*
X007737Y008045D01*
X007688Y008093D01*
X007688Y008287D01*
X007737Y008335D01*
X007833Y008335D01*
X007882Y008287D01*
X007983Y008287D02*
X007983Y008238D01*
X008031Y008190D01*
X008128Y008190D01*
X008176Y008142D01*
X008176Y008093D01*
X008128Y008045D01*
X008031Y008045D01*
X007983Y008093D01*
X007983Y008142D01*
X008031Y008190D01*
X008128Y008190D02*
X008176Y008238D01*
X008176Y008287D01*
X008128Y008335D01*
X008031Y008335D01*
X007983Y008287D01*
X007882Y008093D02*
X007833Y008045D01*
X008738Y008693D02*
X008787Y008645D01*
X008883Y008645D01*
X008932Y008693D01*
X009033Y008693D02*
X009033Y008645D01*
X009033Y008693D02*
X009226Y008887D01*
X009226Y008935D01*
X009033Y008935D01*
X008932Y008887D02*
X008883Y008935D01*
X008787Y008935D01*
X008738Y008887D01*
X008738Y008693D01*
X008787Y009245D02*
X008738Y009293D01*
X008738Y009487D01*
X008787Y009535D01*
X008883Y009535D01*
X008932Y009487D01*
X009033Y009390D02*
X009033Y009293D01*
X009081Y009245D01*
X009178Y009245D01*
X009226Y009293D01*
X009226Y009342D01*
X009178Y009390D01*
X009033Y009390D01*
X009130Y009487D01*
X009226Y009535D01*
X009178Y009895D02*
X009081Y009895D01*
X009033Y009943D01*
X009033Y010040D02*
X009130Y010088D01*
X009178Y010088D01*
X009226Y010040D01*
X009226Y009943D01*
X009178Y009895D01*
X009033Y010040D02*
X009033Y010185D01*
X009226Y010185D01*
X009228Y010495D02*
X009228Y010785D01*
X009083Y010640D01*
X009276Y010640D01*
X008982Y010543D02*
X008933Y010495D01*
X008837Y010495D01*
X008788Y010543D01*
X008788Y010737D01*
X008837Y010785D01*
X008933Y010785D01*
X008982Y010737D01*
X008883Y010185D02*
X008787Y010185D01*
X008738Y010137D01*
X008738Y009943D01*
X008787Y009895D01*
X008883Y009895D01*
X008932Y009943D01*
X008932Y010137D02*
X008883Y010185D01*
X008932Y009293D02*
X008883Y009245D01*
X008787Y009245D01*
X006887Y013025D02*
X006887Y013315D01*
X006790Y013218D01*
X006694Y013315D01*
X006694Y013025D01*
X006496Y013025D02*
X006496Y013315D01*
X006399Y013315D02*
X006593Y013315D01*
X006298Y013267D02*
X006249Y013315D01*
X006153Y013315D01*
X006104Y013267D01*
X006104Y013218D01*
X006153Y013170D01*
X006249Y013170D01*
X006298Y013122D01*
X006298Y013073D01*
X006249Y013025D01*
X006153Y013025D01*
X006104Y013073D01*
X006003Y013122D02*
X005810Y013122D01*
X005810Y013170D02*
X005858Y013218D01*
X005955Y013218D01*
X006003Y013170D01*
X006003Y013122D01*
X005955Y013025D02*
X005858Y013025D01*
X005810Y013073D01*
X005810Y013170D01*
X005710Y013218D02*
X005613Y013218D01*
X005662Y013267D02*
X005662Y013073D01*
X005710Y013025D01*
X005512Y013073D02*
X005464Y013025D01*
X005367Y013025D01*
X005319Y013073D01*
X005319Y013170D01*
X005367Y013218D01*
X005464Y013218D01*
X005512Y013170D01*
X005512Y013073D01*
X005217Y013025D02*
X005217Y013315D01*
X005121Y013218D01*
X005024Y013315D01*
X005024Y013025D01*
X004923Y013025D02*
X004923Y013170D01*
X004874Y013218D01*
X004729Y013218D01*
X004729Y013025D01*
X004628Y013122D02*
X004435Y013122D01*
X004435Y013170D02*
X004483Y013218D01*
X004580Y013218D01*
X004628Y013170D01*
X004628Y013122D01*
X004580Y013025D02*
X004483Y013025D01*
X004435Y013073D01*
X004435Y013170D01*
X004334Y013170D02*
X004285Y013218D01*
X004140Y013218D01*
X004140Y012928D01*
X004140Y013025D02*
X004285Y013025D01*
X004334Y013073D01*
X004334Y013170D01*
X004039Y013073D02*
X004039Y013267D01*
X003990Y013315D01*
X003894Y013315D01*
X003845Y013267D01*
X003845Y013073D01*
X003894Y013025D01*
X003990Y013025D01*
X004039Y013073D01*
X004580Y007984D02*
X004580Y007597D01*
X004628Y007645D02*
X004531Y007645D01*
X004483Y007693D01*
X004382Y007693D02*
X004382Y007935D01*
X004483Y007887D02*
X004531Y007935D01*
X004628Y007935D01*
X004676Y007887D01*
X004628Y007790D02*
X004531Y007790D01*
X004483Y007838D01*
X004483Y007887D01*
X004628Y007790D02*
X004676Y007742D01*
X004676Y007693D01*
X004628Y007645D01*
X004778Y007645D02*
X004778Y007693D01*
X004971Y007887D01*
X004971Y007935D01*
X004778Y007935D01*
X004382Y007693D02*
X004333Y007645D01*
X004237Y007645D01*
X004188Y007693D01*
X004188Y007935D01*
D11*
X002644Y009452D02*
X002802Y009609D01*
X006345Y009609D01*
X006502Y009452D01*
X006502Y005908D01*
X006345Y005751D01*
X002802Y005751D01*
X002644Y005908D01*
X002644Y009452D01*
X005851Y009180D02*
X005853Y009210D01*
X005859Y009239D01*
X005869Y009267D01*
X005882Y009293D01*
X005899Y009318D01*
X005919Y009340D01*
X005941Y009359D01*
X005966Y009375D01*
X005993Y009387D01*
X006022Y009396D01*
X006051Y009401D01*
X006080Y009402D01*
X006110Y009399D01*
X006139Y009392D01*
X006166Y009381D01*
X006192Y009367D01*
X006216Y009350D01*
X006238Y009329D01*
X006256Y009306D01*
X006271Y009280D01*
X006283Y009253D01*
X006291Y009224D01*
X006295Y009195D01*
X006295Y009165D01*
X006291Y009136D01*
X006283Y009107D01*
X006271Y009080D01*
X006256Y009054D01*
X006238Y009031D01*
X006216Y009010D01*
X006192Y008993D01*
X006166Y008979D01*
X006139Y008968D01*
X006110Y008961D01*
X006080Y008958D01*
X006051Y008959D01*
X006022Y008964D01*
X005993Y008973D01*
X005966Y008985D01*
X005941Y009001D01*
X005919Y009020D01*
X005899Y009042D01*
X005882Y009067D01*
X005869Y009093D01*
X005859Y009121D01*
X005853Y009150D01*
X005851Y009180D01*
D12*
X004331Y000597D02*
X003085Y000597D01*
X003085Y002663D01*
X004341Y002663D01*
X004331Y002319D02*
X003488Y002319D01*
X003488Y000941D01*
X004339Y000941D01*
X004172Y000595D02*
X004172Y000345D01*
X004422Y000470D01*
X004172Y000595D01*
X004172Y000559D02*
X004244Y000559D01*
X004172Y000520D02*
X004321Y000520D01*
X004398Y000482D02*
X004172Y000482D01*
X004172Y000443D02*
X004369Y000443D01*
X004292Y000405D02*
X004172Y000405D01*
X004172Y000366D02*
X004215Y000366D01*
X007008Y000597D02*
X008262Y000597D01*
X008262Y002663D01*
X007006Y002663D01*
X007008Y002319D02*
X007858Y002319D01*
X007858Y000941D01*
X007008Y000941D01*
M02*
