G75*
%MOIN*%
%OFA0B0*%
%FSLAX24Y24*%
%IPPOS*%
%LPD*%
%AMOC8*
5,1,8,0,0,1.08239X$1,22.5*
%
%ADD10C,0.0030*%
%ADD11C,0.0100*%
%ADD12C,0.0080*%
%ADD13C,0.0050*%
%ADD14R,0.0197X0.0787*%
%ADD15C,0.0040*%
%ADD16C,0.0118*%
%ADD17R,0.0394X0.0354*%
D10*
X002718Y003359D02*
X002767Y003311D01*
X002960Y003311D01*
X003009Y003359D01*
X003009Y003456D01*
X002960Y003505D01*
X002912Y003606D02*
X003009Y003702D01*
X002718Y003702D01*
X002718Y003606D02*
X002718Y003799D01*
X002863Y003900D02*
X002863Y004094D01*
X002718Y004045D02*
X003009Y004045D01*
X002863Y003900D01*
X002767Y003505D02*
X002718Y003456D01*
X002718Y003359D01*
X003637Y002133D02*
X003588Y002085D01*
X003588Y001988D01*
X003637Y001940D01*
X003685Y001940D01*
X003733Y001988D01*
X003733Y002085D01*
X003685Y002133D01*
X003637Y002133D01*
X003733Y002085D02*
X003782Y002133D01*
X003830Y002133D01*
X003879Y002085D01*
X003879Y001988D01*
X003830Y001940D01*
X003782Y001940D01*
X003733Y001988D01*
X003733Y001838D02*
X003685Y001790D01*
X003685Y001645D01*
X003588Y001645D02*
X003879Y001645D01*
X003879Y001790D01*
X003830Y001838D01*
X003733Y001838D01*
X003685Y001742D02*
X003588Y001838D01*
X003988Y001838D02*
X004085Y001742D01*
X004085Y001790D02*
X004085Y001645D01*
X003988Y001645D02*
X004279Y001645D01*
X004279Y001790D01*
X004230Y001838D01*
X004133Y001838D01*
X004085Y001790D01*
X004037Y001940D02*
X003988Y001940D01*
X004037Y001940D02*
X004230Y002133D01*
X004279Y002133D01*
X004279Y001940D01*
X004388Y001988D02*
X004388Y002085D01*
X004437Y002133D01*
X004485Y002133D01*
X004533Y002085D01*
X004533Y001940D01*
X004437Y001940D01*
X004388Y001988D01*
X004388Y001838D02*
X004485Y001742D01*
X004485Y001790D02*
X004485Y001645D01*
X004388Y001645D02*
X004679Y001645D01*
X004679Y001790D01*
X004630Y001838D01*
X004533Y001838D01*
X004485Y001790D01*
X004533Y001940D02*
X004630Y002036D01*
X004679Y002133D01*
X004788Y002085D02*
X004788Y001988D01*
X004837Y001940D01*
X004933Y001940D02*
X004982Y002036D01*
X004982Y002085D01*
X004933Y002133D01*
X004837Y002133D01*
X004788Y002085D01*
X004933Y001940D02*
X005079Y001940D01*
X005079Y002133D01*
X005030Y001838D02*
X004933Y001838D01*
X004885Y001790D01*
X004885Y001645D01*
X004788Y001645D02*
X005079Y001645D01*
X005079Y001790D01*
X005030Y001838D01*
X004885Y001742D02*
X004788Y001838D01*
X004788Y001083D02*
X004788Y000890D01*
X004788Y000986D02*
X005079Y000986D01*
X004982Y000890D01*
X005030Y000788D02*
X005079Y000740D01*
X005079Y000595D01*
X004788Y000595D01*
X004788Y000740D01*
X004837Y000788D01*
X005030Y000788D01*
X004679Y000740D02*
X004679Y000595D01*
X004388Y000595D01*
X004388Y000740D01*
X004437Y000788D01*
X004630Y000788D01*
X004679Y000740D01*
X004630Y000890D02*
X004679Y000938D01*
X004679Y001035D01*
X004630Y001083D01*
X004582Y001083D01*
X004388Y000890D01*
X004388Y001083D01*
X004279Y001035D02*
X004279Y000938D01*
X004230Y000890D01*
X004230Y000788D02*
X004037Y000788D01*
X003988Y000740D01*
X003988Y000595D01*
X004279Y000595D01*
X004279Y000740D01*
X004230Y000788D01*
X004037Y000890D02*
X003988Y000938D01*
X003988Y001035D01*
X004037Y001083D01*
X004085Y001083D01*
X004133Y001035D01*
X004133Y000986D01*
X004133Y001035D02*
X004182Y001083D01*
X004230Y001083D01*
X004279Y001035D01*
X003829Y001035D02*
X003683Y000890D01*
X003683Y001083D01*
X003538Y001035D02*
X003829Y001035D01*
X003780Y000788D02*
X003587Y000788D01*
X003538Y000740D01*
X003538Y000595D01*
X003829Y000595D01*
X003829Y000740D01*
X003780Y000788D01*
X003974Y002945D02*
X003926Y002993D01*
X003926Y003042D01*
X003974Y003090D01*
X004119Y003090D01*
X004119Y002993D01*
X004071Y002945D01*
X003974Y002945D01*
X004119Y003090D02*
X004022Y003187D01*
X003926Y003235D01*
X004220Y003187D02*
X004269Y003235D01*
X004365Y003235D01*
X004414Y003187D01*
X004414Y003138D01*
X004365Y003090D01*
X004269Y003090D01*
X004220Y003042D01*
X004220Y002993D01*
X004269Y002945D01*
X004365Y002945D01*
X004414Y002993D01*
X004515Y002993D02*
X004515Y003235D01*
X004708Y003235D02*
X004708Y002993D01*
X004660Y002945D01*
X004563Y002945D01*
X004515Y002993D01*
X004317Y002897D02*
X004317Y003284D01*
X004824Y004995D02*
X004921Y004995D01*
X004969Y005043D01*
X004969Y005140D02*
X004872Y005188D01*
X004824Y005188D01*
X004776Y005140D01*
X004776Y005043D01*
X004824Y004995D01*
X004969Y005140D02*
X004969Y005285D01*
X004776Y005285D01*
X005070Y004995D02*
X005264Y004995D01*
X005167Y004995D02*
X005167Y005285D01*
X005264Y005188D01*
X005365Y005237D02*
X005413Y005285D01*
X005510Y005285D01*
X005558Y005237D01*
X005558Y005043D01*
X005510Y004995D01*
X005413Y004995D01*
X005365Y005043D01*
X006038Y005443D02*
X006038Y005540D01*
X006087Y005588D01*
X006038Y005690D02*
X006038Y005883D01*
X006038Y005786D02*
X006329Y005786D01*
X006232Y005690D01*
X006280Y005588D02*
X006329Y005540D01*
X006329Y005443D01*
X006280Y005395D01*
X006087Y005395D01*
X006038Y005443D01*
X006087Y005984D02*
X006135Y005984D01*
X006183Y006033D01*
X006183Y006129D01*
X006135Y006178D01*
X006087Y006178D01*
X006038Y006129D01*
X006038Y006033D01*
X006087Y005984D01*
X006183Y006033D02*
X006232Y005984D01*
X006280Y005984D01*
X006329Y006033D01*
X006329Y006129D01*
X006280Y006178D01*
X006232Y006178D01*
X006183Y006129D01*
X005529Y006040D02*
X005529Y005895D01*
X005238Y005895D01*
X005335Y005895D02*
X005335Y006040D01*
X005383Y006088D01*
X005480Y006088D01*
X005529Y006040D01*
X005480Y006190D02*
X005529Y006238D01*
X005529Y006335D01*
X005480Y006383D01*
X005432Y006383D01*
X005383Y006335D01*
X005335Y006383D01*
X005287Y006383D01*
X005238Y006335D01*
X005238Y006238D01*
X005287Y006190D01*
X005238Y006088D02*
X005335Y005992D01*
X005383Y006286D02*
X005383Y006335D01*
X006109Y007675D02*
X006303Y007675D01*
X006109Y007868D01*
X006109Y007917D01*
X006158Y007965D01*
X006255Y007965D01*
X006303Y007917D01*
X006404Y007917D02*
X006404Y007820D01*
X006452Y007772D01*
X006598Y007772D01*
X006598Y007675D02*
X006598Y007965D01*
X006452Y007965D01*
X006404Y007917D01*
X006501Y007772D02*
X006404Y007675D01*
X006359Y008306D02*
X006068Y008306D01*
X006165Y008306D02*
X006165Y008451D01*
X006213Y008499D01*
X006310Y008499D01*
X006359Y008451D01*
X006359Y008306D01*
X006165Y008402D02*
X006068Y008499D01*
X006068Y008600D02*
X006068Y008794D01*
X006068Y008697D02*
X006359Y008697D01*
X006262Y008600D01*
X007668Y008606D02*
X007668Y008509D01*
X007717Y008461D01*
X007910Y008461D01*
X007959Y008509D01*
X007959Y008606D01*
X007910Y008655D01*
X007910Y008756D02*
X007959Y008804D01*
X007959Y008901D01*
X007910Y008949D01*
X007862Y008949D01*
X007668Y008756D01*
X007668Y008949D01*
X007668Y009050D02*
X007668Y009244D01*
X007668Y009147D02*
X007959Y009147D01*
X007862Y009050D01*
X007717Y008655D02*
X007668Y008606D01*
X007674Y008085D02*
X007626Y008037D01*
X007819Y007843D01*
X007771Y007795D01*
X007674Y007795D01*
X007626Y007843D01*
X007626Y008037D01*
X007674Y008085D02*
X007771Y008085D01*
X007819Y008037D01*
X007819Y007843D01*
X007920Y007795D02*
X008114Y007795D01*
X007920Y007988D01*
X007920Y008037D01*
X007969Y008085D01*
X008065Y008085D01*
X008114Y008037D01*
X008215Y008037D02*
X008263Y008085D01*
X008360Y008085D01*
X008408Y008037D01*
X008408Y007843D01*
X008360Y007795D01*
X008263Y007795D01*
X008215Y007843D01*
X007967Y007334D02*
X007967Y006947D01*
X008015Y006995D02*
X007919Y006995D01*
X007870Y007043D01*
X007870Y007092D01*
X007919Y007140D01*
X008015Y007140D01*
X008064Y007188D01*
X008064Y007237D01*
X008015Y007285D01*
X007919Y007285D01*
X007870Y007237D01*
X007769Y007140D02*
X007576Y007140D01*
X007624Y006995D02*
X007624Y007285D01*
X007769Y007140D01*
X008015Y006995D02*
X008064Y007043D01*
X008165Y007043D02*
X008213Y006995D01*
X008310Y006995D01*
X008358Y007043D01*
X008358Y007285D01*
X008165Y007285D02*
X008165Y007043D01*
X008080Y006228D02*
X007887Y006228D01*
X007838Y006179D01*
X007838Y006083D01*
X007887Y006034D01*
X007983Y006083D02*
X007983Y006228D01*
X008080Y006228D02*
X008129Y006179D01*
X008129Y006083D01*
X008080Y006034D01*
X008032Y006034D01*
X007983Y006083D01*
X007838Y005933D02*
X007838Y005740D01*
X007838Y005836D02*
X008129Y005836D01*
X008032Y005740D01*
X008080Y005638D02*
X008129Y005590D01*
X008129Y005493D01*
X008080Y005445D01*
X007887Y005445D01*
X007838Y005493D01*
X007838Y005590D01*
X007887Y005638D01*
X008458Y004415D02*
X008555Y004415D01*
X008603Y004367D01*
X008458Y004415D02*
X008409Y004367D01*
X008409Y004318D01*
X008603Y004125D01*
X008409Y004125D01*
X008704Y004125D02*
X008898Y004125D01*
X008801Y004125D02*
X008801Y004415D01*
X008898Y004318D01*
X008999Y004367D02*
X009047Y004415D01*
X009144Y004415D01*
X009192Y004367D01*
X009192Y004173D01*
X009144Y004125D01*
X009047Y004125D01*
X008999Y004173D01*
X008992Y003315D02*
X008992Y003073D01*
X008944Y003025D01*
X008847Y003025D01*
X008799Y003073D01*
X008799Y003315D01*
X008698Y003267D02*
X008649Y003315D01*
X008552Y003315D01*
X008504Y003267D01*
X008403Y003267D02*
X008355Y003315D01*
X008258Y003315D01*
X008209Y003267D01*
X008209Y003218D01*
X008258Y003170D01*
X008209Y003122D01*
X008209Y003073D01*
X008258Y003025D01*
X008355Y003025D01*
X008403Y003073D01*
X008504Y003073D02*
X008504Y003122D01*
X008552Y003170D01*
X008649Y003170D01*
X008698Y003218D01*
X008698Y003267D01*
X008601Y003364D02*
X008601Y002977D01*
X008649Y003025D02*
X008552Y003025D01*
X008504Y003073D01*
X008306Y003170D02*
X008258Y003170D01*
X008649Y003025D02*
X008698Y003073D01*
X009609Y002367D02*
X009609Y002318D01*
X009658Y002270D01*
X009609Y002222D01*
X009609Y002173D01*
X009658Y002125D01*
X009755Y002125D01*
X009803Y002173D01*
X009904Y002173D02*
X009952Y002125D01*
X010049Y002125D01*
X010098Y002173D01*
X010098Y002367D01*
X010049Y002415D01*
X009952Y002415D01*
X009904Y002367D01*
X009803Y002367D02*
X009755Y002415D01*
X009658Y002415D01*
X009609Y002367D01*
X009658Y002270D02*
X009706Y002270D01*
X009592Y001015D02*
X009592Y000773D01*
X009544Y000725D01*
X009447Y000725D01*
X009399Y000773D01*
X009399Y001015D01*
X009298Y000967D02*
X009298Y000918D01*
X009249Y000870D01*
X009152Y000870D01*
X009104Y000822D01*
X009104Y000773D01*
X009152Y000725D01*
X009249Y000725D01*
X009298Y000773D01*
X009201Y000677D02*
X009201Y001064D01*
X009249Y001015D02*
X009152Y001015D01*
X009104Y000967D01*
X009003Y001015D02*
X009003Y000870D01*
X008906Y000918D01*
X008858Y000918D01*
X008809Y000870D01*
X008809Y000773D01*
X008858Y000725D01*
X008955Y000725D01*
X009003Y000773D01*
X009003Y001015D02*
X008809Y001015D01*
X009249Y001015D02*
X009298Y000967D01*
X004058Y007195D02*
X004058Y007485D01*
X003913Y007485D01*
X003865Y007437D01*
X003865Y007340D01*
X003913Y007292D01*
X004058Y007292D01*
X003962Y007292D02*
X003865Y007195D01*
X003764Y007340D02*
X003570Y007340D01*
X003619Y007195D02*
X003619Y007485D01*
X003764Y007340D01*
X002808Y007743D02*
X002760Y007695D01*
X002663Y007695D01*
X002615Y007743D01*
X002514Y007695D02*
X002320Y007888D01*
X002320Y007937D01*
X002369Y007985D01*
X002465Y007985D01*
X002514Y007937D01*
X002615Y007937D02*
X002663Y007985D01*
X002760Y007985D01*
X002808Y007937D01*
X002808Y007743D01*
X002514Y007695D02*
X002320Y007695D01*
X002837Y008445D02*
X002788Y008493D01*
X002788Y008590D01*
X002837Y008638D01*
X003079Y008638D01*
X003030Y008740D02*
X003079Y008788D01*
X003079Y008885D01*
X003030Y008933D01*
X002933Y008885D02*
X002933Y008788D01*
X002982Y008740D01*
X003030Y008740D01*
X003127Y008836D02*
X002740Y008836D01*
X002788Y008788D02*
X002788Y008885D01*
X002837Y008933D01*
X002885Y008933D01*
X002933Y008885D01*
X002982Y009034D02*
X003079Y009131D01*
X002788Y009131D01*
X002788Y009034D02*
X002788Y009228D01*
X002788Y008788D02*
X002837Y008740D01*
X002837Y008445D02*
X003079Y008445D01*
X003159Y010025D02*
X003353Y010025D01*
X003256Y010025D02*
X003256Y010315D01*
X003353Y010218D01*
X003454Y010267D02*
X003502Y010315D01*
X003599Y010315D01*
X003648Y010267D01*
X003648Y010073D01*
X003599Y010025D01*
X003502Y010025D01*
X003454Y010073D01*
X005542Y012195D02*
X005735Y012195D01*
X005638Y012195D02*
X005638Y012485D01*
X005735Y012388D01*
X005836Y012340D02*
X005836Y012243D01*
X005885Y012195D01*
X005981Y012195D01*
X006030Y012243D01*
X006030Y012340D02*
X005933Y012388D01*
X005885Y012388D01*
X005836Y012340D01*
X005836Y012485D02*
X006030Y012485D01*
X006030Y012340D01*
X006131Y012243D02*
X006179Y012195D01*
X006276Y012195D01*
X006324Y012243D01*
X006131Y012437D01*
X006131Y012243D01*
X006324Y012243D02*
X006324Y012437D01*
X006276Y012485D01*
X006179Y012485D01*
X006131Y012437D01*
X006317Y012797D02*
X006317Y013184D01*
X006365Y013135D02*
X006269Y013135D01*
X006220Y013087D01*
X006119Y013087D02*
X006071Y013135D01*
X005974Y013135D01*
X005926Y013087D01*
X005926Y013038D01*
X006119Y012845D01*
X005926Y012845D01*
X006220Y012893D02*
X006220Y012942D01*
X006269Y012990D01*
X006365Y012990D01*
X006414Y013038D01*
X006414Y013087D01*
X006365Y013135D01*
X006515Y013135D02*
X006515Y012893D01*
X006563Y012845D01*
X006660Y012845D01*
X006708Y012893D01*
X006708Y013135D01*
X006414Y012893D02*
X006365Y012845D01*
X006269Y012845D01*
X006220Y012893D01*
X006474Y012485D02*
X006571Y012485D01*
X006619Y012437D01*
X006720Y012485D02*
X006720Y012195D01*
X006914Y012485D01*
X006914Y012195D01*
X007015Y012195D02*
X007015Y012388D01*
X007112Y012485D01*
X007208Y012388D01*
X007208Y012195D01*
X007208Y012340D02*
X007015Y012340D01*
X006619Y012195D02*
X006426Y012388D01*
X006426Y012437D01*
X006474Y012485D01*
X006426Y012195D02*
X006619Y012195D01*
X007618Y011395D02*
X007618Y011299D01*
X007667Y011250D01*
X007618Y011149D02*
X007618Y010956D01*
X007812Y011149D01*
X007860Y011149D01*
X007909Y011101D01*
X007909Y011004D01*
X007860Y010956D01*
X007860Y010855D02*
X007909Y010806D01*
X007909Y010709D01*
X007860Y010661D01*
X007667Y010661D01*
X007618Y010709D01*
X007618Y010806D01*
X007667Y010855D01*
X007860Y011250D02*
X007909Y011299D01*
X007909Y011395D01*
X007860Y011444D01*
X007812Y011444D01*
X007763Y011395D01*
X007715Y011444D01*
X007667Y011444D01*
X007618Y011395D01*
X007763Y011395D02*
X007763Y011347D01*
X007758Y010065D02*
X007855Y010065D01*
X007903Y010017D01*
X008004Y010017D02*
X008052Y010065D01*
X008149Y010065D01*
X008198Y010017D01*
X008299Y010017D02*
X008347Y010065D01*
X008444Y010065D01*
X008492Y010017D01*
X008492Y009823D01*
X008444Y009775D01*
X008347Y009775D01*
X008299Y009823D01*
X008198Y009775D02*
X008004Y009968D01*
X008004Y010017D01*
X008004Y009775D02*
X008198Y009775D01*
X007903Y009775D02*
X007709Y009968D01*
X007709Y010017D01*
X007758Y010065D01*
X007709Y009775D02*
X007903Y009775D01*
D11*
X006973Y013030D02*
X006975Y013043D01*
X006980Y013056D01*
X006989Y013067D01*
X007000Y013074D01*
X007013Y013079D01*
X007026Y013080D01*
X007040Y013077D01*
X007052Y013071D01*
X007062Y013062D01*
X007069Y013050D01*
X007073Y013037D01*
X007073Y013023D01*
X007069Y013010D01*
X007062Y012998D01*
X007052Y012989D01*
X007040Y012983D01*
X007026Y012980D01*
X007013Y012981D01*
X007000Y012986D01*
X006989Y012993D01*
X006980Y013004D01*
X006975Y013017D01*
X006973Y013030D01*
D12*
X001123Y000763D02*
X000942Y000763D01*
X001037Y000885D02*
X001113Y000769D01*
X001123Y000763D02*
X001215Y000885D01*
X001304Y000763D02*
X001123Y000763D01*
X001642Y000763D02*
X001823Y000763D01*
X001915Y000885D01*
X002004Y000763D02*
X001823Y000763D01*
X001813Y000769D02*
X001737Y000885D01*
X002342Y000763D02*
X002523Y000763D01*
X002615Y000885D01*
X002704Y000763D02*
X002523Y000763D01*
X002513Y000769D02*
X002437Y000885D01*
X003042Y000763D02*
X003223Y000763D01*
X003315Y000885D01*
X003404Y000763D02*
X003223Y000763D01*
X003213Y000769D02*
X003137Y000885D01*
X001735Y002975D02*
X001735Y011046D01*
X000750Y011046D01*
X000750Y002975D01*
X001735Y002975D01*
X009412Y002975D02*
X009412Y011046D01*
X010396Y011046D01*
X010396Y002975D01*
X009412Y002975D01*
D13*
X009959Y001501D02*
X008187Y001501D01*
X008187Y000359D01*
X009959Y000359D01*
X009959Y001501D01*
X007321Y006556D02*
X006920Y006556D01*
X006829Y006556D01*
X006829Y006580D01*
X006829Y006820D02*
X006829Y006824D01*
X006829Y007072D02*
X006829Y007080D01*
X006829Y007304D02*
X006829Y007343D01*
X006991Y007343D01*
X007321Y007343D01*
X007321Y007316D01*
X007106Y007269D02*
X007108Y007277D01*
X007113Y007283D01*
X007120Y007287D01*
X007128Y007287D01*
X007135Y007283D01*
X007140Y007277D01*
X007142Y007269D01*
X007140Y007261D01*
X007135Y007255D01*
X007128Y007251D01*
X007120Y007251D01*
X007113Y007255D01*
X007108Y007261D01*
X007106Y007269D01*
X007321Y007084D02*
X007321Y007072D01*
X007321Y006824D02*
X007321Y006816D01*
X007321Y006595D02*
X007321Y006556D01*
X005461Y004322D02*
X003886Y004322D01*
X003886Y003338D01*
X005461Y003338D01*
X005461Y004322D01*
X003673Y003430D02*
X003675Y003450D01*
X003681Y003468D01*
X003690Y003486D01*
X003702Y003501D01*
X003717Y003513D01*
X003735Y003522D01*
X003753Y003528D01*
X003773Y003530D01*
X003793Y003528D01*
X003811Y003522D01*
X003829Y003513D01*
X003844Y003501D01*
X003856Y003486D01*
X003865Y003468D01*
X003871Y003450D01*
X003873Y003430D01*
X003871Y003410D01*
X003865Y003392D01*
X003856Y003374D01*
X003844Y003359D01*
X003829Y003347D01*
X003811Y003338D01*
X003793Y003332D01*
X003773Y003330D01*
X003753Y003332D01*
X003735Y003338D01*
X003717Y003347D01*
X003702Y003359D01*
X003690Y003374D01*
X003681Y003392D01*
X003675Y003410D01*
X003673Y003430D01*
X003868Y008150D02*
X003278Y008150D01*
X003278Y009410D01*
X003868Y009410D01*
X003868Y008150D01*
X005319Y012586D02*
X007327Y012586D01*
X007327Y013374D01*
X005319Y013374D01*
X005319Y012586D01*
D14*
X005418Y012980D03*
X007229Y012980D03*
D15*
X007880Y004895D02*
X008038Y004895D01*
X008038Y004737D01*
X008038Y003123D02*
X008038Y002965D01*
X007880Y002965D01*
X006266Y002965D02*
X006109Y002965D01*
X006109Y003123D01*
X006109Y004737D02*
X006109Y004895D01*
X006266Y004895D01*
D16*
X006217Y004786D03*
D17*
X005264Y004145D03*
X005264Y003515D03*
X004083Y003515D03*
X004083Y004145D03*
M02*
