G75*
%MOIN*%
%OFA0B0*%
%FSLAX24Y24*%
%IPPOS*%
%LPD*%
%AMOC8*
5,1,8,0,0,1.08239X$1,22.5*
%
%ADD10R,0.0354X0.0276*%
%ADD11R,0.0276X0.0354*%
%ADD12C,0.0118*%
%ADD13R,0.0430X0.0750*%
%ADD14R,0.0394X0.0787*%
%ADD15R,0.0118X0.0236*%
%ADD16C,0.0040*%
%ADD17R,0.0315X0.0106*%
%ADD18R,0.0374X0.0551*%
%ADD19R,0.0551X0.0453*%
%ADD20R,0.0394X0.0433*%
%ADD21R,0.0433X0.0394*%
D10*
X004144Y002091D03*
X004144Y002603D03*
X006644Y002603D03*
X006644Y002091D03*
X008394Y002441D03*
X008394Y002953D03*
X009094Y002953D03*
X009094Y002441D03*
X009794Y002441D03*
X009794Y002953D03*
X010494Y002953D03*
X010494Y002441D03*
X007844Y004691D03*
X007844Y005203D03*
X007394Y005203D03*
X007394Y004691D03*
X004994Y006791D03*
X004994Y007303D03*
X004294Y007303D03*
X004294Y006791D03*
X004394Y009441D03*
X004394Y009953D03*
X004394Y011341D03*
X004394Y011853D03*
X006794Y010703D03*
X006794Y010191D03*
X008894Y010191D03*
X008894Y010703D03*
D11*
X006900Y007997D03*
X006388Y007997D03*
X004900Y008847D03*
X004388Y008847D03*
X004388Y010647D03*
X004900Y010647D03*
X002300Y002547D03*
X001788Y002547D03*
D12*
X008256Y002030D02*
X008532Y002030D01*
X008532Y001754D01*
X008256Y001754D01*
X008256Y002030D01*
X008256Y001871D02*
X008532Y001871D01*
X008532Y001988D02*
X008256Y001988D01*
X008256Y001340D02*
X008532Y001340D01*
X008532Y001064D01*
X008256Y001064D01*
X008256Y001340D01*
X008256Y001181D02*
X008532Y001181D01*
X008532Y001298D02*
X008256Y001298D01*
X008956Y001340D02*
X009232Y001340D01*
X009232Y001064D01*
X008956Y001064D01*
X008956Y001340D01*
X008956Y001181D02*
X009232Y001181D01*
X009232Y001298D02*
X008956Y001298D01*
X008956Y002030D02*
X009232Y002030D01*
X009232Y001754D01*
X008956Y001754D01*
X008956Y002030D01*
X008956Y001871D02*
X009232Y001871D01*
X009232Y001988D02*
X008956Y001988D01*
X009656Y002030D02*
X009932Y002030D01*
X009932Y001754D01*
X009656Y001754D01*
X009656Y002030D01*
X009656Y001871D02*
X009932Y001871D01*
X009932Y001988D02*
X009656Y001988D01*
X009656Y001340D02*
X009932Y001340D01*
X009932Y001064D01*
X009656Y001064D01*
X009656Y001340D01*
X009656Y001181D02*
X009932Y001181D01*
X009932Y001298D02*
X009656Y001298D01*
X010356Y001340D02*
X010632Y001340D01*
X010632Y001064D01*
X010356Y001064D01*
X010356Y001340D01*
X010356Y001181D02*
X010632Y001181D01*
X010632Y001298D02*
X010356Y001298D01*
X010356Y002030D02*
X010632Y002030D01*
X010632Y001754D01*
X010356Y001754D01*
X010356Y002030D01*
X010356Y001871D02*
X010632Y001871D01*
X010632Y001988D02*
X010356Y001988D01*
D13*
X008324Y010597D03*
X007364Y010597D03*
D14*
X006398Y013747D03*
X004390Y013747D03*
D15*
X004399Y005541D03*
X004596Y005541D03*
X004793Y005541D03*
X004990Y005541D03*
X005186Y005541D03*
X005186Y005147D03*
X004990Y005147D03*
X004793Y005147D03*
X004596Y005147D03*
X004399Y005147D03*
X004202Y005147D03*
X004202Y004754D03*
X004399Y004754D03*
X004596Y004754D03*
X004793Y004754D03*
X004990Y004754D03*
X005186Y004754D03*
X004202Y005541D03*
D16*
X003877Y005610D02*
X003700Y005610D01*
X003700Y005669D01*
X003877Y005669D01*
X003877Y005610D01*
X003877Y005628D02*
X003700Y005628D01*
X003700Y005667D02*
X003877Y005667D01*
X003877Y005807D02*
X003700Y005807D01*
X003700Y005866D01*
X003858Y005866D01*
X003877Y005846D01*
X003877Y005807D01*
X003877Y005821D02*
X003700Y005821D01*
X003700Y005859D02*
X003864Y005859D01*
X003985Y005975D02*
X004035Y005975D01*
X004035Y005964D02*
X004035Y006141D01*
X003976Y006141D01*
X003976Y005984D01*
X003995Y005964D01*
X004035Y005964D01*
X004035Y006013D02*
X003976Y006013D01*
X003976Y006052D02*
X004035Y006052D01*
X004035Y006090D02*
X003976Y006090D01*
X003976Y006129D02*
X004035Y006129D01*
X004173Y006129D02*
X004232Y006129D01*
X004232Y006141D02*
X004173Y006141D01*
X004173Y005964D01*
X004232Y005964D01*
X004232Y006141D01*
X004232Y006090D02*
X004173Y006090D01*
X004173Y006052D02*
X004232Y006052D01*
X004232Y006013D02*
X004173Y006013D01*
X004173Y005975D02*
X004232Y005975D01*
X004370Y005975D02*
X004429Y005975D01*
X004429Y005964D02*
X004370Y005964D01*
X004370Y006141D01*
X004429Y006141D01*
X004429Y005964D01*
X004429Y006013D02*
X004370Y006013D01*
X004370Y006052D02*
X004429Y006052D01*
X004429Y006090D02*
X004370Y006090D01*
X004370Y006129D02*
X004429Y006129D01*
X004566Y006129D02*
X004625Y006129D01*
X004625Y006141D02*
X004566Y006141D01*
X004566Y005964D01*
X004625Y005964D01*
X004625Y006141D01*
X004625Y006090D02*
X004566Y006090D01*
X004566Y006052D02*
X004625Y006052D01*
X004625Y006013D02*
X004566Y006013D01*
X004566Y005975D02*
X004625Y005975D01*
X004763Y005975D02*
X004822Y005975D01*
X004822Y005964D02*
X004763Y005964D01*
X004763Y006141D01*
X004822Y006141D01*
X004822Y005964D01*
X004822Y006013D02*
X004763Y006013D01*
X004763Y006052D02*
X004822Y006052D01*
X004822Y006090D02*
X004763Y006090D01*
X004763Y006129D02*
X004822Y006129D01*
X004960Y006129D02*
X005019Y006129D01*
X005019Y006141D02*
X004960Y006141D01*
X004960Y005964D01*
X005019Y005964D01*
X005019Y006141D01*
X005019Y006090D02*
X004960Y006090D01*
X004960Y006052D02*
X005019Y006052D01*
X005019Y006013D02*
X004960Y006013D01*
X004960Y005975D02*
X005019Y005975D01*
X005157Y005975D02*
X005216Y005975D01*
X005216Y005964D02*
X005157Y005964D01*
X005157Y006141D01*
X005216Y006141D01*
X005216Y005964D01*
X005216Y006013D02*
X005157Y006013D01*
X005157Y006052D02*
X005216Y006052D01*
X005216Y006090D02*
X005157Y006090D01*
X005157Y006129D02*
X005216Y006129D01*
X005354Y006129D02*
X005413Y006129D01*
X005413Y006141D02*
X005354Y006141D01*
X005354Y005964D01*
X005393Y005964D01*
X005413Y005984D01*
X005413Y006141D01*
X005413Y006090D02*
X005354Y006090D01*
X005354Y006052D02*
X005413Y006052D01*
X005413Y006013D02*
X005354Y006013D01*
X005354Y005975D02*
X005404Y005975D01*
X005524Y005859D02*
X005688Y005859D01*
X005688Y005866D02*
X005688Y005807D01*
X005511Y005807D01*
X005511Y005846D01*
X005531Y005866D01*
X005688Y005866D01*
X005688Y005821D02*
X005511Y005821D01*
X005511Y005669D02*
X005688Y005669D01*
X005688Y005610D01*
X005511Y005610D01*
X005511Y005669D01*
X005511Y005667D02*
X005688Y005667D01*
X005688Y005628D02*
X005511Y005628D01*
X005511Y005472D02*
X005688Y005472D01*
X005688Y005413D01*
X005511Y005413D01*
X005511Y005472D01*
X005511Y005436D02*
X005688Y005436D01*
X005688Y005275D02*
X005688Y005216D01*
X005511Y005216D01*
X005511Y005275D01*
X005688Y005275D01*
X005688Y005243D02*
X005511Y005243D01*
X005511Y005078D02*
X005688Y005078D01*
X005688Y005019D01*
X005511Y005019D01*
X005511Y005078D01*
X005511Y005051D02*
X005688Y005051D01*
X005688Y004881D02*
X005688Y004822D01*
X005511Y004822D01*
X005511Y004881D01*
X005688Y004881D01*
X005688Y004858D02*
X005511Y004858D01*
X005511Y004685D02*
X005688Y004685D01*
X005688Y004626D01*
X005511Y004626D01*
X005511Y004685D01*
X005511Y004666D02*
X005688Y004666D01*
X005688Y004627D02*
X005511Y004627D01*
X005511Y004488D02*
X005688Y004488D01*
X005688Y004429D01*
X005531Y004429D01*
X005511Y004448D01*
X005511Y004488D01*
X005511Y004473D02*
X005688Y004473D01*
X005688Y004435D02*
X005525Y004435D01*
X005404Y004319D02*
X005354Y004319D01*
X005354Y004330D02*
X005354Y004153D01*
X005413Y004153D01*
X005413Y004311D01*
X005393Y004330D01*
X005354Y004330D01*
X005354Y004281D02*
X005413Y004281D01*
X005413Y004242D02*
X005354Y004242D01*
X005354Y004204D02*
X005413Y004204D01*
X005413Y004165D02*
X005354Y004165D01*
X005216Y004165D02*
X005157Y004165D01*
X005157Y004153D02*
X005216Y004153D01*
X005216Y004330D01*
X005157Y004330D01*
X005157Y004153D01*
X005157Y004204D02*
X005216Y004204D01*
X005216Y004242D02*
X005157Y004242D01*
X005157Y004281D02*
X005216Y004281D01*
X005216Y004319D02*
X005157Y004319D01*
X005019Y004319D02*
X004960Y004319D01*
X004960Y004330D02*
X005019Y004330D01*
X005019Y004153D01*
X004960Y004153D01*
X004960Y004330D01*
X004960Y004281D02*
X005019Y004281D01*
X005019Y004242D02*
X004960Y004242D01*
X004960Y004204D02*
X005019Y004204D01*
X005019Y004165D02*
X004960Y004165D01*
X004822Y004165D02*
X004763Y004165D01*
X004763Y004153D02*
X004822Y004153D01*
X004822Y004330D01*
X004763Y004330D01*
X004763Y004153D01*
X004763Y004204D02*
X004822Y004204D01*
X004822Y004242D02*
X004763Y004242D01*
X004763Y004281D02*
X004822Y004281D01*
X004822Y004319D02*
X004763Y004319D01*
X004625Y004319D02*
X004566Y004319D01*
X004566Y004330D02*
X004625Y004330D01*
X004625Y004153D01*
X004566Y004153D01*
X004566Y004330D01*
X004566Y004281D02*
X004625Y004281D01*
X004625Y004242D02*
X004566Y004242D01*
X004566Y004204D02*
X004625Y004204D01*
X004625Y004165D02*
X004566Y004165D01*
X004429Y004165D02*
X004370Y004165D01*
X004370Y004153D02*
X004429Y004153D01*
X004429Y004330D01*
X004370Y004330D01*
X004370Y004153D01*
X004370Y004204D02*
X004429Y004204D01*
X004429Y004242D02*
X004370Y004242D01*
X004370Y004281D02*
X004429Y004281D01*
X004429Y004319D02*
X004370Y004319D01*
X004232Y004319D02*
X004173Y004319D01*
X004173Y004330D02*
X004232Y004330D01*
X004232Y004153D01*
X004173Y004153D01*
X004173Y004330D01*
X004173Y004281D02*
X004232Y004281D01*
X004232Y004242D02*
X004173Y004242D01*
X004173Y004204D02*
X004232Y004204D01*
X004232Y004165D02*
X004173Y004165D01*
X004035Y004165D02*
X003976Y004165D01*
X003976Y004153D02*
X004035Y004153D01*
X004035Y004330D01*
X003995Y004330D01*
X003976Y004311D01*
X003976Y004153D01*
X003976Y004204D02*
X004035Y004204D01*
X004035Y004242D02*
X003976Y004242D01*
X003976Y004281D02*
X004035Y004281D01*
X004035Y004319D02*
X003984Y004319D01*
X003864Y004435D02*
X003700Y004435D01*
X003700Y004429D02*
X003700Y004488D01*
X003877Y004488D01*
X003877Y004448D01*
X003858Y004429D01*
X003700Y004429D01*
X003700Y004473D02*
X003877Y004473D01*
X003877Y004626D02*
X003700Y004626D01*
X003700Y004685D01*
X003877Y004685D01*
X003877Y004626D01*
X003877Y004627D02*
X003700Y004627D01*
X003700Y004666D02*
X003877Y004666D01*
X003877Y004822D02*
X003700Y004822D01*
X003700Y004881D01*
X003877Y004881D01*
X003877Y004822D01*
X003877Y004858D02*
X003700Y004858D01*
X003700Y005019D02*
X003700Y005078D01*
X003877Y005078D01*
X003877Y005019D01*
X003700Y005019D01*
X003700Y005051D02*
X003877Y005051D01*
X003877Y005216D02*
X003700Y005216D01*
X003700Y005275D01*
X003877Y005275D01*
X003877Y005216D01*
X003877Y005243D02*
X003700Y005243D01*
X003700Y005413D02*
X003700Y005472D01*
X003877Y005472D01*
X003877Y005413D01*
X003700Y005413D01*
X003700Y005436D02*
X003877Y005436D01*
D17*
X004369Y007811D03*
X004369Y008067D03*
X004369Y008323D03*
X004920Y008323D03*
X004920Y008067D03*
X004920Y007811D03*
D18*
X001727Y001647D03*
X003361Y001647D03*
D19*
X004804Y001982D03*
X004804Y002612D03*
X005985Y002612D03*
X005985Y001982D03*
D20*
X002544Y004963D03*
X002544Y005632D03*
D21*
X008710Y005247D03*
X009379Y005247D03*
M02*
