G75*
%MOIN*%
%OFA0B0*%
%FSLAX24Y24*%
%IPPOS*%
%LPD*%
%AMOC8*
5,1,8,0,0,1.08239X$1,22.5*
%
%ADD10R,0.0276X0.0354*%
%ADD11R,0.0354X0.0276*%
%ADD12C,0.0118*%
%ADD13R,0.0750X0.0430*%
%ADD14R,0.0394X0.0787*%
%ADD15C,0.0252*%
%ADD16C,0.0035*%
%ADD17R,0.0157X0.0106*%
%ADD18R,0.0374X0.0551*%
%ADD19C,0.0600*%
%ADD20R,0.0551X0.0453*%
%ADD21R,0.0433X0.0394*%
%ADD22C,0.0100*%
%ADD23C,0.0260*%
%ADD24C,0.0160*%
D10*
X004917Y004680D03*
X005429Y004680D03*
X004079Y006930D03*
X003567Y006930D03*
X003529Y007830D03*
X003017Y007830D03*
X003067Y009730D03*
X003579Y009730D03*
X006817Y009930D03*
X007329Y009930D03*
X007329Y007930D03*
X006817Y007930D03*
X009517Y001880D03*
X010029Y001880D03*
D11*
X007573Y005424D03*
X007573Y005936D03*
X006573Y005936D03*
X006573Y005424D03*
X007323Y008674D03*
X007323Y009186D03*
X007323Y010674D03*
X007323Y011186D03*
X003273Y004036D03*
X003273Y003524D03*
X003223Y002236D03*
X003223Y001724D03*
X002523Y001724D03*
X002523Y002236D03*
X001823Y002236D03*
X001823Y001724D03*
X001123Y001724D03*
X001123Y002236D03*
D12*
X001261Y000347D02*
X000985Y000347D01*
X000985Y000623D01*
X001261Y000623D01*
X001261Y000347D01*
X001261Y000464D02*
X000985Y000464D01*
X000985Y000581D02*
X001261Y000581D01*
X001261Y001037D02*
X000985Y001037D01*
X000985Y001313D01*
X001261Y001313D01*
X001261Y001037D01*
X001261Y001154D02*
X000985Y001154D01*
X000985Y001271D02*
X001261Y001271D01*
X001685Y001037D02*
X001961Y001037D01*
X001685Y001037D02*
X001685Y001313D01*
X001961Y001313D01*
X001961Y001037D01*
X001961Y001154D02*
X001685Y001154D01*
X001685Y001271D02*
X001961Y001271D01*
X002385Y001037D02*
X002661Y001037D01*
X002385Y001037D02*
X002385Y001313D01*
X002661Y001313D01*
X002661Y001037D01*
X002661Y001154D02*
X002385Y001154D01*
X002385Y001271D02*
X002661Y001271D01*
X003085Y001037D02*
X003361Y001037D01*
X003085Y001037D02*
X003085Y001313D01*
X003361Y001313D01*
X003361Y001037D01*
X003361Y001154D02*
X003085Y001154D01*
X003085Y001271D02*
X003361Y001271D01*
X003361Y000347D02*
X003085Y000347D01*
X003085Y000623D01*
X003361Y000623D01*
X003361Y000347D01*
X003361Y000464D02*
X003085Y000464D01*
X003085Y000581D02*
X003361Y000581D01*
X002661Y000347D02*
X002385Y000347D01*
X002385Y000623D01*
X002661Y000623D01*
X002661Y000347D01*
X002661Y000464D02*
X002385Y000464D01*
X002385Y000581D02*
X002661Y000581D01*
X001961Y000347D02*
X001685Y000347D01*
X001685Y000623D01*
X001961Y000623D01*
X001961Y000347D01*
X001961Y000464D02*
X001685Y000464D01*
X001685Y000581D02*
X001961Y000581D01*
D13*
X003573Y008300D03*
X003573Y009260D03*
D14*
X005319Y012980D03*
X007327Y012980D03*
D15*
X006569Y004434D02*
X006569Y003426D01*
X006569Y004434D02*
X007577Y004434D01*
X007577Y003426D01*
X006569Y003426D01*
X006569Y003677D02*
X007577Y003677D01*
X007577Y003928D02*
X006569Y003928D01*
X006569Y004179D02*
X007577Y004179D01*
X007577Y004430D02*
X006569Y004430D01*
D16*
X006269Y004380D02*
X006067Y004380D01*
X006067Y004464D01*
X006269Y004464D01*
X006269Y004380D01*
X006269Y004414D02*
X006067Y004414D01*
X006067Y004448D02*
X006269Y004448D01*
X006269Y004577D02*
X006067Y004577D01*
X006067Y004661D01*
X006269Y004661D01*
X006269Y004577D01*
X006269Y004611D02*
X006067Y004611D01*
X006067Y004645D02*
X006269Y004645D01*
X006342Y004735D02*
X006342Y004937D01*
X006426Y004937D01*
X006426Y004735D01*
X006342Y004735D01*
X006342Y004769D02*
X006426Y004769D01*
X006426Y004803D02*
X006342Y004803D01*
X006342Y004837D02*
X006426Y004837D01*
X006426Y004871D02*
X006342Y004871D01*
X006342Y004905D02*
X006426Y004905D01*
X006539Y004937D02*
X006539Y004735D01*
X006539Y004937D02*
X006623Y004937D01*
X006623Y004735D01*
X006539Y004735D01*
X006539Y004769D02*
X006623Y004769D01*
X006623Y004803D02*
X006539Y004803D01*
X006539Y004837D02*
X006623Y004837D01*
X006623Y004871D02*
X006539Y004871D01*
X006539Y004905D02*
X006623Y004905D01*
X006736Y004937D02*
X006736Y004735D01*
X006736Y004937D02*
X006820Y004937D01*
X006820Y004735D01*
X006736Y004735D01*
X006736Y004769D02*
X006820Y004769D01*
X006820Y004803D02*
X006736Y004803D01*
X006736Y004837D02*
X006820Y004837D01*
X006820Y004871D02*
X006736Y004871D01*
X006736Y004905D02*
X006820Y004905D01*
X006933Y004937D02*
X006933Y004735D01*
X006933Y004937D02*
X007017Y004937D01*
X007017Y004735D01*
X006933Y004735D01*
X006933Y004769D02*
X007017Y004769D01*
X007017Y004803D02*
X006933Y004803D01*
X006933Y004837D02*
X007017Y004837D01*
X007017Y004871D02*
X006933Y004871D01*
X006933Y004905D02*
X007017Y004905D01*
X007130Y004937D02*
X007130Y004735D01*
X007130Y004937D02*
X007214Y004937D01*
X007214Y004735D01*
X007130Y004735D01*
X007130Y004769D02*
X007214Y004769D01*
X007214Y004803D02*
X007130Y004803D01*
X007130Y004837D02*
X007214Y004837D01*
X007214Y004871D02*
X007130Y004871D01*
X007130Y004905D02*
X007214Y004905D01*
X007327Y004937D02*
X007327Y004735D01*
X007327Y004937D02*
X007411Y004937D01*
X007411Y004735D01*
X007327Y004735D01*
X007327Y004769D02*
X007411Y004769D01*
X007411Y004803D02*
X007327Y004803D01*
X007327Y004837D02*
X007411Y004837D01*
X007411Y004871D02*
X007327Y004871D01*
X007327Y004905D02*
X007411Y004905D01*
X007523Y004937D02*
X007523Y004735D01*
X007523Y004937D02*
X007607Y004937D01*
X007607Y004735D01*
X007523Y004735D01*
X007523Y004769D02*
X007607Y004769D01*
X007607Y004803D02*
X007523Y004803D01*
X007523Y004837D02*
X007607Y004837D01*
X007607Y004871D02*
X007523Y004871D01*
X007523Y004905D02*
X007607Y004905D01*
X007720Y004937D02*
X007720Y004735D01*
X007720Y004937D02*
X007804Y004937D01*
X007804Y004735D01*
X007720Y004735D01*
X007720Y004769D02*
X007804Y004769D01*
X007804Y004803D02*
X007720Y004803D01*
X007720Y004837D02*
X007804Y004837D01*
X007804Y004871D02*
X007720Y004871D01*
X007720Y004905D02*
X007804Y004905D01*
X007878Y004661D02*
X008080Y004661D01*
X008080Y004577D01*
X007878Y004577D01*
X007878Y004661D01*
X007878Y004611D02*
X008080Y004611D01*
X008080Y004645D02*
X007878Y004645D01*
X007878Y004464D02*
X008080Y004464D01*
X008080Y004380D01*
X007878Y004380D01*
X007878Y004464D01*
X007878Y004414D02*
X008080Y004414D01*
X008080Y004448D02*
X007878Y004448D01*
X007878Y004267D02*
X008080Y004267D01*
X008080Y004183D01*
X007878Y004183D01*
X007878Y004267D01*
X007878Y004217D02*
X008080Y004217D01*
X008080Y004251D02*
X007878Y004251D01*
X007878Y004070D02*
X008080Y004070D01*
X008080Y003986D01*
X007878Y003986D01*
X007878Y004070D01*
X007878Y004020D02*
X008080Y004020D01*
X008080Y004054D02*
X007878Y004054D01*
X007878Y003874D02*
X008080Y003874D01*
X008080Y003790D01*
X007878Y003790D01*
X007878Y003874D01*
X007878Y003824D02*
X008080Y003824D01*
X008080Y003858D02*
X007878Y003858D01*
X007878Y003677D02*
X008080Y003677D01*
X008080Y003593D01*
X007878Y003593D01*
X007878Y003677D01*
X007878Y003627D02*
X008080Y003627D01*
X008080Y003661D02*
X007878Y003661D01*
X007878Y003480D02*
X008080Y003480D01*
X008080Y003396D01*
X007878Y003396D01*
X007878Y003480D01*
X007878Y003430D02*
X008080Y003430D01*
X008080Y003464D02*
X007878Y003464D01*
X007878Y003283D02*
X008080Y003283D01*
X008080Y003199D01*
X007878Y003199D01*
X007878Y003283D01*
X007878Y003233D02*
X008080Y003233D01*
X008080Y003267D02*
X007878Y003267D01*
X007804Y003125D02*
X007804Y002923D01*
X007720Y002923D01*
X007720Y003125D01*
X007804Y003125D01*
X007804Y002957D02*
X007720Y002957D01*
X007720Y002991D02*
X007804Y002991D01*
X007804Y003025D02*
X007720Y003025D01*
X007720Y003059D02*
X007804Y003059D01*
X007804Y003093D02*
X007720Y003093D01*
X007607Y003125D02*
X007607Y002923D01*
X007523Y002923D01*
X007523Y003125D01*
X007607Y003125D01*
X007607Y002957D02*
X007523Y002957D01*
X007523Y002991D02*
X007607Y002991D01*
X007607Y003025D02*
X007523Y003025D01*
X007523Y003059D02*
X007607Y003059D01*
X007607Y003093D02*
X007523Y003093D01*
X007411Y003125D02*
X007411Y002923D01*
X007327Y002923D01*
X007327Y003125D01*
X007411Y003125D01*
X007411Y002957D02*
X007327Y002957D01*
X007327Y002991D02*
X007411Y002991D01*
X007411Y003025D02*
X007327Y003025D01*
X007327Y003059D02*
X007411Y003059D01*
X007411Y003093D02*
X007327Y003093D01*
X007214Y003125D02*
X007214Y002923D01*
X007130Y002923D01*
X007130Y003125D01*
X007214Y003125D01*
X007214Y002957D02*
X007130Y002957D01*
X007130Y002991D02*
X007214Y002991D01*
X007214Y003025D02*
X007130Y003025D01*
X007130Y003059D02*
X007214Y003059D01*
X007214Y003093D02*
X007130Y003093D01*
X007017Y003125D02*
X007017Y002923D01*
X006933Y002923D01*
X006933Y003125D01*
X007017Y003125D01*
X007017Y002957D02*
X006933Y002957D01*
X006933Y002991D02*
X007017Y002991D01*
X007017Y003025D02*
X006933Y003025D01*
X006933Y003059D02*
X007017Y003059D01*
X007017Y003093D02*
X006933Y003093D01*
X006820Y003125D02*
X006820Y002923D01*
X006736Y002923D01*
X006736Y003125D01*
X006820Y003125D01*
X006820Y002957D02*
X006736Y002957D01*
X006736Y002991D02*
X006820Y002991D01*
X006820Y003025D02*
X006736Y003025D01*
X006736Y003059D02*
X006820Y003059D01*
X006820Y003093D02*
X006736Y003093D01*
X006623Y003125D02*
X006623Y002923D01*
X006539Y002923D01*
X006539Y003125D01*
X006623Y003125D01*
X006623Y002957D02*
X006539Y002957D01*
X006539Y002991D02*
X006623Y002991D01*
X006623Y003025D02*
X006539Y003025D01*
X006539Y003059D02*
X006623Y003059D01*
X006623Y003093D02*
X006539Y003093D01*
X006426Y003125D02*
X006426Y002923D01*
X006342Y002923D01*
X006342Y003125D01*
X006426Y003125D01*
X006426Y002957D02*
X006342Y002957D01*
X006342Y002991D02*
X006426Y002991D01*
X006426Y003025D02*
X006342Y003025D01*
X006342Y003059D02*
X006426Y003059D01*
X006426Y003093D02*
X006342Y003093D01*
X006269Y003199D02*
X006067Y003199D01*
X006067Y003283D01*
X006269Y003283D01*
X006269Y003199D01*
X006269Y003233D02*
X006067Y003233D01*
X006067Y003267D02*
X006269Y003267D01*
X006269Y003396D02*
X006067Y003396D01*
X006067Y003480D01*
X006269Y003480D01*
X006269Y003396D01*
X006269Y003430D02*
X006067Y003430D01*
X006067Y003464D02*
X006269Y003464D01*
X006269Y003593D02*
X006067Y003593D01*
X006067Y003677D01*
X006269Y003677D01*
X006269Y003593D01*
X006269Y003627D02*
X006067Y003627D01*
X006067Y003661D02*
X006269Y003661D01*
X006269Y003790D02*
X006067Y003790D01*
X006067Y003874D01*
X006269Y003874D01*
X006269Y003790D01*
X006269Y003824D02*
X006067Y003824D01*
X006067Y003858D02*
X006269Y003858D01*
X006269Y003986D02*
X006067Y003986D01*
X006067Y004070D01*
X006269Y004070D01*
X006269Y003986D01*
X006269Y004020D02*
X006067Y004020D01*
X006067Y004054D02*
X006269Y004054D01*
X006269Y004183D02*
X006067Y004183D01*
X006067Y004267D01*
X006269Y004267D01*
X006269Y004183D01*
X006269Y004217D02*
X006067Y004217D01*
X006067Y004251D02*
X006269Y004251D01*
D17*
X006876Y006694D03*
X006876Y006950D03*
X006876Y007206D03*
X007270Y007206D03*
X007270Y006950D03*
X007270Y006694D03*
D18*
X008256Y000930D03*
X009890Y000930D03*
D19*
X009904Y003467D03*
X009904Y004255D03*
X009904Y005042D03*
X009904Y005830D03*
X009904Y006617D03*
X009904Y007404D03*
X009904Y008192D03*
X009904Y008979D03*
X009904Y009767D03*
X009904Y010554D03*
X001243Y010554D03*
X001243Y009767D03*
X001243Y008979D03*
X001243Y008192D03*
X001243Y007404D03*
X001243Y006617D03*
X001243Y005830D03*
X001243Y005042D03*
X001243Y004255D03*
X001243Y003467D03*
D20*
X004083Y003515D03*
X004083Y004145D03*
X005264Y004145D03*
X005264Y003515D03*
D21*
X008389Y003830D03*
X009058Y003830D03*
D22*
X009421Y003467D01*
X009904Y003467D01*
X009973Y002530D02*
X009973Y002080D01*
X009773Y002280D01*
X007623Y002280D01*
X007623Y002630D02*
X007723Y002630D01*
X007773Y002680D01*
X007773Y003013D01*
X007762Y003024D01*
X007565Y003024D02*
X007565Y003438D01*
X007223Y003780D01*
X007472Y004028D01*
X007979Y004028D01*
X007067Y004028D01*
X006673Y003635D01*
X007073Y003635D01*
X007073Y003930D01*
X006729Y004474D01*
X006173Y004624D01*
X006168Y004619D01*
X006168Y004225D01*
X006168Y004028D02*
X005973Y004080D01*
X005773Y004430D01*
X005429Y004360D02*
X005264Y004145D01*
X006015Y003438D01*
X006168Y003438D01*
X006168Y003241D02*
X006062Y003091D01*
X005923Y003080D01*
X004568Y003080D01*
X004083Y003515D01*
X004042Y003524D01*
X003273Y003524D01*
X002773Y003530D02*
X003723Y002580D01*
X006073Y002580D01*
X006384Y002891D01*
X006384Y003024D01*
X006581Y003024D02*
X006581Y002488D01*
X006373Y002280D01*
X003673Y002280D01*
X003223Y002730D01*
X002773Y002786D02*
X003223Y002236D01*
X003223Y001724D02*
X003223Y001175D01*
X003673Y001130D02*
X003673Y000930D01*
X003273Y000530D01*
X003269Y000530D01*
X003223Y000485D01*
X002523Y000485D01*
X001823Y000485D01*
X001123Y000485D01*
X001123Y001175D02*
X001123Y001724D01*
X001123Y002236D02*
X001073Y002286D01*
X001073Y002580D01*
X002073Y003580D01*
X002073Y005080D01*
X003073Y006080D01*
X003473Y006080D01*
X003573Y005780D02*
X003073Y005780D01*
X002273Y004980D01*
X002273Y003280D01*
X001773Y002780D01*
X001773Y002286D01*
X001823Y002236D01*
X001823Y001724D02*
X001823Y001175D01*
X002523Y001175D02*
X002523Y001724D01*
X002523Y002236D02*
X002573Y002286D01*
X002573Y002580D01*
X002773Y002786D02*
X002773Y003180D01*
X002473Y003080D02*
X002173Y002780D01*
X002473Y003080D02*
X002473Y003730D01*
X002779Y004036D01*
X003273Y004036D01*
X003382Y004145D01*
X004083Y004145D01*
X005264Y003515D01*
X005773Y003930D02*
X005723Y004030D01*
X005773Y003930D02*
X005873Y003830D01*
X006166Y003830D01*
X006168Y003832D01*
X006168Y003635D02*
X006673Y003635D01*
X006873Y003780D02*
X006629Y004024D01*
X006629Y004130D01*
X006928Y003832D01*
X006975Y003832D01*
X007073Y003930D01*
X007223Y003780D01*
X007073Y003930D02*
X007172Y004028D01*
X006975Y003832D02*
X006975Y003024D01*
X006975Y001882D01*
X006773Y001680D01*
X006773Y000680D01*
X006623Y000530D01*
X006673Y000530D01*
X006873Y000330D01*
X007656Y000330D01*
X008256Y000930D01*
X009206Y001880D01*
X009517Y001880D01*
X009890Y001741D02*
X010029Y001880D01*
X009973Y001936D01*
X009973Y002080D01*
X009890Y001741D02*
X009890Y000930D01*
X007979Y003241D02*
X007662Y003341D01*
X007565Y003438D01*
X007979Y003438D02*
X007987Y003430D01*
X008673Y003430D01*
X008389Y003830D02*
X008387Y003832D01*
X007979Y003832D01*
X007979Y003635D01*
X007979Y004225D02*
X007984Y004230D01*
X008423Y004230D01*
X007762Y004836D02*
X007762Y005019D01*
X007923Y005180D01*
X007923Y005230D01*
X008023Y005330D01*
X007573Y005424D02*
X007172Y005023D01*
X007172Y004836D01*
X006975Y004836D02*
X006975Y005023D01*
X006573Y005424D01*
X006173Y004980D02*
X006173Y004624D01*
X006173Y004980D02*
X006073Y005080D01*
X005429Y004680D02*
X005429Y004360D01*
X004917Y004680D02*
X004332Y004195D01*
X004083Y004145D01*
X004773Y005080D02*
X004623Y005330D01*
X003223Y005330D01*
X002823Y004930D01*
X002823Y004430D01*
X002673Y004280D01*
X001773Y004180D02*
X001773Y006030D01*
X001573Y006230D01*
X001573Y006330D01*
X001673Y006430D01*
X001673Y006880D01*
X001773Y006980D01*
X002073Y007330D02*
X001317Y007330D01*
X001243Y007404D01*
X002073Y007330D02*
X002273Y007530D01*
X002273Y010430D01*
X002573Y010730D01*
X004773Y010730D01*
X005473Y010030D01*
X005473Y008880D01*
X005823Y008530D01*
X005173Y008380D02*
X003653Y008380D01*
X003573Y008300D01*
X003573Y007874D01*
X003529Y007830D01*
X003773Y007380D02*
X003173Y007380D01*
X002973Y007580D01*
X002973Y007786D01*
X003017Y007830D01*
X003017Y009136D01*
X002973Y009180D01*
X002573Y008780D01*
X002573Y006680D01*
X002873Y006380D01*
X002873Y006280D01*
X002873Y006880D02*
X003517Y006880D01*
X003567Y006930D01*
X003773Y007380D02*
X004079Y007074D01*
X004079Y006930D01*
X004329Y007180D01*
X005123Y007180D01*
X005273Y007330D01*
X005273Y007586D01*
X006373Y007680D02*
X006373Y007180D01*
X006604Y006950D01*
X006876Y006950D01*
X007270Y006950D01*
X007404Y006950D01*
X007573Y006780D01*
X007270Y006694D02*
X007573Y006391D01*
X007573Y005936D01*
X006876Y006694D02*
X006573Y006391D01*
X006573Y005936D01*
X005723Y006030D02*
X005723Y006424D01*
X006373Y007680D02*
X006573Y007880D01*
X006767Y007880D01*
X006817Y007930D01*
X007270Y007871D02*
X007270Y007206D01*
X007329Y007930D02*
X007329Y008668D01*
X007673Y008380D02*
X008673Y008380D01*
X009173Y007880D01*
X009173Y007348D01*
X009904Y006617D01*
X007323Y009186D02*
X007323Y009924D01*
X007329Y009930D02*
X007329Y010668D01*
X007323Y011186D02*
X007323Y012976D01*
X007327Y012980D01*
X003973Y010380D02*
X003973Y010124D01*
X003579Y009730D01*
X003573Y009724D01*
X003573Y009260D01*
X003067Y009274D02*
X002973Y009180D01*
X003067Y009274D02*
X003067Y009730D01*
X003773Y005980D02*
X003573Y005780D01*
X003773Y005980D02*
X003973Y005980D01*
X004773Y005080D02*
X005173Y005080D01*
X006778Y003024D02*
X006778Y002085D01*
X006623Y001930D01*
X004273Y001930D01*
X003273Y000530D02*
X006623Y000530D01*
X007173Y000630D02*
X007369Y000825D01*
X007369Y003024D01*
X007172Y003024D02*
X007172Y001728D01*
X007073Y001630D01*
X001823Y003730D02*
X001673Y003730D01*
X001573Y003830D01*
X001573Y003980D01*
X001773Y004180D01*
D23*
X001823Y003730D03*
X002173Y002780D03*
X002573Y002580D03*
X002773Y003180D03*
X002773Y003530D03*
X002673Y004280D03*
X003123Y004380D03*
X003373Y004630D03*
X003773Y004680D03*
X003923Y004980D03*
X004473Y005080D03*
X004373Y004630D03*
X005173Y005080D03*
X005773Y004930D03*
X006073Y005080D03*
X005773Y004430D03*
X005723Y004030D03*
X004773Y003330D03*
X004573Y003580D03*
X004273Y002830D03*
X004273Y001930D03*
X003673Y001130D03*
X004023Y000830D03*
X005423Y001630D03*
X005923Y001630D03*
X006423Y001630D03*
X007073Y001630D03*
X007623Y001880D03*
X007973Y001730D03*
X008273Y001480D03*
X007623Y002280D03*
X007623Y002630D03*
X007223Y003780D03*
X006873Y003780D03*
X007073Y005330D03*
X007073Y005880D03*
X006173Y006180D03*
X005723Y006030D03*
X005423Y006280D03*
X005173Y006730D03*
X004873Y006880D03*
X004873Y007530D03*
X004673Y007880D03*
X005173Y008380D03*
X005073Y008930D03*
X005823Y008530D03*
X006273Y008980D03*
X005873Y009280D03*
X004173Y009330D03*
X004223Y008780D03*
X002973Y009180D03*
X003973Y010380D03*
X001673Y007830D03*
X001973Y007680D03*
X001773Y006980D03*
X001923Y006430D03*
X002473Y005930D03*
X002873Y006280D03*
X003073Y006580D03*
X002873Y006880D03*
X003123Y007130D03*
X003473Y006080D03*
X003973Y005980D03*
X004273Y006280D03*
X004573Y006080D03*
X003223Y002730D03*
X007173Y000630D03*
X008673Y003430D03*
X008423Y004230D03*
X008023Y005330D03*
X007573Y006780D03*
X007973Y008080D03*
X007673Y008380D03*
X009973Y002530D03*
D24*
X010123Y002825D02*
X010039Y002860D01*
X009908Y002860D01*
X009786Y002810D01*
X009694Y002717D01*
X009643Y002596D01*
X009643Y002530D01*
X007977Y002530D01*
X007985Y002538D01*
X008023Y002630D01*
X008023Y003002D01*
X008105Y003002D01*
X008156Y003015D01*
X008201Y003041D01*
X008237Y003078D01*
X008263Y003123D01*
X008277Y003174D01*
X008277Y003180D01*
X008457Y003180D01*
X008486Y003150D01*
X008608Y003100D01*
X008739Y003100D01*
X008860Y003150D01*
X008953Y003243D01*
X009003Y003364D01*
X009003Y003453D01*
X009040Y003453D01*
X009040Y003812D01*
X009076Y003812D01*
X009076Y003453D01*
X009298Y003453D01*
X009344Y003465D01*
X009385Y003489D01*
X009419Y003523D01*
X009430Y003542D01*
X009424Y003505D01*
X009424Y003467D01*
X009424Y003430D01*
X009436Y003355D01*
X009459Y003283D01*
X009493Y003216D01*
X009538Y003155D01*
X009591Y003101D01*
X009652Y003057D01*
X009720Y003023D01*
X009792Y002999D01*
X009866Y002987D01*
X009904Y002987D01*
X009904Y003467D01*
X009904Y002987D01*
X009942Y002987D01*
X010016Y002999D01*
X010088Y003023D01*
X010123Y003040D01*
X010123Y002825D01*
X010123Y002851D02*
X010059Y002851D01*
X010050Y003010D02*
X010123Y003010D01*
X009904Y003010D02*
X009904Y003010D01*
X009758Y003010D02*
X008135Y003010D01*
X008023Y002851D02*
X009887Y002851D01*
X009684Y002693D02*
X008023Y002693D01*
X007981Y002534D02*
X009643Y002534D01*
X009200Y002030D02*
X009200Y001880D01*
X009200Y001679D01*
X009212Y001633D01*
X009236Y001592D01*
X009269Y001559D01*
X009310Y001535D01*
X009356Y001523D01*
X009517Y001523D01*
X009517Y001880D01*
X009200Y001880D01*
X009517Y001880D01*
X009517Y001880D01*
X009517Y001880D01*
X009517Y001523D01*
X009640Y001523D01*
X009640Y001406D01*
X009620Y001406D01*
X009503Y001288D01*
X009503Y000572D01*
X009620Y000454D01*
X010123Y000454D01*
X010123Y000430D01*
X007440Y000430D01*
X007453Y000443D01*
X007503Y000564D01*
X007503Y000606D01*
X007581Y000684D01*
X007619Y000776D01*
X007619Y001550D01*
X007689Y001550D01*
X007690Y001551D01*
X007694Y001543D01*
X007786Y001450D01*
X007908Y001400D01*
X007949Y001400D01*
X007968Y001355D01*
X007959Y001350D01*
X007925Y001316D01*
X007902Y001275D01*
X007889Y001229D01*
X007889Y000944D01*
X008243Y000944D01*
X008243Y000916D01*
X008270Y000916D01*
X008270Y000474D01*
X008467Y000474D01*
X008513Y000487D01*
X008554Y000510D01*
X008587Y000544D01*
X008611Y000585D01*
X008623Y000631D01*
X008623Y000916D01*
X008270Y000916D01*
X008270Y000944D01*
X008623Y000944D01*
X008623Y001229D01*
X008611Y001275D01*
X008587Y001316D01*
X008570Y001334D01*
X008603Y001414D01*
X008603Y001546D01*
X008553Y001667D01*
X008460Y001760D01*
X008339Y001810D01*
X008297Y001810D01*
X008253Y001917D01*
X008160Y002010D01*
X008111Y002030D01*
X009200Y002030D01*
X009200Y001900D02*
X008260Y001900D01*
X008478Y001742D02*
X009200Y001742D01*
X009244Y001583D02*
X008588Y001583D01*
X008603Y001425D02*
X009640Y001425D01*
X009517Y001583D02*
X009517Y001583D01*
X009517Y001742D02*
X009517Y001742D01*
X009503Y001266D02*
X008613Y001266D01*
X008623Y001108D02*
X009503Y001108D01*
X009503Y000949D02*
X008623Y000949D01*
X008623Y000791D02*
X009503Y000791D01*
X009503Y000632D02*
X008623Y000632D01*
X008270Y000632D02*
X008243Y000632D01*
X008243Y000474D02*
X008046Y000474D01*
X008000Y000487D01*
X007959Y000510D01*
X007925Y000544D01*
X007902Y000585D01*
X007889Y000631D01*
X007889Y000916D01*
X008243Y000916D01*
X008243Y000474D01*
X008243Y000791D02*
X008270Y000791D01*
X007889Y000791D02*
X007619Y000791D01*
X007619Y000949D02*
X007889Y000949D01*
X007889Y001108D02*
X007619Y001108D01*
X007619Y001266D02*
X007899Y001266D01*
X007847Y001425D02*
X007619Y001425D01*
X007119Y001300D02*
X007119Y000960D01*
X007108Y000960D01*
X006986Y000910D01*
X006894Y000817D01*
X006843Y000696D01*
X006843Y000564D01*
X006894Y000443D01*
X006907Y000430D01*
X003600Y000430D01*
X003600Y000466D01*
X003242Y000466D01*
X003242Y000503D01*
X003600Y000503D01*
X003600Y000646D01*
X003591Y000692D01*
X003573Y000736D01*
X003547Y000775D01*
X003513Y000808D01*
X003502Y000816D01*
X003508Y000818D01*
X003581Y000891D01*
X003620Y000986D01*
X003620Y001365D01*
X003581Y001460D01*
X003569Y001472D01*
X003600Y001503D01*
X003600Y001945D01*
X003565Y001980D01*
X003600Y002015D01*
X003600Y002040D01*
X003624Y002030D01*
X003958Y002030D01*
X003943Y001996D01*
X003943Y001864D01*
X003994Y001743D01*
X004086Y001650D01*
X004208Y001600D01*
X004339Y001600D01*
X004460Y001650D01*
X004490Y001680D01*
X005093Y001680D01*
X005093Y001564D01*
X005144Y001443D01*
X005236Y001350D01*
X005358Y001300D01*
X005489Y001300D01*
X005610Y001350D01*
X005673Y001413D01*
X005736Y001350D01*
X005858Y001300D01*
X005989Y001300D01*
X006110Y001350D01*
X006173Y001413D01*
X006236Y001350D01*
X006358Y001300D01*
X006489Y001300D01*
X006610Y001350D01*
X006703Y001443D01*
X006748Y001552D01*
X006794Y001443D01*
X006886Y001350D01*
X007008Y001300D01*
X007119Y001300D01*
X007119Y001266D02*
X003620Y001266D01*
X003620Y001108D02*
X003835Y001108D01*
X003836Y001110D02*
X003744Y001017D01*
X003693Y000896D01*
X003693Y000764D01*
X003744Y000643D01*
X003836Y000550D01*
X003958Y000500D01*
X004089Y000500D01*
X004210Y000550D01*
X004303Y000643D01*
X004353Y000764D01*
X004353Y000896D01*
X004303Y001017D01*
X004210Y001110D01*
X004089Y001160D01*
X003958Y001160D01*
X003836Y001110D01*
X003716Y000949D02*
X003605Y000949D01*
X003531Y000791D02*
X003693Y000791D01*
X003754Y000632D02*
X003600Y000632D01*
X003242Y000474D02*
X006881Y000474D01*
X006843Y000632D02*
X004292Y000632D01*
X004353Y000791D02*
X006883Y000791D01*
X007082Y000949D02*
X004331Y000949D01*
X004212Y001108D02*
X007119Y001108D01*
X006812Y001425D02*
X006685Y001425D01*
X007529Y000632D02*
X007889Y000632D01*
X007466Y000474D02*
X009601Y000474D01*
X009528Y003168D02*
X008878Y003168D01*
X008988Y003327D02*
X009445Y003327D01*
X009424Y003467D02*
X009904Y003467D01*
X009904Y003467D01*
X009904Y003467D01*
X009424Y003467D01*
X009424Y003485D02*
X009379Y003485D01*
X009454Y003637D02*
X009454Y003812D01*
X009076Y003812D01*
X009076Y003848D01*
X009454Y003848D01*
X009454Y004034D01*
X009480Y003972D01*
X009607Y003845D01*
X009591Y003834D01*
X009538Y003780D01*
X009493Y003719D01*
X009459Y003652D01*
X009454Y003637D01*
X009454Y003644D02*
X009457Y003644D01*
X009454Y003802D02*
X009560Y003802D01*
X009491Y003961D02*
X009454Y003961D01*
X009406Y004149D02*
X009385Y004171D01*
X009344Y004195D01*
X009298Y004207D01*
X009076Y004207D01*
X009076Y003848D01*
X009040Y003848D01*
X009040Y004207D01*
X008818Y004207D01*
X008772Y004195D01*
X008753Y004184D01*
X008753Y004296D01*
X008703Y004417D01*
X008610Y004510D01*
X008489Y004560D01*
X008358Y004560D01*
X008297Y004535D01*
X008297Y004750D01*
X008169Y004878D01*
X008021Y004878D01*
X008021Y004924D01*
X008065Y004968D01*
X008102Y005006D01*
X008210Y005050D01*
X008303Y005143D01*
X008353Y005264D01*
X008353Y005396D01*
X008303Y005517D01*
X008210Y005610D01*
X008089Y005660D01*
X007958Y005660D01*
X007942Y005653D01*
X007915Y005680D01*
X007950Y005715D01*
X007950Y006157D01*
X007833Y006274D01*
X007823Y006274D01*
X007823Y006440D01*
X007785Y006532D01*
X007549Y006769D01*
X007549Y006830D01*
X007524Y006855D01*
X007529Y006873D01*
X007529Y006950D01*
X007529Y007027D01*
X007524Y007045D01*
X007549Y007070D01*
X007549Y007342D01*
X007520Y007370D01*
X007520Y007553D01*
X007550Y007553D01*
X007667Y007670D01*
X007667Y007957D01*
X007694Y007893D01*
X007786Y007800D01*
X007908Y007750D01*
X008039Y007750D01*
X008160Y007800D01*
X008253Y007893D01*
X008303Y008014D01*
X008303Y008130D01*
X008570Y008130D01*
X008923Y007776D01*
X008923Y007298D01*
X008961Y007206D01*
X009418Y006750D01*
X009404Y006716D01*
X009404Y006518D01*
X009480Y006334D01*
X009591Y006223D01*
X009480Y006113D01*
X009404Y005929D01*
X009404Y005730D01*
X009480Y005546D01*
X009591Y005436D01*
X009480Y005325D01*
X009404Y005142D01*
X009404Y004943D01*
X009480Y004759D01*
X009591Y004649D01*
X009480Y004538D01*
X009404Y004354D01*
X009404Y004155D01*
X009406Y004149D01*
X009404Y004278D02*
X008753Y004278D01*
X008684Y004436D02*
X009438Y004436D01*
X009537Y004595D02*
X008297Y004595D01*
X008294Y004753D02*
X009486Y004753D01*
X009417Y004912D02*
X008021Y004912D01*
X008231Y005070D02*
X009404Y005070D01*
X009440Y005229D02*
X008339Y005229D01*
X008353Y005387D02*
X009542Y005387D01*
X009481Y005546D02*
X008274Y005546D01*
X007940Y005704D02*
X009415Y005704D01*
X009404Y005863D02*
X007950Y005863D01*
X007950Y006021D02*
X009442Y006021D01*
X009547Y006180D02*
X007927Y006180D01*
X007823Y006339D02*
X009478Y006339D01*
X009413Y006497D02*
X007800Y006497D01*
X007662Y006656D02*
X009404Y006656D01*
X009353Y006814D02*
X007549Y006814D01*
X007529Y006950D02*
X007270Y006950D01*
X007270Y006950D01*
X007135Y006950D01*
X006876Y006950D01*
X006876Y006950D01*
X006618Y006950D01*
X006618Y007027D01*
X006623Y007045D01*
X006598Y007070D01*
X006598Y007342D01*
X006715Y007459D01*
X007020Y007459D01*
X007020Y007584D01*
X006979Y007573D01*
X006817Y007573D01*
X006817Y007930D01*
X006500Y007930D01*
X006500Y007729D01*
X006512Y007683D01*
X006536Y007642D01*
X006569Y007609D01*
X006610Y007585D01*
X006656Y007573D01*
X006817Y007573D01*
X006817Y007930D01*
X006817Y007930D01*
X006500Y007930D01*
X006500Y008131D01*
X006512Y008177D01*
X006536Y008218D01*
X006569Y008251D01*
X006610Y008275D01*
X006656Y008287D01*
X006817Y008287D01*
X006817Y007930D01*
X006817Y007930D01*
X006817Y007930D01*
X006817Y008287D01*
X006979Y008287D01*
X007025Y008275D01*
X007057Y008256D01*
X007079Y008278D01*
X007079Y008336D01*
X007063Y008336D01*
X006946Y008453D01*
X006946Y008895D01*
X006981Y008930D01*
X006946Y008965D01*
X006946Y009407D01*
X007063Y009524D01*
X007073Y009524D01*
X007073Y009588D01*
X007057Y009604D01*
X007025Y009585D01*
X006979Y009573D01*
X006817Y009573D01*
X006817Y009930D01*
X006500Y009930D01*
X006500Y010131D01*
X006512Y010177D01*
X006536Y010218D01*
X006569Y010251D01*
X006610Y010275D01*
X006656Y010287D01*
X006817Y010287D01*
X006817Y009930D01*
X006817Y009930D01*
X006500Y009930D01*
X006500Y009729D01*
X006512Y009683D01*
X006536Y009642D01*
X006569Y009609D01*
X006610Y009585D01*
X006656Y009573D01*
X006817Y009573D01*
X006817Y009930D01*
X006817Y009930D01*
X006817Y009930D01*
X006817Y010287D01*
X006979Y010287D01*
X007025Y010275D01*
X007057Y010256D01*
X007079Y010278D01*
X007079Y010336D01*
X007063Y010336D01*
X006946Y010453D01*
X006946Y010895D01*
X006981Y010930D01*
X006946Y010965D01*
X006946Y011062D01*
X001394Y011033D01*
X001526Y010978D01*
X001666Y010837D01*
X001743Y010653D01*
X001743Y010455D01*
X001666Y010271D01*
X001556Y010160D01*
X001666Y010050D01*
X001743Y009866D01*
X001743Y009667D01*
X001666Y009483D01*
X001556Y009373D01*
X001666Y009262D01*
X001743Y009079D01*
X001743Y008880D01*
X001666Y008696D01*
X001556Y008586D01*
X001666Y008475D01*
X001743Y008291D01*
X001743Y008158D01*
X001860Y008110D01*
X001953Y008017D01*
X001956Y008010D01*
X002023Y008010D01*
X002023Y010480D01*
X002061Y010572D01*
X002132Y010642D01*
X002432Y010942D01*
X002524Y010980D01*
X004823Y010980D01*
X004915Y010942D01*
X004985Y010872D01*
X005685Y010172D01*
X005723Y010080D01*
X005723Y009575D01*
X005808Y009610D01*
X005939Y009610D01*
X006060Y009560D01*
X006153Y009467D01*
X006203Y009346D01*
X006203Y009214D01*
X006153Y009093D01*
X006060Y009000D01*
X005939Y008950D01*
X005808Y008950D01*
X005723Y008985D01*
X005723Y008984D01*
X005847Y008860D01*
X005889Y008860D01*
X006010Y008810D01*
X006103Y008717D01*
X006153Y008596D01*
X006153Y008464D01*
X006103Y008343D01*
X006010Y008250D01*
X005889Y008200D01*
X005758Y008200D01*
X005636Y008250D01*
X005544Y008343D01*
X005503Y008440D01*
X005503Y008314D01*
X005453Y008193D01*
X005360Y008100D01*
X005239Y008050D01*
X005108Y008050D01*
X004986Y008100D01*
X004957Y008130D01*
X004890Y008130D01*
X004953Y008067D01*
X005003Y007946D01*
X005003Y007833D01*
X005060Y007810D01*
X005153Y007717D01*
X005203Y007596D01*
X005203Y007464D01*
X005153Y007343D01*
X005060Y007250D01*
X004951Y007205D01*
X005060Y007160D01*
X005153Y007067D01*
X005156Y007060D01*
X005239Y007060D01*
X005360Y007010D01*
X005453Y006917D01*
X005503Y006796D01*
X005503Y006664D01*
X005481Y006610D01*
X005489Y006610D01*
X005536Y006590D01*
X005582Y006636D01*
X005674Y006674D01*
X005773Y006674D01*
X005865Y006636D01*
X005935Y006566D01*
X005973Y006474D01*
X005973Y006447D01*
X005986Y006460D01*
X006108Y006510D01*
X006239Y006510D01*
X006336Y006470D01*
X006361Y006532D01*
X006598Y006769D01*
X006598Y006830D01*
X006623Y006855D01*
X006618Y006873D01*
X006618Y006950D01*
X006876Y006950D01*
X006876Y006950D01*
X007270Y006950D01*
X007529Y006950D01*
X007529Y006973D02*
X009195Y006973D01*
X009036Y007131D02*
X007549Y007131D01*
X007549Y007290D02*
X008927Y007290D01*
X008923Y007448D02*
X007520Y007448D01*
X007604Y007607D02*
X008923Y007607D01*
X008923Y007765D02*
X008075Y007765D01*
X008266Y007924D02*
X008776Y007924D01*
X008618Y008082D02*
X008303Y008082D01*
X007871Y007765D02*
X007667Y007765D01*
X007667Y007924D02*
X007681Y007924D01*
X007329Y007930D02*
X007270Y007871D01*
X006817Y007924D02*
X006817Y007924D01*
X006817Y008082D02*
X006817Y008082D01*
X006817Y008241D02*
X006817Y008241D01*
X007001Y008399D02*
X006126Y008399D01*
X006153Y008558D02*
X006946Y008558D01*
X006946Y008716D02*
X006103Y008716D01*
X005832Y008875D02*
X006946Y008875D01*
X006946Y009033D02*
X006093Y009033D01*
X006194Y009192D02*
X006946Y009192D01*
X006946Y009350D02*
X006202Y009350D01*
X006111Y009509D02*
X007048Y009509D01*
X006817Y009667D02*
X006817Y009667D01*
X006817Y009826D02*
X006817Y009826D01*
X006817Y009984D02*
X006817Y009984D01*
X006817Y010143D02*
X006817Y010143D01*
X007079Y010301D02*
X005556Y010301D01*
X005697Y010143D02*
X006503Y010143D01*
X006500Y009984D02*
X005723Y009984D01*
X005723Y009826D02*
X006500Y009826D01*
X006521Y009667D02*
X005723Y009667D01*
X005223Y009667D02*
X004039Y009667D01*
X004031Y009675D02*
X003917Y009675D01*
X003917Y009714D01*
X004185Y009982D01*
X004223Y010074D01*
X004223Y010163D01*
X004253Y010193D01*
X004303Y010314D01*
X004303Y010446D01*
X004289Y010480D01*
X004670Y010480D01*
X005223Y009926D01*
X005223Y009225D01*
X005139Y009260D01*
X005008Y009260D01*
X004886Y009210D01*
X004794Y009117D01*
X004743Y008996D01*
X004743Y008864D01*
X004794Y008743D01*
X004886Y008650D01*
X004935Y008630D01*
X004518Y008630D01*
X004553Y008714D01*
X004553Y008846D01*
X004503Y008967D01*
X004410Y009060D01*
X004289Y009110D01*
X004158Y009110D01*
X004148Y009106D01*
X004148Y009558D01*
X004031Y009675D01*
X004028Y009826D02*
X005223Y009826D01*
X005166Y009984D02*
X004186Y009984D01*
X004223Y010143D02*
X005007Y010143D01*
X004849Y010301D02*
X004298Y010301D01*
X004298Y010460D02*
X004690Y010460D01*
X005080Y010777D02*
X006946Y010777D01*
X006946Y010618D02*
X005239Y010618D01*
X005397Y010460D02*
X006946Y010460D01*
X007323Y010674D02*
X007329Y010668D01*
X006976Y010935D02*
X004922Y010935D01*
X003643Y010314D02*
X003692Y010196D01*
X003603Y010107D01*
X003359Y010107D01*
X003307Y010056D01*
X003275Y010075D01*
X003229Y010087D01*
X003067Y010087D01*
X002906Y010087D01*
X002860Y010075D01*
X002819Y010051D01*
X002786Y010018D01*
X002762Y009977D01*
X002750Y009931D01*
X002750Y009730D01*
X002750Y009529D01*
X002762Y009483D01*
X002786Y009442D01*
X002819Y009409D01*
X002860Y009385D01*
X002906Y009373D01*
X002998Y009373D01*
X002998Y008962D01*
X003115Y008845D01*
X003893Y008845D01*
X003893Y008715D01*
X003115Y008715D01*
X002998Y008598D01*
X002998Y008187D01*
X002856Y008187D01*
X002810Y008175D01*
X002769Y008151D01*
X002736Y008118D01*
X002712Y008077D01*
X002700Y008031D01*
X002700Y007830D01*
X002700Y007629D01*
X002712Y007583D01*
X002736Y007542D01*
X002769Y007509D01*
X002810Y007485D01*
X002856Y007473D01*
X003017Y007473D01*
X003017Y007830D01*
X002700Y007830D01*
X003017Y007830D01*
X003017Y007830D01*
X003017Y007830D01*
X003017Y007473D01*
X003179Y007473D01*
X003225Y007485D01*
X003257Y007504D01*
X003309Y007453D01*
X003750Y007453D01*
X003867Y007570D01*
X003867Y007885D01*
X004031Y007885D01*
X004148Y008002D01*
X004148Y008130D01*
X004457Y008130D01*
X004394Y008067D01*
X004343Y007946D01*
X004343Y007814D01*
X004394Y007693D01*
X004486Y007600D01*
X004543Y007577D01*
X004543Y007464D01*
X004594Y007343D01*
X004686Y007250D01*
X004796Y007205D01*
X004686Y007160D01*
X004594Y007067D01*
X004543Y006946D01*
X004543Y006814D01*
X004397Y006814D01*
X004397Y006729D02*
X004397Y006930D01*
X004397Y007131D01*
X004658Y007131D01*
X004647Y007290D02*
X003806Y007290D01*
X003788Y007307D02*
X003839Y007256D01*
X003872Y007275D01*
X003918Y007287D01*
X004079Y007287D01*
X004079Y006930D01*
X004079Y006930D01*
X004079Y006573D01*
X003918Y006573D01*
X003872Y006585D01*
X003839Y006604D01*
X003788Y006553D01*
X003403Y006553D01*
X003403Y006514D01*
X003353Y006393D01*
X003343Y006383D01*
X003408Y006410D01*
X003539Y006410D01*
X003660Y006360D01*
X003753Y006267D01*
X003765Y006238D01*
X003786Y006260D01*
X003908Y006310D01*
X003943Y006310D01*
X003943Y006346D01*
X003994Y006467D01*
X004086Y006560D01*
X004118Y006573D01*
X004079Y006573D01*
X004079Y006930D01*
X004079Y006930D01*
X004079Y007287D01*
X004241Y007287D01*
X004286Y007275D01*
X004328Y007251D01*
X004361Y007218D01*
X004385Y007177D01*
X004397Y007131D01*
X004397Y006973D02*
X004554Y006973D01*
X004543Y006814D02*
X004594Y006693D01*
X004686Y006600D01*
X004808Y006550D01*
X004891Y006550D01*
X004894Y006543D01*
X004986Y006450D01*
X005108Y006400D01*
X005116Y006400D01*
X005093Y006346D01*
X005093Y006214D01*
X005144Y006093D01*
X005236Y006000D01*
X005358Y005950D01*
X005399Y005950D01*
X005444Y005843D01*
X005536Y005750D01*
X005658Y005700D01*
X005789Y005700D01*
X005910Y005750D01*
X006003Y005843D01*
X006021Y005886D01*
X006108Y005850D01*
X006196Y005850D01*
X006196Y005715D01*
X006231Y005680D01*
X006196Y005645D01*
X006196Y005203D01*
X006249Y005150D01*
X006125Y005026D01*
X006125Y004858D01*
X006101Y004858D01*
X006103Y004864D01*
X006103Y004996D01*
X006053Y005117D01*
X005960Y005210D01*
X005839Y005260D01*
X005708Y005260D01*
X005586Y005210D01*
X005503Y005127D01*
X005503Y005146D01*
X005453Y005267D01*
X005360Y005360D01*
X005239Y005410D01*
X005108Y005410D01*
X004986Y005360D01*
X004957Y005330D01*
X004915Y005330D01*
X004847Y005443D01*
X004835Y005472D01*
X004822Y005485D01*
X004812Y005501D01*
X004787Y005520D01*
X004765Y005542D01*
X004747Y005549D01*
X004732Y005560D01*
X004702Y005568D01*
X004673Y005580D01*
X004654Y005580D01*
X004636Y005585D01*
X004605Y005580D01*
X003727Y005580D01*
X003785Y005638D01*
X003829Y005682D01*
X003908Y005650D01*
X004039Y005650D01*
X004160Y005700D01*
X004253Y005793D01*
X004294Y005892D01*
X004386Y005800D01*
X004508Y005750D01*
X004639Y005750D01*
X004760Y005800D01*
X004853Y005893D01*
X004903Y006014D01*
X004903Y006146D01*
X004853Y006267D01*
X004760Y006360D01*
X004639Y006410D01*
X004577Y006410D01*
X004553Y006467D01*
X004460Y006560D01*
X004339Y006610D01*
X004329Y006610D01*
X004361Y006642D01*
X004385Y006683D01*
X004397Y006729D01*
X004369Y006656D02*
X004631Y006656D01*
X004523Y006497D02*
X004940Y006497D01*
X005093Y006339D02*
X004782Y006339D01*
X004889Y006180D02*
X005108Y006180D01*
X005215Y006021D02*
X004903Y006021D01*
X004823Y005863D02*
X005435Y005863D01*
X005647Y005704D02*
X004165Y005704D01*
X004282Y005863D02*
X004324Y005863D01*
X004755Y005546D02*
X006196Y005546D01*
X006196Y005387D02*
X005293Y005387D01*
X005469Y005229D02*
X005633Y005229D01*
X005914Y005229D02*
X006196Y005229D01*
X006170Y005070D02*
X006072Y005070D01*
X006103Y004912D02*
X006125Y004912D01*
X006168Y004602D02*
X006168Y004602D01*
X006168Y004422D01*
X006168Y004422D01*
X006168Y004602D01*
X006168Y004595D02*
X006168Y004595D01*
X006168Y004436D02*
X006168Y004436D01*
X006486Y004010D02*
X006993Y004010D01*
X006993Y003850D01*
X006486Y003850D01*
X006486Y004010D01*
X006486Y003961D02*
X006993Y003961D01*
X006993Y004010D02*
X006993Y004517D01*
X007153Y004517D01*
X007153Y004010D01*
X006993Y004010D01*
X006993Y004119D02*
X007153Y004119D01*
X007153Y004010D02*
X007681Y004010D01*
X007681Y003983D01*
X007661Y003963D01*
X007661Y003850D01*
X007153Y003850D01*
X007153Y003343D01*
X007040Y003343D01*
X007020Y003323D01*
X006993Y003323D01*
X006993Y003850D01*
X007153Y003850D01*
X007153Y004010D01*
X007153Y003961D02*
X007661Y003961D01*
X007153Y003802D02*
X006993Y003802D01*
X006993Y003644D02*
X007153Y003644D01*
X007153Y003485D02*
X006993Y003485D01*
X006993Y003327D02*
X007025Y003327D01*
X006993Y004278D02*
X007153Y004278D01*
X007153Y004436D02*
X006993Y004436D01*
X006207Y005704D02*
X005800Y005704D01*
X006011Y005863D02*
X006076Y005863D01*
X006076Y006497D02*
X005964Y006497D01*
X005818Y006656D02*
X006485Y006656D01*
X006598Y006814D02*
X005496Y006814D01*
X005500Y006656D02*
X005629Y006656D01*
X005398Y006973D02*
X006618Y006973D01*
X006598Y007131D02*
X005089Y007131D01*
X005100Y007290D02*
X006598Y007290D01*
X006704Y007448D02*
X005197Y007448D01*
X005199Y007607D02*
X006573Y007607D01*
X006500Y007765D02*
X005105Y007765D01*
X005003Y007924D02*
X006500Y007924D01*
X006500Y008082D02*
X005316Y008082D01*
X005473Y008241D02*
X005660Y008241D01*
X005520Y008399D02*
X005503Y008399D01*
X005987Y008241D02*
X006558Y008241D01*
X006817Y007765D02*
X006817Y007765D01*
X006817Y007607D02*
X006817Y007607D01*
X007270Y006950D02*
X007270Y006950D01*
X006347Y006497D02*
X006270Y006497D01*
X005053Y005387D02*
X004880Y005387D01*
X004623Y004413D02*
X004636Y004392D01*
X004669Y004359D01*
X004710Y004335D01*
X004756Y004323D01*
X004788Y004323D01*
X004788Y003836D01*
X004819Y003805D01*
X004818Y003802D01*
X004760Y003860D01*
X004639Y003910D01*
X004538Y003910D01*
X004538Y004112D01*
X004116Y004112D01*
X004116Y004178D01*
X004538Y004178D01*
X004538Y004341D01*
X004560Y004350D01*
X004623Y004413D01*
X004538Y004278D02*
X004788Y004278D01*
X004788Y004119D02*
X004116Y004119D01*
X004538Y003961D02*
X004788Y003961D01*
X004818Y003802D02*
X004818Y003802D01*
X003273Y004036D02*
X002916Y004036D01*
X002916Y004056D01*
X002860Y004000D01*
X002739Y003950D01*
X002608Y003950D01*
X002523Y003985D01*
X002523Y003747D01*
X002586Y003810D01*
X002708Y003860D01*
X002839Y003860D01*
X002933Y003821D01*
X002928Y003829D01*
X002916Y003874D01*
X002916Y004036D01*
X003273Y004036D01*
X003273Y004036D01*
X002916Y003961D02*
X002766Y003961D01*
X002581Y003961D02*
X002523Y003961D01*
X002523Y003802D02*
X002579Y003802D01*
X002449Y003102D02*
X002494Y002993D01*
X002523Y002963D01*
X002523Y002910D01*
X002508Y002910D01*
X002386Y002860D01*
X002294Y002767D01*
X002243Y002646D01*
X002243Y002554D01*
X002173Y002484D01*
X002083Y002574D01*
X002023Y002574D01*
X002023Y002676D01*
X002449Y003102D01*
X002487Y003010D02*
X002357Y003010D01*
X002378Y002851D02*
X002198Y002851D01*
X002263Y002693D02*
X002040Y002693D01*
X002123Y002534D02*
X002224Y002534D01*
X003600Y001900D02*
X003943Y001900D01*
X003995Y001742D02*
X003600Y001742D01*
X003600Y001583D02*
X005093Y001583D01*
X005162Y001425D02*
X003595Y001425D01*
X003205Y000503D02*
X002900Y000503D01*
X002542Y000503D01*
X002542Y000466D01*
X003205Y000466D01*
X003205Y000503D01*
X003205Y000474D02*
X002542Y000474D01*
X002505Y000474D02*
X001842Y000474D01*
X001842Y000466D02*
X001842Y000503D01*
X002200Y000503D01*
X002505Y000503D01*
X002505Y000466D01*
X001842Y000466D01*
X001805Y000466D02*
X001142Y000466D01*
X001142Y000503D01*
X001446Y000503D01*
X001805Y000503D01*
X001805Y000466D01*
X001805Y000474D02*
X001142Y000474D01*
X002023Y005384D02*
X002023Y006080D01*
X002011Y006109D01*
X002110Y006150D01*
X002203Y006243D01*
X002253Y006364D01*
X002253Y006496D01*
X002203Y006617D01*
X002110Y006710D01*
X002011Y006751D01*
X002053Y006793D01*
X002103Y006914D01*
X002103Y007046D01*
X002089Y007080D01*
X002123Y007080D01*
X002215Y007118D01*
X002285Y007188D01*
X002485Y007388D01*
X002523Y007480D01*
X002523Y010326D01*
X002677Y010480D01*
X003658Y010480D01*
X003643Y010446D01*
X003643Y010314D01*
X003649Y010301D02*
X002523Y010301D01*
X002523Y010143D02*
X003638Y010143D01*
X003649Y010460D02*
X002656Y010460D01*
X002266Y010777D02*
X001692Y010777D01*
X001743Y010618D02*
X002108Y010618D01*
X002023Y010460D02*
X001743Y010460D01*
X001679Y010301D02*
X002023Y010301D01*
X002023Y010143D02*
X001574Y010143D01*
X001694Y009984D02*
X002023Y009984D01*
X002023Y009826D02*
X001743Y009826D01*
X001743Y009667D02*
X002023Y009667D01*
X002023Y009509D02*
X001677Y009509D01*
X001579Y009350D02*
X002023Y009350D01*
X002023Y009192D02*
X001696Y009192D01*
X001743Y009033D02*
X002023Y009033D01*
X002023Y008875D02*
X001740Y008875D01*
X001675Y008716D02*
X002023Y008716D01*
X002023Y008558D02*
X001584Y008558D01*
X001698Y008399D02*
X002023Y008399D01*
X002023Y008241D02*
X001743Y008241D01*
X001888Y008082D02*
X002023Y008082D01*
X002523Y008082D02*
X002715Y008082D01*
X002700Y007924D02*
X002523Y007924D01*
X002523Y007765D02*
X002700Y007765D01*
X002706Y007607D02*
X002523Y007607D01*
X002510Y007448D02*
X003029Y007448D01*
X003058Y007460D02*
X002936Y007410D01*
X002844Y007317D01*
X002798Y007206D01*
X002686Y007160D01*
X002594Y007067D01*
X002543Y006946D01*
X002543Y006814D01*
X002062Y006814D01*
X002103Y006973D02*
X002554Y006973D01*
X002543Y006814D02*
X002594Y006693D01*
X002686Y006600D01*
X002743Y006577D01*
X002743Y006514D01*
X002794Y006393D01*
X002886Y006300D01*
X002924Y006285D01*
X002754Y006114D01*
X002753Y006117D01*
X002660Y006210D01*
X002539Y006260D01*
X002408Y006260D01*
X002286Y006210D01*
X002194Y006117D01*
X002143Y005996D01*
X002143Y005864D01*
X002194Y005743D01*
X002286Y005650D01*
X002289Y005649D01*
X002023Y005384D01*
X002023Y005387D02*
X002027Y005387D01*
X002023Y005546D02*
X002186Y005546D01*
X002232Y005704D02*
X002023Y005704D01*
X002023Y005863D02*
X002144Y005863D01*
X002154Y006021D02*
X002023Y006021D01*
X002140Y006180D02*
X002257Y006180D01*
X002243Y006339D02*
X002848Y006339D01*
X002751Y006497D02*
X002253Y006497D01*
X002165Y006656D02*
X002631Y006656D01*
X002658Y007131D02*
X002228Y007131D01*
X002386Y007290D02*
X002832Y007290D01*
X003058Y007460D02*
X003189Y007460D01*
X003310Y007410D01*
X003403Y007317D01*
X003407Y007307D01*
X003788Y007307D01*
X003867Y007607D02*
X004480Y007607D01*
X004550Y007448D02*
X003218Y007448D01*
X003017Y007607D02*
X003017Y007607D01*
X003017Y007765D02*
X003017Y007765D01*
X002998Y008241D02*
X002523Y008241D01*
X002523Y008399D02*
X002998Y008399D01*
X002998Y008558D02*
X002523Y008558D01*
X002523Y008716D02*
X003893Y008716D01*
X004148Y009192D02*
X004868Y009192D01*
X004759Y009033D02*
X004437Y009033D01*
X004541Y008875D02*
X004743Y008875D01*
X004821Y008716D02*
X004553Y008716D01*
X004148Y009350D02*
X005223Y009350D01*
X005223Y009509D02*
X004148Y009509D01*
X003086Y008875D02*
X002523Y008875D01*
X002523Y009033D02*
X002998Y009033D01*
X002998Y009192D02*
X002523Y009192D01*
X002523Y009350D02*
X002998Y009350D01*
X002755Y009509D02*
X002523Y009509D01*
X002523Y009667D02*
X002750Y009667D01*
X002750Y009730D02*
X003067Y009730D01*
X003067Y009730D01*
X002750Y009730D01*
X002750Y009826D02*
X002523Y009826D01*
X002523Y009984D02*
X002766Y009984D01*
X003067Y009984D02*
X003067Y009984D01*
X003067Y010087D02*
X003067Y009730D01*
X003067Y009730D01*
X003067Y010087D01*
X003067Y009826D02*
X003067Y009826D01*
X002425Y010935D02*
X001569Y010935D01*
X004148Y008082D02*
X004409Y008082D01*
X004343Y007924D02*
X004070Y007924D01*
X003867Y007765D02*
X004364Y007765D01*
X004938Y008082D02*
X005030Y008082D01*
X004397Y006930D02*
X004079Y006930D01*
X004079Y006930D01*
X004397Y006930D01*
X004079Y006973D02*
X004079Y006973D01*
X004079Y007131D02*
X004079Y007131D01*
X004079Y006814D02*
X004079Y006814D01*
X004079Y006656D02*
X004079Y006656D01*
X004024Y006497D02*
X003396Y006497D01*
X003682Y006339D02*
X003943Y006339D01*
X002820Y006180D02*
X002690Y006180D01*
X007323Y008674D02*
X007329Y008668D01*
X007323Y009924D02*
X007329Y009930D01*
X007327Y012980D02*
X007323Y013176D01*
X009040Y004119D02*
X009076Y004119D01*
X009076Y003961D02*
X009040Y003961D01*
X009040Y003802D02*
X009076Y003802D01*
X009076Y003644D02*
X009040Y003644D01*
X009040Y003485D02*
X009076Y003485D01*
X008468Y003168D02*
X008276Y003168D01*
X009904Y003168D02*
X009904Y003168D01*
X009904Y003327D02*
X009904Y003327D01*
M02*
