G75*
%MOIN*%
%OFA0B0*%
%FSLAX24Y24*%
%IPPOS*%
%LPD*%
%AMOC8*
5,1,8,0,0,1.08239X$1,22.5*
%
%ADD10C,0.0030*%
%ADD11C,0.0080*%
%ADD12C,0.0040*%
D10*
X002159Y001211D02*
X002159Y001307D01*
X002208Y001356D01*
X002208Y001457D02*
X002159Y001505D01*
X002159Y001602D01*
X002208Y001650D01*
X002401Y001650D01*
X002450Y001602D01*
X002450Y001505D01*
X002401Y001457D01*
X002353Y001457D01*
X002304Y001505D01*
X002304Y001650D01*
X002401Y001356D02*
X002450Y001307D01*
X002450Y001211D01*
X002401Y001162D01*
X002208Y001162D01*
X002159Y001211D01*
X003059Y001211D02*
X003059Y001307D01*
X003108Y001356D01*
X003059Y001457D02*
X003059Y001650D01*
X003059Y001554D02*
X003350Y001554D01*
X003253Y001457D01*
X003301Y001356D02*
X003350Y001307D01*
X003350Y001211D01*
X003301Y001162D01*
X003108Y001162D01*
X003059Y001211D01*
X003108Y001752D02*
X003059Y001800D01*
X003059Y001897D01*
X003108Y001945D01*
X003301Y001945D01*
X003108Y001752D01*
X003301Y001752D01*
X003350Y001800D01*
X003350Y001897D01*
X003301Y001945D01*
X003640Y004562D02*
X003736Y004562D01*
X003785Y004611D01*
X003785Y004659D01*
X003736Y004707D01*
X003640Y004707D01*
X003591Y004659D01*
X003591Y004611D01*
X003640Y004562D01*
X003640Y004707D02*
X003591Y004756D01*
X003591Y004804D01*
X003640Y004852D01*
X003736Y004852D01*
X003785Y004804D01*
X003785Y004756D01*
X003736Y004707D01*
X003886Y004611D02*
X003934Y004562D01*
X004031Y004562D01*
X004079Y004611D01*
X004079Y004804D01*
X004031Y004852D01*
X003934Y004852D01*
X003886Y004804D01*
X003934Y005012D02*
X003886Y005061D01*
X003934Y005012D02*
X004031Y005012D01*
X004079Y005061D01*
X004079Y005254D01*
X004031Y005302D01*
X003934Y005302D01*
X003886Y005254D01*
X003785Y005302D02*
X003591Y005302D01*
X003591Y005254D01*
X003785Y005061D01*
X003785Y005012D01*
X003786Y005512D02*
X003690Y005512D01*
X003641Y005561D01*
X003641Y005609D01*
X003690Y005657D01*
X003835Y005657D01*
X003835Y005561D01*
X003786Y005512D01*
X003835Y005657D02*
X003738Y005754D01*
X003641Y005802D01*
X003936Y005754D02*
X003984Y005802D01*
X004081Y005802D01*
X004129Y005754D01*
X004129Y005561D01*
X004081Y005512D01*
X003984Y005512D01*
X003936Y005561D01*
X006840Y008411D02*
X006647Y008604D01*
X006647Y008652D01*
X006840Y008652D01*
X006941Y008604D02*
X006990Y008652D01*
X007086Y008652D01*
X007135Y008604D01*
X007135Y008556D01*
X007086Y008507D01*
X006990Y008507D01*
X006941Y008459D01*
X006941Y008411D01*
X006990Y008362D01*
X007086Y008362D01*
X007135Y008411D01*
X007236Y008411D02*
X007284Y008362D01*
X007381Y008362D01*
X007429Y008411D01*
X007429Y008652D01*
X007236Y008652D02*
X007236Y008411D01*
X007038Y008314D02*
X007038Y008701D01*
X006840Y008411D02*
X006840Y008362D01*
X003130Y009971D02*
X003081Y009923D01*
X002888Y009923D01*
X002839Y009971D01*
X002839Y010068D01*
X002888Y010116D01*
X002888Y010218D02*
X002839Y010266D01*
X002839Y010363D01*
X002888Y010411D01*
X002984Y010411D01*
X003033Y010363D01*
X003033Y010314D01*
X002984Y010218D01*
X003130Y010218D01*
X003130Y010411D01*
X003081Y010116D02*
X003130Y010068D01*
X003130Y009971D01*
X002630Y009971D02*
X002581Y009923D01*
X002388Y009923D01*
X002339Y009971D01*
X002339Y010068D01*
X002388Y010116D01*
X002484Y010218D02*
X002484Y010411D01*
X002339Y010363D02*
X002630Y010363D01*
X002484Y010218D01*
X002581Y010116D02*
X002630Y010068D01*
X002630Y009971D01*
X004730Y013742D02*
X004730Y014032D01*
X004827Y013936D01*
X004924Y014032D01*
X004924Y013742D01*
X005122Y013742D02*
X005122Y014032D01*
X005219Y014032D02*
X005025Y014032D01*
X005320Y013984D02*
X005368Y014032D01*
X005465Y014032D01*
X005513Y013984D01*
X005513Y013936D01*
X005465Y013887D01*
X005368Y013887D01*
X005320Y013839D01*
X005320Y013791D01*
X005368Y013742D01*
X005465Y013742D01*
X005513Y013791D01*
X005614Y013839D02*
X005808Y013839D01*
X005808Y013887D02*
X005760Y013936D01*
X005663Y013936D01*
X005614Y013887D01*
X005614Y013839D01*
X005663Y013742D02*
X005760Y013742D01*
X005808Y013791D01*
X005808Y013887D01*
X005908Y013936D02*
X006004Y013936D01*
X005956Y013984D02*
X005956Y013791D01*
X005908Y013742D01*
X006106Y013791D02*
X006106Y013887D01*
X006154Y013936D01*
X006251Y013936D01*
X006299Y013887D01*
X006299Y013791D01*
X006251Y013742D01*
X006154Y013742D01*
X006106Y013791D01*
X006400Y013742D02*
X006400Y014032D01*
X006497Y013936D01*
X006594Y014032D01*
X006594Y013742D01*
X006695Y013742D02*
X006695Y013887D01*
X006743Y013936D01*
X006888Y013936D01*
X006888Y013742D01*
X006989Y013839D02*
X007183Y013839D01*
X007183Y013887D02*
X007135Y013936D01*
X007038Y013936D01*
X006989Y013887D01*
X006989Y013839D01*
X007038Y013742D02*
X007135Y013742D01*
X007183Y013791D01*
X007183Y013887D01*
X007284Y013887D02*
X007284Y013791D01*
X007332Y013742D01*
X007478Y013742D01*
X007478Y013645D02*
X007478Y013936D01*
X007332Y013936D01*
X007284Y013887D01*
X007579Y013791D02*
X007627Y013742D01*
X007724Y013742D01*
X007772Y013791D01*
X007772Y013984D01*
X007724Y014032D01*
X007627Y014032D01*
X007579Y013984D01*
X007579Y013791D01*
X007609Y003046D02*
X007706Y003046D01*
X007754Y002998D01*
X007609Y003046D02*
X007561Y002998D01*
X007561Y002949D01*
X007754Y002756D01*
X007561Y002756D01*
X007626Y002546D02*
X007626Y002256D01*
X007530Y002256D02*
X007723Y002256D01*
X007723Y002449D02*
X007626Y002546D01*
X008839Y001963D02*
X008839Y001866D01*
X008888Y001818D01*
X008839Y001716D02*
X008839Y001523D01*
X008839Y001620D02*
X009130Y001620D01*
X009033Y001523D01*
X009081Y001422D02*
X009130Y001373D01*
X009130Y001277D01*
X009081Y001228D01*
X008888Y001228D01*
X008839Y001277D01*
X008839Y001373D01*
X008888Y001422D01*
X009081Y001818D02*
X009130Y001866D01*
X009130Y001963D01*
X009081Y002011D01*
X009033Y002011D01*
X008984Y001963D01*
X008936Y002011D01*
X008888Y002011D01*
X008839Y001963D01*
X008984Y001963D02*
X008984Y001914D01*
X009689Y001916D02*
X009689Y002013D01*
X009738Y002061D01*
X009786Y002061D01*
X009834Y002013D01*
X009834Y001868D01*
X009738Y001868D01*
X009689Y001916D01*
X009689Y001766D02*
X009689Y001573D01*
X009689Y001670D02*
X009980Y001670D01*
X009883Y001573D01*
X009931Y001472D02*
X009980Y001423D01*
X009980Y001327D01*
X009931Y001278D01*
X009738Y001278D01*
X009689Y001327D01*
X009689Y001423D01*
X009738Y001472D01*
X009834Y001868D02*
X009931Y001964D01*
X009980Y002061D01*
D11*
X007866Y006868D02*
X008023Y007026D01*
X008023Y010569D01*
X007866Y010726D01*
X004323Y010726D01*
X004165Y010569D01*
X004165Y007026D01*
X004323Y006868D01*
X007866Y006868D01*
X004372Y010297D02*
X004374Y010327D01*
X004380Y010356D01*
X004390Y010384D01*
X004403Y010410D01*
X004420Y010435D01*
X004440Y010457D01*
X004462Y010476D01*
X004487Y010492D01*
X004514Y010504D01*
X004543Y010513D01*
X004572Y010518D01*
X004601Y010519D01*
X004631Y010516D01*
X004660Y010509D01*
X004687Y010498D01*
X004713Y010484D01*
X004737Y010467D01*
X004759Y010446D01*
X004777Y010423D01*
X004792Y010397D01*
X004804Y010370D01*
X004812Y010341D01*
X004816Y010312D01*
X004816Y010282D01*
X004812Y010253D01*
X004804Y010224D01*
X004792Y010197D01*
X004777Y010171D01*
X004759Y010148D01*
X004737Y010127D01*
X004713Y010110D01*
X004687Y010096D01*
X004660Y010085D01*
X004631Y010078D01*
X004601Y010075D01*
X004572Y010076D01*
X004543Y010081D01*
X004514Y010090D01*
X004487Y010102D01*
X004462Y010118D01*
X004440Y010137D01*
X004420Y010159D01*
X004403Y010184D01*
X004390Y010210D01*
X004380Y010238D01*
X004374Y010267D01*
X004372Y010297D01*
D12*
X004812Y003681D02*
X003556Y003681D01*
X003556Y001614D01*
X004810Y001614D01*
X004810Y001958D02*
X003959Y001958D01*
X003959Y003336D01*
X004810Y003336D01*
X007396Y001487D02*
X007646Y001362D01*
X007646Y001612D01*
X007396Y001487D01*
X007430Y001470D02*
X007646Y001470D01*
X007646Y001432D02*
X007507Y001432D01*
X007584Y001393D02*
X007646Y001393D01*
X007646Y001509D02*
X007439Y001509D01*
X007516Y001547D02*
X007646Y001547D01*
X007646Y001586D02*
X007593Y001586D01*
X007487Y001614D02*
X008733Y001614D01*
X008733Y003681D01*
X007477Y003681D01*
X007487Y003336D02*
X008329Y003336D01*
X008329Y001958D01*
X007479Y001958D01*
M02*
