G75*
%MOIN*%
%OFA0B0*%
%FSLAX24Y24*%
%IPPOS*%
%LPD*%
%AMOC8*
5,1,8,0,0,1.08239X$1,22.5*
%
%ADD10R,0.0354X0.0276*%
%ADD11R,0.0276X0.0354*%
%ADD12R,0.0118X0.0591*%
%ADD13R,0.0591X0.0118*%
%ADD14C,0.0600*%
%ADD15R,0.0394X0.0433*%
%ADD16R,0.0299X0.1102*%
%ADD17C,0.0100*%
%ADD18C,0.0260*%
%ADD19C,0.0160*%
%ADD20C,0.0396*%
%ADD21C,0.0120*%
D10*
X002444Y010791D03*
X002944Y010791D03*
X002944Y011303D03*
X002444Y011303D03*
D11*
X002888Y005697D03*
X002888Y005197D03*
X002888Y004697D03*
X003400Y004697D03*
X003400Y005197D03*
X003400Y005697D03*
D12*
X004618Y006455D03*
X004815Y006455D03*
X005012Y006455D03*
X005208Y006455D03*
X005405Y006455D03*
X005602Y006455D03*
X005799Y006455D03*
X005996Y006455D03*
X006193Y006455D03*
X006390Y006455D03*
X006586Y006455D03*
X006783Y006455D03*
X006980Y006455D03*
X007177Y006455D03*
X007374Y006455D03*
X007571Y006455D03*
X007571Y011140D03*
X007374Y011140D03*
X007177Y011140D03*
X006980Y011140D03*
X006783Y011140D03*
X006586Y011140D03*
X006390Y011140D03*
X006193Y011140D03*
X005996Y011140D03*
X005799Y011140D03*
X005602Y011140D03*
X005405Y011140D03*
X005208Y011140D03*
X005012Y011140D03*
X004815Y011140D03*
X004618Y011140D03*
D13*
X003752Y010274D03*
X003752Y010077D03*
X003752Y009880D03*
X003752Y009683D03*
X003752Y009486D03*
X003752Y009289D03*
X003752Y009092D03*
X003752Y008896D03*
X003752Y008699D03*
X003752Y008502D03*
X003752Y008305D03*
X003752Y008108D03*
X003752Y007911D03*
X003752Y007715D03*
X003752Y007518D03*
X003752Y007321D03*
X008437Y007321D03*
X008437Y007518D03*
X008437Y007715D03*
X008437Y007911D03*
X008437Y008108D03*
X008437Y008305D03*
X008437Y008502D03*
X008437Y008699D03*
X008437Y008896D03*
X008437Y009092D03*
X008437Y009289D03*
X008437Y009486D03*
X008437Y009683D03*
X008437Y009880D03*
X008437Y010077D03*
X008437Y010274D03*
D14*
X010375Y010484D03*
X010375Y011271D03*
X010375Y009696D03*
X010375Y008909D03*
X010375Y008122D03*
X010375Y007334D03*
X010375Y006547D03*
X010375Y005759D03*
X010375Y004972D03*
X010375Y004185D03*
X001714Y004185D03*
X001714Y004972D03*
X001714Y005759D03*
X001714Y006547D03*
X001714Y007334D03*
X001714Y008122D03*
X001714Y008909D03*
X001714Y009696D03*
X001714Y010484D03*
X001714Y011271D03*
D15*
X001794Y001313D03*
X001794Y001982D03*
X002694Y001982D03*
X002694Y001313D03*
X009394Y001363D03*
X009394Y002032D03*
X010244Y002032D03*
X010244Y001363D03*
D16*
X007144Y001919D03*
X006644Y001919D03*
X006144Y001919D03*
X005644Y001919D03*
X005144Y001919D03*
X005144Y003376D03*
X005644Y003376D03*
X006144Y003376D03*
X006644Y003376D03*
X007144Y003376D03*
D17*
X007144Y003847D01*
X006394Y004597D01*
X006394Y005097D01*
X005644Y005847D01*
X005144Y005847D01*
X004994Y005997D01*
X004994Y006437D01*
X005012Y006455D01*
X004815Y006455D02*
X004815Y006918D01*
X004944Y007047D01*
X005344Y007047D01*
X005405Y006455D02*
X005405Y006136D01*
X005544Y005997D01*
X005744Y005997D01*
X006844Y004897D01*
X008744Y004897D01*
X008994Y004647D01*
X009094Y005047D02*
X009394Y004747D01*
X009394Y003897D01*
X009694Y003597D01*
X009644Y004097D02*
X009644Y004847D01*
X009144Y005347D01*
X006944Y005347D01*
X006783Y005508D01*
X006783Y006455D01*
X006586Y006455D02*
X006586Y005405D01*
X006944Y005047D01*
X009094Y005047D01*
X008744Y004397D02*
X008294Y004397D01*
X007994Y004697D01*
X007144Y004697D01*
X006944Y004497D01*
X006944Y004447D01*
X006144Y003797D02*
X006144Y003376D01*
X006144Y003797D02*
X005644Y004297D01*
X003494Y004297D01*
X003394Y004197D01*
X003294Y003847D02*
X003744Y003847D01*
X003944Y004047D01*
X005344Y004047D01*
X005644Y003747D01*
X005644Y003376D01*
X005144Y003376D02*
X003923Y003376D01*
X003094Y002547D01*
X003394Y002297D02*
X003079Y001982D01*
X002694Y001982D01*
X002644Y002547D02*
X001744Y003447D01*
X001744Y003897D01*
X001714Y003928D01*
X001714Y004185D01*
X001714Y004972D02*
X002244Y005503D01*
X002244Y006497D01*
X002394Y006047D02*
X002394Y003347D01*
X002794Y002947D01*
X002944Y003297D02*
X002594Y003647D01*
X002594Y005997D01*
X002894Y006297D01*
X002894Y007347D01*
X003262Y007715D01*
X003752Y007715D01*
X003752Y007911D02*
X003158Y007911D01*
X002694Y007447D01*
X002694Y006347D01*
X002394Y006047D01*
X002888Y005941D02*
X002888Y005697D01*
X002888Y005197D01*
X002888Y004697D01*
X002888Y005941D02*
X003144Y006197D01*
X003144Y006547D02*
X003144Y007297D01*
X003344Y007497D01*
X003731Y007497D01*
X003752Y007518D01*
X003752Y007321D02*
X003596Y007047D01*
X003594Y007047D01*
X003752Y008108D02*
X004555Y008108D01*
X005644Y009197D01*
X005994Y009747D02*
X005996Y009749D01*
X005996Y011140D01*
X005799Y011140D02*
X005799Y010152D01*
X005544Y009897D01*
X005294Y010197D02*
X005208Y010283D01*
X005208Y011140D01*
X005012Y011140D02*
X005012Y009880D01*
X005144Y009747D01*
X005544Y008497D02*
X005799Y008242D01*
X005799Y006455D01*
X005602Y006455D02*
X005602Y007839D01*
X005494Y007947D01*
X006144Y007597D02*
X006390Y007352D01*
X006390Y006455D01*
X006980Y006455D02*
X006980Y005961D01*
X007044Y005847D01*
X007177Y006065D02*
X007394Y005797D01*
X007394Y006047D02*
X007744Y006047D01*
X007894Y005897D01*
X007394Y006047D02*
X007374Y006068D01*
X007374Y006455D01*
X007571Y006455D02*
X007578Y006447D01*
X008044Y006447D01*
X008494Y005997D02*
X008744Y005997D01*
X009294Y006547D01*
X009294Y007647D01*
X009044Y007897D01*
X008451Y007897D01*
X008437Y007911D01*
X008437Y008108D02*
X007755Y008108D01*
X007394Y007647D01*
X007394Y008147D02*
X006394Y008147D01*
X006044Y008497D01*
X006594Y008497D02*
X007794Y009697D01*
X008423Y009697D01*
X008437Y009683D01*
X008437Y009486D02*
X010165Y009486D01*
X010375Y009696D01*
X009995Y009289D02*
X010375Y008909D01*
X009995Y009289D02*
X008437Y009289D01*
X008437Y009092D02*
X009049Y009092D01*
X009294Y008847D01*
X008894Y008497D02*
X008442Y008497D01*
X008437Y008502D01*
X008437Y008305D02*
X008429Y008297D01*
X007544Y008297D01*
X007394Y008147D01*
X007893Y008699D02*
X007644Y008947D01*
X007893Y008699D02*
X008437Y008699D01*
X008437Y008896D02*
X008846Y008896D01*
X009844Y007897D01*
X009844Y004715D01*
X010375Y004185D01*
X009044Y005747D02*
X009544Y006247D01*
X009544Y007847D01*
X008894Y008497D01*
X008994Y007597D02*
X008915Y007518D01*
X008437Y007518D01*
X007177Y006455D02*
X007177Y006065D01*
X008744Y004397D02*
X008894Y004247D01*
X007994Y002597D02*
X007994Y002397D01*
X007629Y002032D01*
X007257Y002032D01*
X006644Y001919D02*
X006144Y001919D01*
X006444Y002597D02*
X003694Y002597D01*
X003644Y002647D01*
X002694Y001313D02*
X002710Y001297D01*
X003894Y001297D01*
X002694Y001313D02*
X001794Y001313D01*
X001714Y006547D02*
X002144Y006978D01*
X002144Y007447D01*
X002944Y008247D01*
X002944Y008847D01*
X003190Y009092D01*
X003752Y009092D01*
X003752Y009289D02*
X003136Y009289D01*
X002744Y008897D01*
X002744Y008365D01*
X001714Y007334D01*
X003244Y008397D02*
X003349Y008502D01*
X003752Y008502D01*
X003752Y009486D02*
X006655Y009486D01*
X006844Y009297D01*
X006344Y010197D02*
X006783Y010636D01*
X006783Y011140D01*
X008437Y010077D02*
X008457Y010097D01*
X009044Y010097D01*
X009444Y010497D01*
X003752Y010077D02*
X003215Y010077D01*
X002944Y010347D01*
X002944Y010791D01*
X002950Y010797D01*
X003394Y010797D01*
X002944Y010791D02*
X002444Y010791D01*
X006644Y003376D02*
X006644Y002797D01*
X006444Y002597D01*
X009394Y001363D02*
X010244Y001363D01*
D18*
X009694Y003597D03*
X009644Y004097D03*
X008994Y004647D03*
X008894Y004247D03*
X008494Y004047D03*
X008944Y003597D03*
X008444Y004647D03*
X007894Y003947D03*
X007544Y003947D03*
X007194Y004197D03*
X006944Y004447D03*
X006644Y004697D03*
X006194Y004147D03*
X006144Y004597D03*
X006094Y004947D03*
X007044Y005847D03*
X007394Y005797D03*
X007894Y005897D03*
X008044Y006447D03*
X008494Y005997D03*
X009044Y005747D03*
X009544Y005747D03*
X008894Y006997D03*
X008994Y007597D03*
X009294Y008847D03*
X009444Y010497D03*
X007644Y008947D03*
X006844Y009297D03*
X006594Y008497D03*
X006044Y008497D03*
X005544Y008497D03*
X005494Y007947D03*
X006144Y007597D03*
X005344Y007047D03*
X003844Y006847D03*
X003594Y006647D03*
X003594Y007047D03*
X003144Y006547D03*
X003144Y006197D03*
X002244Y006497D03*
X002344Y008397D03*
X003244Y008397D03*
X004694Y010297D03*
X005144Y009747D03*
X005544Y009897D03*
X005294Y010197D03*
X005494Y010547D03*
X005994Y009747D03*
X006344Y010197D03*
X005644Y009197D03*
X007394Y007647D03*
X007794Y007297D03*
X007744Y003397D03*
X007694Y002947D03*
X007494Y002597D03*
X007994Y002597D03*
X004294Y001547D03*
X003894Y001297D03*
X003394Y002297D03*
X003094Y002547D03*
X002794Y002947D03*
X002944Y003297D03*
X002844Y003747D03*
X003294Y003847D03*
X003394Y004197D03*
X003594Y003597D03*
X003644Y002647D03*
X002644Y002547D03*
X003394Y010797D03*
D19*
X003301Y010791D02*
X003301Y010953D01*
X003289Y010999D01*
X003270Y011031D01*
X003282Y011043D01*
X004154Y011043D01*
X003643Y010533D01*
X003374Y010533D01*
X003257Y010415D01*
X003257Y010132D01*
X003277Y010112D01*
X003277Y010077D01*
X003311Y010077D01*
X003311Y010077D01*
X003277Y010077D01*
X003277Y010042D01*
X003257Y010022D01*
X003257Y009539D01*
X003087Y009539D01*
X002995Y009501D01*
X002603Y009109D01*
X002532Y009039D01*
X002494Y008947D01*
X002494Y008692D01*
X002410Y008727D01*
X002279Y008727D01*
X002159Y008678D01*
X002214Y008810D01*
X002214Y009008D01*
X002137Y009192D01*
X002027Y009303D01*
X002137Y009413D01*
X002214Y009597D01*
X002214Y009796D01*
X002137Y009980D01*
X002027Y010090D01*
X002137Y010201D01*
X002214Y010384D01*
X002214Y010482D01*
X002243Y010474D01*
X002444Y010474D01*
X002444Y010791D01*
X002444Y010791D01*
X002444Y010474D01*
X002645Y010474D01*
X002691Y010486D01*
X002694Y010488D01*
X002698Y010486D01*
X002743Y010474D01*
X002944Y010474D01*
X002944Y010791D01*
X002587Y010791D01*
X002444Y010791D01*
X002444Y010791D01*
X002944Y010791D01*
X002944Y010791D01*
X002944Y010791D01*
X002944Y010474D01*
X003145Y010474D01*
X003191Y010486D01*
X003232Y010509D01*
X003266Y010543D01*
X003289Y010584D01*
X003301Y010630D01*
X003301Y010791D01*
X002944Y010791D01*
X002944Y010791D01*
X003301Y010791D01*
X003301Y010786D02*
X003897Y010786D01*
X003738Y010628D02*
X003301Y010628D01*
X003310Y010469D02*
X002214Y010469D01*
X002183Y010311D02*
X003257Y010311D01*
X003257Y010152D02*
X002089Y010152D01*
X002123Y009994D02*
X003257Y009994D01*
X003311Y010077D02*
X003311Y010077D01*
X003257Y009835D02*
X002197Y009835D01*
X002214Y009677D02*
X003257Y009677D01*
X003036Y009518D02*
X002181Y009518D01*
X002084Y009360D02*
X002853Y009360D01*
X002695Y009201D02*
X002129Y009201D01*
X002199Y009043D02*
X002536Y009043D01*
X002494Y008884D02*
X002214Y008884D01*
X002179Y008726D02*
X002275Y008726D01*
X002414Y008726D02*
X002494Y008726D01*
X002444Y010628D02*
X002444Y010628D01*
X002444Y010786D02*
X002444Y010786D01*
X002944Y010786D02*
X002944Y010786D01*
X002944Y010628D02*
X002944Y010628D01*
X003301Y010945D02*
X004055Y010945D01*
X004474Y010628D02*
X004762Y010628D01*
X004762Y010644D02*
X004762Y009830D01*
X004800Y009738D01*
X004802Y009736D01*
X004247Y009736D01*
X004247Y009738D01*
X004247Y010022D01*
X004227Y010042D01*
X004227Y010077D01*
X004227Y010112D01*
X004247Y010132D01*
X004247Y010401D01*
X004490Y010644D01*
X004762Y010644D01*
X004762Y010469D02*
X004315Y010469D01*
X004247Y010311D02*
X004762Y010311D01*
X004762Y010152D02*
X004247Y010152D01*
X004227Y010077D02*
X004192Y010077D01*
X004192Y010077D01*
X004192Y010077D01*
X004227Y010077D01*
X004247Y009994D02*
X004762Y009994D01*
X004762Y009835D02*
X004247Y009835D01*
X005220Y008419D02*
X005265Y008310D01*
X005336Y008239D01*
X005307Y008227D01*
X005215Y008134D01*
X005164Y008013D01*
X005164Y007882D01*
X005215Y007760D01*
X005307Y007667D01*
X005352Y007649D01*
X005352Y006950D01*
X005350Y006950D01*
X004870Y006950D01*
X004850Y006930D01*
X004815Y006930D01*
X004815Y006895D01*
X004815Y006895D01*
X004815Y006895D01*
X004815Y006930D01*
X004780Y006930D01*
X004760Y006950D01*
X004476Y006950D01*
X004359Y006833D01*
X004359Y006707D01*
X004144Y006707D01*
X004174Y006782D01*
X004174Y006913D01*
X004124Y007034D01*
X004096Y007062D01*
X004130Y007062D01*
X004247Y007179D01*
X004247Y007858D01*
X004605Y007858D01*
X004697Y007896D01*
X005220Y008419D01*
X005224Y008409D02*
X005209Y008409D01*
X005325Y008250D02*
X005051Y008250D01*
X005197Y008092D02*
X004892Y008092D01*
X004734Y007933D02*
X005164Y007933D01*
X005209Y007775D02*
X004247Y007775D01*
X004247Y007616D02*
X005352Y007616D01*
X005352Y007458D02*
X004247Y007458D01*
X004247Y007299D02*
X005352Y007299D01*
X005352Y007141D02*
X004209Y007141D01*
X004146Y006982D02*
X005352Y006982D01*
X004359Y006824D02*
X004174Y006824D01*
X003273Y006243D02*
X003210Y006217D01*
X003132Y006217D01*
X003106Y006156D01*
X003005Y006054D01*
X003050Y006054D01*
X003096Y006042D01*
X003128Y006023D01*
X003140Y006035D01*
X003140Y006055D01*
X003180Y006150D01*
X003273Y006243D01*
X003219Y006190D02*
X003120Y006190D01*
X003115Y006031D02*
X003136Y006031D01*
X002888Y005697D02*
X002888Y005197D01*
X002888Y005197D01*
X002888Y004840D01*
X002888Y004697D01*
X002888Y004697D01*
X002888Y005197D01*
X002888Y005554D01*
X002888Y005697D01*
X002888Y005697D01*
X002888Y005556D02*
X002888Y005556D01*
X002888Y005397D02*
X002888Y005397D01*
X002888Y005239D02*
X002888Y005239D01*
X002888Y005197D02*
X002888Y005197D01*
X002888Y005080D02*
X002888Y005080D01*
X002888Y004922D02*
X002888Y004922D01*
X002888Y004763D02*
X002888Y004763D01*
X002144Y003973D02*
X002144Y003297D01*
X002182Y003206D01*
X002464Y002924D01*
X002464Y002882D01*
X002515Y002760D01*
X002607Y002667D01*
X002729Y002617D01*
X002766Y002617D01*
X002764Y002613D01*
X002764Y002482D01*
X002799Y002398D01*
X002415Y002398D01*
X002297Y002281D01*
X002297Y002242D01*
X002191Y002242D01*
X002191Y002281D01*
X002074Y002398D01*
X001515Y002398D01*
X001494Y002378D01*
X001494Y003758D01*
X001529Y003740D01*
X001601Y003716D01*
X001676Y003705D01*
X001714Y003705D01*
X001751Y003705D01*
X001826Y003716D01*
X001898Y003740D01*
X001965Y003774D01*
X002026Y003818D01*
X002080Y003872D01*
X002124Y003933D01*
X002144Y003973D01*
X002143Y003971D02*
X002144Y003971D01*
X002144Y003812D02*
X002018Y003812D01*
X002144Y003654D02*
X001494Y003654D01*
X001494Y003495D02*
X002144Y003495D01*
X002144Y003337D02*
X001494Y003337D01*
X001494Y003178D02*
X002210Y003178D01*
X002368Y003020D02*
X001494Y003020D01*
X001494Y002861D02*
X002473Y002861D01*
X002572Y002703D02*
X001494Y002703D01*
X001494Y002544D02*
X002764Y002544D01*
X002402Y002386D02*
X002087Y002386D01*
X001502Y002386D02*
X001494Y002386D01*
X002191Y001722D02*
X002297Y001722D01*
X002297Y001682D01*
X002349Y001631D01*
X002330Y001599D01*
X002317Y001553D01*
X002317Y001331D01*
X002676Y001331D01*
X002676Y001294D01*
X002317Y001294D01*
X002317Y001147D01*
X002171Y001147D01*
X002171Y001294D01*
X001813Y001294D01*
X001813Y001331D01*
X002171Y001331D01*
X002171Y001553D01*
X002159Y001599D01*
X002140Y001631D01*
X002191Y001682D01*
X002191Y001722D01*
X002160Y001593D02*
X002328Y001593D01*
X002317Y001435D02*
X002171Y001435D01*
X002171Y001276D02*
X002317Y001276D01*
X002713Y001294D02*
X002713Y001331D01*
X003071Y001331D01*
X003071Y001553D01*
X003059Y001599D01*
X003040Y001631D01*
X003091Y001682D01*
X003091Y001732D01*
X003129Y001732D01*
X003221Y001770D01*
X003418Y001967D01*
X003460Y001967D01*
X003581Y002017D01*
X003674Y002110D01*
X003724Y002232D01*
X003724Y002323D01*
X003782Y002347D01*
X004795Y002347D01*
X004795Y001285D01*
X004912Y001168D01*
X005377Y001168D01*
X005394Y001185D01*
X005412Y001168D01*
X005877Y001168D01*
X005915Y001206D01*
X005925Y001200D01*
X005971Y001188D01*
X006144Y001188D01*
X006144Y001919D01*
X006144Y001919D01*
X006644Y001919D01*
X006644Y001919D01*
X006474Y001919D01*
X006144Y001919D01*
X006144Y001919D01*
X006144Y001188D01*
X006318Y001188D01*
X006363Y001200D01*
X006394Y001218D01*
X006425Y001200D01*
X006471Y001188D01*
X006644Y001188D01*
X006644Y001919D01*
X006644Y001919D01*
X006644Y001188D01*
X006818Y001188D01*
X006863Y001200D01*
X006874Y001206D01*
X006912Y001168D01*
X007377Y001168D01*
X007494Y001285D01*
X007494Y001772D01*
X008997Y001772D01*
X008997Y001732D01*
X009049Y001681D01*
X009030Y001649D01*
X009017Y001603D01*
X009017Y001381D01*
X009376Y001381D01*
X009376Y001344D01*
X009017Y001344D01*
X009017Y001147D01*
X003071Y001147D01*
X003071Y001294D01*
X002713Y001294D01*
X003071Y001276D02*
X004099Y001276D01*
X004107Y001267D02*
X004229Y001217D01*
X004360Y001217D01*
X004481Y001267D01*
X004574Y001360D01*
X004624Y001482D01*
X004624Y001613D01*
X004574Y001734D01*
X004481Y001827D01*
X004360Y001877D01*
X004229Y001877D01*
X004107Y001827D01*
X004015Y001734D01*
X003964Y001613D01*
X003964Y001482D01*
X004015Y001360D01*
X004107Y001267D01*
X003984Y001435D02*
X003071Y001435D01*
X003060Y001593D02*
X003964Y001593D01*
X004032Y001752D02*
X003177Y001752D01*
X003361Y001910D02*
X004795Y001910D01*
X004795Y001752D02*
X004557Y001752D01*
X004624Y001593D02*
X004795Y001593D01*
X004795Y001435D02*
X004605Y001435D01*
X004490Y001276D02*
X004803Y001276D01*
X004795Y002069D02*
X003632Y002069D01*
X003723Y002227D02*
X004795Y002227D01*
X006144Y001910D02*
X006144Y001910D01*
X006144Y001752D02*
X006144Y001752D01*
X006144Y001593D02*
X006144Y001593D01*
X006144Y001435D02*
X006144Y001435D01*
X006144Y001276D02*
X006144Y001276D01*
X006644Y001276D02*
X006644Y001276D01*
X006644Y001435D02*
X006644Y001435D01*
X006644Y001593D02*
X006644Y001593D01*
X006644Y001752D02*
X006644Y001752D01*
X006644Y001910D02*
X006644Y001910D01*
X007494Y001752D02*
X008997Y001752D01*
X009017Y001593D02*
X007494Y001593D01*
X007494Y001435D02*
X009017Y001435D01*
X009017Y001276D02*
X007485Y001276D01*
X008221Y002292D02*
X008244Y002347D01*
X008244Y002381D01*
X008274Y002410D01*
X008324Y002532D01*
X008324Y002663D01*
X008274Y002784D01*
X008181Y002877D01*
X008060Y002927D01*
X008024Y002927D01*
X008024Y003013D01*
X007974Y003134D01*
X007961Y003147D01*
X008024Y003210D01*
X008074Y003332D01*
X008074Y003463D01*
X008024Y003584D01*
X007982Y003626D01*
X008081Y003667D01*
X008174Y003760D01*
X008215Y003860D01*
X008307Y003767D01*
X008429Y003717D01*
X008560Y003717D01*
X008681Y003767D01*
X008774Y003860D01*
X008802Y003928D01*
X008829Y003917D01*
X008960Y003917D01*
X009081Y003967D01*
X009144Y004031D01*
X009144Y003847D01*
X009182Y003756D01*
X009364Y003574D01*
X009364Y003532D01*
X009415Y003410D01*
X009507Y003317D01*
X009629Y003267D01*
X009760Y003267D01*
X009881Y003317D01*
X009974Y003410D01*
X010024Y003532D01*
X010024Y003663D01*
X009974Y003784D01*
X009886Y003872D01*
X009924Y003910D01*
X009936Y003939D01*
X009951Y003901D01*
X010092Y003761D01*
X010276Y003685D01*
X010474Y003685D01*
X010594Y003734D01*
X010594Y002378D01*
X010524Y002448D01*
X009965Y002448D01*
X009847Y002331D01*
X009847Y002292D01*
X009791Y002292D01*
X009791Y002331D01*
X009674Y002448D01*
X009115Y002448D01*
X008997Y002331D01*
X008997Y002292D01*
X008221Y002292D01*
X008249Y002386D02*
X009052Y002386D01*
X009737Y002386D02*
X009902Y002386D01*
X009847Y001772D02*
X009791Y001772D01*
X009791Y001732D01*
X009740Y001681D01*
X009759Y001649D01*
X009771Y001603D01*
X009771Y001381D01*
X009413Y001381D01*
X009413Y001344D01*
X009771Y001344D01*
X009771Y001147D01*
X009867Y001147D01*
X009867Y001344D01*
X010226Y001344D01*
X010226Y001381D01*
X009867Y001381D01*
X009867Y001603D01*
X009880Y001649D01*
X009899Y001681D01*
X009847Y001732D01*
X009847Y001772D01*
X009847Y001752D02*
X009791Y001752D01*
X009771Y001593D02*
X009867Y001593D01*
X009867Y001435D02*
X009771Y001435D01*
X009771Y001276D02*
X009867Y001276D01*
X010587Y002386D02*
X010594Y002386D01*
X010594Y002544D02*
X008324Y002544D01*
X008308Y002703D02*
X010594Y002703D01*
X010594Y002861D02*
X008197Y002861D01*
X008021Y003020D02*
X010594Y003020D01*
X010594Y003178D02*
X007992Y003178D01*
X008074Y003337D02*
X009488Y003337D01*
X009379Y003495D02*
X008061Y003495D01*
X008048Y003654D02*
X009284Y003654D01*
X009159Y003812D02*
X008726Y003812D01*
X009085Y003971D02*
X009144Y003971D01*
X009901Y003337D02*
X010594Y003337D01*
X010594Y003495D02*
X010009Y003495D01*
X010024Y003654D02*
X010594Y003654D01*
X010040Y003812D02*
X009946Y003812D01*
X009594Y005251D02*
X009304Y005541D01*
X009324Y005560D01*
X009374Y005682D01*
X009374Y005724D01*
X009594Y005944D01*
X009594Y005251D01*
X009594Y005397D02*
X009448Y005397D01*
X009320Y005556D02*
X009594Y005556D01*
X009594Y005714D02*
X009374Y005714D01*
X009523Y005873D02*
X009594Y005873D01*
X009044Y007292D02*
X008960Y007327D01*
X008932Y007327D01*
X008932Y007463D01*
X008912Y007483D01*
X008912Y007518D01*
X008912Y007553D01*
X008932Y007573D01*
X008932Y007647D01*
X008941Y007647D01*
X009044Y007544D01*
X009044Y007292D01*
X009044Y007299D02*
X009028Y007299D01*
X009044Y007458D02*
X008932Y007458D01*
X008912Y007518D02*
X008877Y007518D01*
X008912Y007518D01*
X008877Y007518D02*
X008877Y007518D01*
X008877Y007518D01*
X008932Y007616D02*
X008972Y007616D01*
X007262Y009518D02*
X007090Y009518D01*
X007124Y009484D02*
X007031Y009577D01*
X006910Y009627D01*
X006868Y009627D01*
X006797Y009698D01*
X006705Y009736D01*
X006324Y009736D01*
X006324Y009813D01*
X006274Y009934D01*
X006246Y009962D01*
X006246Y010644D01*
X006720Y010644D01*
X006720Y010610D01*
X006760Y010514D01*
X006833Y010441D01*
X007509Y009765D01*
X007154Y009411D01*
X007124Y009484D01*
X007420Y009677D02*
X006818Y009677D01*
X006315Y009835D02*
X007439Y009835D01*
X007280Y009994D02*
X006246Y009994D01*
X006246Y010152D02*
X007122Y010152D01*
X006963Y010311D02*
X006246Y010311D01*
X006246Y010469D02*
X006805Y010469D01*
X006720Y010628D02*
X006246Y010628D01*
X005549Y010628D02*
X005458Y010628D01*
X005458Y010644D02*
X005549Y010644D01*
X005549Y010409D01*
X005481Y010477D01*
X005458Y010486D01*
X005458Y010644D01*
X005489Y010469D02*
X005549Y010469D01*
X007231Y011635D02*
X007201Y011709D01*
X007131Y011778D01*
X010471Y011796D01*
X010518Y011753D01*
X010474Y011771D01*
X010276Y011771D01*
X010092Y011695D01*
X009951Y011554D01*
X009875Y011371D01*
X009875Y011172D01*
X009951Y010988D01*
X010062Y010878D01*
X009951Y010767D01*
X009875Y010583D01*
X009875Y010384D01*
X009951Y010201D01*
X010062Y010090D01*
X009951Y009980D01*
X009875Y009796D01*
X009875Y009736D01*
X008932Y009736D01*
X008932Y009825D01*
X008932Y010022D01*
X008912Y010042D01*
X008912Y010077D01*
X008912Y010112D01*
X008932Y010132D01*
X008932Y010415D01*
X008815Y010533D01*
X008059Y010533D01*
X007942Y010415D01*
X007942Y010140D01*
X007869Y010140D01*
X007365Y010644D01*
X007713Y010644D01*
X007830Y010762D01*
X007830Y011518D01*
X007713Y011635D01*
X007231Y011635D01*
X007172Y011737D02*
X010193Y011737D01*
X009975Y011579D02*
X007769Y011579D01*
X007830Y011420D02*
X009896Y011420D01*
X009875Y011262D02*
X007830Y011262D01*
X007830Y011103D02*
X009903Y011103D01*
X009994Y010945D02*
X007830Y010945D01*
X007830Y010786D02*
X009970Y010786D01*
X009893Y010628D02*
X007381Y010628D01*
X007540Y010469D02*
X007995Y010469D01*
X007942Y010311D02*
X007699Y010311D01*
X007857Y010152D02*
X007942Y010152D01*
X008877Y010077D02*
X008877Y010077D01*
X008912Y010077D01*
X008877Y010077D01*
X008877Y010077D01*
X008932Y010152D02*
X010000Y010152D01*
X009965Y009994D02*
X008932Y009994D01*
X008932Y009835D02*
X009891Y009835D01*
X009906Y010311D02*
X008932Y010311D01*
X008878Y010469D02*
X009875Y010469D01*
X004850Y005267D02*
X004826Y005210D01*
X004826Y005084D01*
X004850Y005027D01*
X004758Y005065D01*
X004631Y005065D01*
X004539Y005027D01*
X004562Y005084D01*
X004562Y005210D01*
X004539Y005267D01*
X004631Y005229D01*
X004758Y005229D01*
X004850Y005267D01*
X004838Y005239D02*
X004781Y005239D01*
X004828Y005080D02*
X004561Y005080D01*
X004551Y005239D02*
X004608Y005239D01*
X001714Y004185D02*
X001714Y003705D01*
X001714Y004185D01*
X001714Y004185D01*
X001714Y004129D02*
X001714Y004129D01*
X001714Y003971D02*
X001714Y003971D01*
X001714Y003812D02*
X001714Y003812D01*
X008196Y003812D02*
X008263Y003812D01*
D20*
X004694Y005147D03*
D21*
X004610Y006447D02*
X003844Y006447D01*
X003400Y006003D01*
X003400Y005697D01*
X003400Y005197D01*
X003400Y004697D01*
X003044Y004341D01*
X003044Y003797D01*
X002994Y003747D01*
X002844Y003747D01*
X002694Y001982D02*
X001794Y001982D01*
X004610Y006447D02*
X004618Y006455D01*
X007794Y007297D02*
X008062Y007715D01*
X008437Y007715D01*
X008437Y007321D02*
X008760Y006997D01*
X008894Y006997D01*
X008437Y009880D02*
X007762Y009880D01*
X006980Y010661D01*
X006980Y011140D01*
X006980Y011561D01*
X006844Y011697D01*
X004744Y011697D01*
X004618Y011571D01*
X004618Y011140D01*
X003752Y010274D01*
X004618Y011140D02*
X004455Y011303D01*
X002944Y011303D01*
X002444Y011303D01*
X002412Y011271D01*
X001714Y011271D01*
X007257Y002032D02*
X007144Y001919D01*
X007257Y002032D02*
X009394Y002032D01*
X010244Y002032D01*
M02*
