G75*
%MOIN*%
%OFA0B0*%
%FSLAX24Y24*%
%IPPOS*%
%LPD*%
%AMOC8*
5,1,8,0,0,1.08239X$1,22.5*
%
%ADD10C,0.0316*%
%ADD11R,0.0434X0.0356*%
%ADD12R,0.0356X0.0434*%
%ADD13C,0.0142*%
%ADD14R,0.0510X0.0830*%
%ADD15R,0.0474X0.0867*%
%ADD16C,0.0197*%
%ADD17C,0.0040*%
%ADD18R,0.0395X0.0186*%
%ADD19R,0.0454X0.0631*%
%ADD20C,0.0680*%
%ADD21R,0.0631X0.0533*%
%ADD22R,0.0474X0.0513*%
%ADD23R,0.0513X0.0474*%
%ADD24C,0.0340*%
%ADD25C,0.0476*%
D10*
X004244Y004747D03*
X004244Y005147D03*
X004244Y005547D03*
X004694Y005547D03*
X005144Y005547D03*
X005144Y005147D03*
X005144Y004747D03*
X004694Y004747D03*
D11*
X004994Y006791D03*
X004994Y007303D03*
X004294Y007303D03*
X004294Y006791D03*
X004394Y009441D03*
X004394Y009953D03*
X004394Y011341D03*
X004394Y011853D03*
X006794Y010703D03*
X006794Y010191D03*
X008894Y010191D03*
X008894Y010703D03*
X007844Y005203D03*
X007844Y004691D03*
X007394Y004691D03*
X007394Y005203D03*
X008394Y002953D03*
X008394Y002441D03*
X009094Y002441D03*
X009094Y002953D03*
X009794Y002953D03*
X009794Y002441D03*
X010494Y002441D03*
X010494Y002953D03*
X006644Y002603D03*
X006644Y002091D03*
X004144Y002091D03*
X004144Y002603D03*
D12*
X002300Y002547D03*
X001788Y002547D03*
X006388Y007997D03*
X006900Y007997D03*
X004900Y008847D03*
X004388Y008847D03*
X004388Y010647D03*
X004900Y010647D03*
D13*
X008228Y002058D02*
X008560Y002058D01*
X008560Y001726D01*
X008228Y001726D01*
X008228Y002058D01*
X008228Y001867D02*
X008560Y001867D01*
X008560Y002008D02*
X008228Y002008D01*
X008228Y001368D02*
X008560Y001368D01*
X008560Y001036D01*
X008228Y001036D01*
X008228Y001368D01*
X008228Y001177D02*
X008560Y001177D01*
X008560Y001318D02*
X008228Y001318D01*
X008928Y001368D02*
X009260Y001368D01*
X009260Y001036D01*
X008928Y001036D01*
X008928Y001368D01*
X008928Y001177D02*
X009260Y001177D01*
X009260Y001318D02*
X008928Y001318D01*
X008928Y002058D02*
X009260Y002058D01*
X009260Y001726D01*
X008928Y001726D01*
X008928Y002058D01*
X008928Y001867D02*
X009260Y001867D01*
X009260Y002008D02*
X008928Y002008D01*
X009628Y002058D02*
X009960Y002058D01*
X009960Y001726D01*
X009628Y001726D01*
X009628Y002058D01*
X009628Y001867D02*
X009960Y001867D01*
X009960Y002008D02*
X009628Y002008D01*
X009628Y001368D02*
X009960Y001368D01*
X009960Y001036D01*
X009628Y001036D01*
X009628Y001368D01*
X009628Y001177D02*
X009960Y001177D01*
X009960Y001318D02*
X009628Y001318D01*
X010328Y001368D02*
X010660Y001368D01*
X010660Y001036D01*
X010328Y001036D01*
X010328Y001368D01*
X010328Y001177D02*
X010660Y001177D01*
X010660Y001318D02*
X010328Y001318D01*
X010328Y002058D02*
X010660Y002058D01*
X010660Y001726D01*
X010328Y001726D01*
X010328Y002058D01*
X010328Y001867D02*
X010660Y001867D01*
X010660Y002008D02*
X010328Y002008D01*
D14*
X008324Y010597D03*
X007364Y010597D03*
D15*
X006398Y013747D03*
X004390Y013747D03*
D16*
X004173Y005669D02*
X005157Y005669D01*
X005216Y005610D01*
X005216Y004626D01*
X004173Y004626D01*
X004173Y005669D01*
X004173Y005593D02*
X005216Y005593D01*
X005216Y005397D02*
X004173Y005397D01*
X004173Y005202D02*
X005216Y005202D01*
X005216Y005007D02*
X004173Y005007D01*
X004173Y004811D02*
X005216Y004811D01*
D17*
X005501Y004813D02*
X005501Y004891D01*
X005698Y004891D01*
X005698Y004813D01*
X005501Y004813D01*
X005501Y004820D02*
X005698Y004820D01*
X005698Y004858D02*
X005501Y004858D01*
X005501Y005009D02*
X005501Y005088D01*
X005698Y005088D01*
X005698Y005009D01*
X005501Y005009D01*
X005501Y005012D02*
X005698Y005012D01*
X005698Y005051D02*
X005501Y005051D01*
X005501Y005206D02*
X005501Y005285D01*
X005698Y005285D01*
X005698Y005206D01*
X005501Y005206D01*
X005501Y005243D02*
X005698Y005243D01*
X005698Y005282D02*
X005501Y005282D01*
X005501Y005403D02*
X005501Y005482D01*
X005698Y005482D01*
X005698Y005403D01*
X005501Y005403D01*
X005501Y005436D02*
X005698Y005436D01*
X005698Y005474D02*
X005501Y005474D01*
X005501Y005600D02*
X005501Y005679D01*
X005698Y005679D01*
X005698Y005600D01*
X005501Y005600D01*
X005501Y005628D02*
X005698Y005628D01*
X005698Y005667D02*
X005501Y005667D01*
X005501Y005797D02*
X005698Y005797D01*
X005698Y005876D01*
X005521Y005876D01*
X005501Y005856D01*
X005501Y005797D01*
X005501Y005821D02*
X005698Y005821D01*
X005698Y005859D02*
X005505Y005859D01*
X005403Y005954D02*
X005344Y005954D01*
X005344Y006151D01*
X005423Y006151D01*
X005423Y005974D01*
X005403Y005954D01*
X005423Y005975D02*
X005344Y005975D01*
X005344Y006013D02*
X005423Y006013D01*
X005423Y006052D02*
X005344Y006052D01*
X005344Y006090D02*
X005423Y006090D01*
X005423Y006129D02*
X005344Y006129D01*
X005226Y006129D02*
X005147Y006129D01*
X005147Y006151D02*
X005226Y006151D01*
X005226Y005954D01*
X005147Y005954D01*
X005147Y006151D01*
X005147Y006090D02*
X005226Y006090D01*
X005226Y006052D02*
X005147Y006052D01*
X005147Y006013D02*
X005226Y006013D01*
X005226Y005975D02*
X005147Y005975D01*
X005029Y005975D02*
X004950Y005975D01*
X004950Y005954D02*
X004950Y006151D01*
X005029Y006151D01*
X005029Y005954D01*
X004950Y005954D01*
X004950Y006013D02*
X005029Y006013D01*
X005029Y006052D02*
X004950Y006052D01*
X004950Y006090D02*
X005029Y006090D01*
X005029Y006129D02*
X004950Y006129D01*
X004832Y006129D02*
X004753Y006129D01*
X004753Y006151D02*
X004832Y006151D01*
X004832Y005954D01*
X004753Y005954D01*
X004753Y006151D01*
X004753Y006090D02*
X004832Y006090D01*
X004832Y006052D02*
X004753Y006052D01*
X004753Y006013D02*
X004832Y006013D01*
X004832Y005975D02*
X004753Y005975D01*
X004635Y005975D02*
X004557Y005975D01*
X004557Y005954D02*
X004557Y006151D01*
X004635Y006151D01*
X004635Y005954D01*
X004557Y005954D01*
X004557Y006013D02*
X004635Y006013D01*
X004635Y006052D02*
X004557Y006052D01*
X004557Y006090D02*
X004635Y006090D01*
X004635Y006129D02*
X004557Y006129D01*
X004438Y006129D02*
X004360Y006129D01*
X004360Y006151D02*
X004438Y006151D01*
X004438Y005954D01*
X004360Y005954D01*
X004360Y006151D01*
X004360Y006090D02*
X004438Y006090D01*
X004438Y006052D02*
X004360Y006052D01*
X004360Y006013D02*
X004438Y006013D01*
X004438Y005975D02*
X004360Y005975D01*
X004242Y005975D02*
X004163Y005975D01*
X004163Y005954D02*
X004163Y006151D01*
X004242Y006151D01*
X004242Y005954D01*
X004163Y005954D01*
X004163Y006013D02*
X004242Y006013D01*
X004242Y006052D02*
X004163Y006052D01*
X004163Y006090D02*
X004242Y006090D01*
X004242Y006129D02*
X004163Y006129D01*
X004045Y006129D02*
X003966Y006129D01*
X003966Y006151D02*
X004045Y006151D01*
X004045Y005954D01*
X003986Y005954D01*
X003966Y005974D01*
X003966Y006151D01*
X003966Y006090D02*
X004045Y006090D01*
X004045Y006052D02*
X003966Y006052D01*
X003966Y006013D02*
X004045Y006013D01*
X004045Y005975D02*
X003966Y005975D01*
X003868Y005876D02*
X003887Y005856D01*
X003887Y005797D01*
X003690Y005797D01*
X003690Y005876D01*
X003868Y005876D01*
X003884Y005859D02*
X003690Y005859D01*
X003690Y005821D02*
X003887Y005821D01*
X003887Y005679D02*
X003690Y005679D01*
X003690Y005600D01*
X003887Y005600D01*
X003887Y005679D01*
X003887Y005667D02*
X003690Y005667D01*
X003690Y005628D02*
X003887Y005628D01*
X003887Y005482D02*
X003690Y005482D01*
X003690Y005403D01*
X003887Y005403D01*
X003887Y005482D01*
X003887Y005474D02*
X003690Y005474D01*
X003690Y005436D02*
X003887Y005436D01*
X003887Y005285D02*
X003690Y005285D01*
X003690Y005206D01*
X003887Y005206D01*
X003887Y005285D01*
X003887Y005282D02*
X003690Y005282D01*
X003690Y005243D02*
X003887Y005243D01*
X003887Y005088D02*
X003690Y005088D01*
X003690Y005009D01*
X003887Y005009D01*
X003887Y005088D01*
X003887Y005051D02*
X003690Y005051D01*
X003690Y005012D02*
X003887Y005012D01*
X003887Y004891D02*
X003690Y004891D01*
X003690Y004813D01*
X003887Y004813D01*
X003887Y004891D01*
X003887Y004858D02*
X003690Y004858D01*
X003690Y004820D02*
X003887Y004820D01*
X003887Y004694D02*
X003690Y004694D01*
X003690Y004616D01*
X003887Y004616D01*
X003887Y004694D01*
X003887Y004666D02*
X003690Y004666D01*
X003690Y004627D02*
X003887Y004627D01*
X003887Y004498D02*
X003690Y004498D01*
X003690Y004419D01*
X003868Y004419D01*
X003887Y004439D01*
X003887Y004498D01*
X003887Y004473D02*
X003690Y004473D01*
X003690Y004435D02*
X003883Y004435D01*
X003986Y004340D02*
X004045Y004340D01*
X004045Y004143D01*
X003966Y004143D01*
X003966Y004320D01*
X003986Y004340D01*
X003966Y004319D02*
X004045Y004319D01*
X004045Y004281D02*
X003966Y004281D01*
X003966Y004242D02*
X004045Y004242D01*
X004045Y004204D02*
X003966Y004204D01*
X003966Y004165D02*
X004045Y004165D01*
X004163Y004165D02*
X004242Y004165D01*
X004242Y004143D02*
X004163Y004143D01*
X004163Y004340D01*
X004242Y004340D01*
X004242Y004143D01*
X004242Y004204D02*
X004163Y004204D01*
X004163Y004242D02*
X004242Y004242D01*
X004242Y004281D02*
X004163Y004281D01*
X004163Y004319D02*
X004242Y004319D01*
X004360Y004319D02*
X004438Y004319D01*
X004438Y004340D02*
X004438Y004143D01*
X004360Y004143D01*
X004360Y004340D01*
X004438Y004340D01*
X004438Y004281D02*
X004360Y004281D01*
X004360Y004242D02*
X004438Y004242D01*
X004438Y004204D02*
X004360Y004204D01*
X004360Y004165D02*
X004438Y004165D01*
X004557Y004165D02*
X004635Y004165D01*
X004635Y004143D02*
X004557Y004143D01*
X004557Y004340D01*
X004635Y004340D01*
X004635Y004143D01*
X004635Y004204D02*
X004557Y004204D01*
X004557Y004242D02*
X004635Y004242D01*
X004635Y004281D02*
X004557Y004281D01*
X004557Y004319D02*
X004635Y004319D01*
X004753Y004319D02*
X004832Y004319D01*
X004832Y004340D02*
X004832Y004143D01*
X004753Y004143D01*
X004753Y004340D01*
X004832Y004340D01*
X004832Y004281D02*
X004753Y004281D01*
X004753Y004242D02*
X004832Y004242D01*
X004832Y004204D02*
X004753Y004204D01*
X004753Y004165D02*
X004832Y004165D01*
X004950Y004165D02*
X005029Y004165D01*
X005029Y004143D02*
X004950Y004143D01*
X004950Y004340D01*
X005029Y004340D01*
X005029Y004143D01*
X005029Y004204D02*
X004950Y004204D01*
X004950Y004242D02*
X005029Y004242D01*
X005029Y004281D02*
X004950Y004281D01*
X004950Y004319D02*
X005029Y004319D01*
X005147Y004319D02*
X005226Y004319D01*
X005226Y004340D02*
X005226Y004143D01*
X005147Y004143D01*
X005147Y004340D01*
X005226Y004340D01*
X005226Y004281D02*
X005147Y004281D01*
X005147Y004242D02*
X005226Y004242D01*
X005226Y004204D02*
X005147Y004204D01*
X005147Y004165D02*
X005226Y004165D01*
X005344Y004165D02*
X005423Y004165D01*
X005423Y004143D02*
X005344Y004143D01*
X005344Y004340D01*
X005403Y004340D01*
X005423Y004320D01*
X005423Y004143D01*
X005423Y004204D02*
X005344Y004204D01*
X005344Y004242D02*
X005423Y004242D01*
X005423Y004281D02*
X005344Y004281D01*
X005344Y004319D02*
X005423Y004319D01*
X005521Y004419D02*
X005501Y004439D01*
X005501Y004498D01*
X005698Y004498D01*
X005698Y004419D01*
X005521Y004419D01*
X005505Y004435D02*
X005698Y004435D01*
X005698Y004473D02*
X005501Y004473D01*
X005501Y004616D02*
X005501Y004694D01*
X005698Y004694D01*
X005698Y004616D01*
X005501Y004616D01*
X005501Y004627D02*
X005698Y004627D01*
X005698Y004666D02*
X005501Y004666D01*
D18*
X004920Y007811D03*
X004920Y008067D03*
X004920Y008323D03*
X004369Y008323D03*
X004369Y008067D03*
X004369Y007811D03*
D19*
X001727Y001647D03*
X003361Y001647D03*
D20*
X001714Y004185D03*
X001714Y004972D03*
X001714Y005759D03*
X001714Y006547D03*
X001714Y007334D03*
X001714Y008122D03*
X001714Y008909D03*
X001714Y009696D03*
X001714Y010484D03*
X001714Y011271D03*
X010375Y011271D03*
X010375Y010484D03*
X010375Y009696D03*
X010375Y008909D03*
X010375Y008122D03*
X010375Y007334D03*
X010375Y006547D03*
X010375Y005759D03*
X010375Y004972D03*
X010375Y004185D03*
D21*
X005985Y002612D03*
X005985Y001982D03*
X004804Y001982D03*
X004804Y002612D03*
D22*
X002544Y004963D03*
X002544Y005632D03*
D23*
X008710Y005247D03*
X009379Y005247D03*
D24*
X009544Y005747D03*
X009044Y005747D03*
X008494Y005997D03*
X008044Y006447D03*
X007894Y005897D03*
X007394Y005797D03*
X007044Y005847D03*
X006644Y004697D03*
X006944Y004447D03*
X007194Y004197D03*
X007544Y003947D03*
X007894Y003947D03*
X007744Y003397D03*
X007694Y002947D03*
X007494Y002597D03*
X007994Y002597D03*
X008944Y003597D03*
X008494Y004047D03*
X008894Y004247D03*
X008994Y004647D03*
X008444Y004647D03*
X009644Y004097D03*
X009694Y003597D03*
X008894Y006997D03*
X008994Y007597D03*
X009294Y008847D03*
X009444Y010497D03*
X007644Y008947D03*
X006844Y009297D03*
X006594Y008497D03*
X006044Y008497D03*
X005544Y008497D03*
X005494Y007947D03*
X006144Y007597D03*
X005344Y007047D03*
X003844Y006847D03*
X003594Y006647D03*
X003594Y007047D03*
X003144Y006547D03*
X003144Y006197D03*
X002244Y006497D03*
X002344Y008397D03*
X003244Y008397D03*
X004694Y010297D03*
X005144Y009747D03*
X005544Y009897D03*
X005294Y010197D03*
X005494Y010547D03*
X005994Y009747D03*
X006344Y010197D03*
X005644Y009197D03*
X007394Y007647D03*
X007794Y007297D03*
X006094Y004947D03*
X006144Y004597D03*
X006194Y004147D03*
X004294Y001547D03*
X003894Y001297D03*
X003394Y002297D03*
X003094Y002547D03*
X002794Y002947D03*
X002944Y003297D03*
X002844Y003747D03*
X003294Y003847D03*
X003394Y004197D03*
X003594Y003597D03*
X003644Y002647D03*
X002644Y002547D03*
X003394Y010797D03*
D25*
X004694Y005147D03*
M02*
