%
M48
M72
T01C0.0100
T02C0.0315
%
T01
X2173Y2780
X2573Y2580
X2773Y3180
X2773Y3530
X2673Y4280
X3123Y4380
X3373Y4630
X3773Y4680
X3923Y4980
X4473Y5080
X4373Y4630
X5173Y5080
X5773Y4930
X6073Y5080
X5773Y4430
X5723Y4030
X4773Y3330
X4573Y3580
X4273Y2830
X4273Y1930
X3673Y1130
X4023Y830
X5423Y1630
X5923Y1630
X6423Y1630
X7073Y1630
X7623Y1880
X7973Y1730
X8273Y1480
X7623Y2280
X7623Y2630
X7223Y3780
X6873Y3780
X7073Y5330
X7073Y5880
X6173Y6180
X5723Y6030
X5423Y6280
X5173Y6730
X4873Y6880
X4873Y7530
X4673Y7880
X5173Y8380
X5073Y8930
X5823Y8530
X6273Y8980
X5873Y9280
X4173Y9330
X4223Y8780
X2973Y9180
X3973Y10380
X1673Y7830
X1973Y7680
X1773Y6980
X1923Y6430
X2473Y5930
X2873Y6280
X3073Y6580
X2873Y6880
X3123Y7130
X3473Y6080
X3973Y5980
X4273Y6280
X4573Y6080
X1823Y3730
X3223Y2730
X7173Y630
X8673Y3430
X8423Y4230
X8023Y5330
X7573Y6780
X7973Y8080
X7673Y8380
X9973Y2530
T02
X9904Y3467
X9904Y4255
X9904Y5042
X9904Y5830
X9904Y6617
X9904Y7404
X9904Y8192
X9904Y8979
X9904Y9767
X9904Y10554
X1243Y10554
X1243Y9767
X1243Y8979
X1243Y8192
X1243Y7404
X1243Y6617
X1243Y5830
X1243Y5042
X1243Y4255
X1243Y3467
M30
