G75*
%MOIN*%
%OFA0B0*%
%FSLAX24Y24*%
%IPPOS*%
%LPD*%
%AMOC8*
5,1,8,0,0,1.08239X$1,22.5*
%
%ADD10R,0.0356X0.0434*%
%ADD11R,0.0513X0.0513*%
%ADD12R,0.0198X0.0434*%
%ADD13R,0.0434X0.0198*%
%ADD14C,0.0680*%
%ADD15R,0.0513X0.0474*%
%ADD16R,0.0474X0.0513*%
%ADD17R,0.0379X0.1182*%
%ADD18C,0.0340*%
D10*
X004817Y004180D03*
X005329Y004180D03*
X005317Y003430D03*
X005829Y003430D03*
X008517Y008230D03*
X009029Y008230D03*
X008479Y008780D03*
X007967Y008780D03*
X007967Y009380D03*
X008479Y009380D03*
X008479Y010030D03*
X007967Y010030D03*
X007967Y010680D03*
X008479Y010680D03*
D11*
X006023Y010430D03*
X003573Y010680D03*
X003073Y010680D03*
X002373Y009930D03*
D12*
X003097Y009904D03*
X003294Y009904D03*
X003491Y009904D03*
X003687Y009904D03*
X003884Y009904D03*
X004081Y009904D03*
X004278Y009904D03*
X004475Y009904D03*
X004672Y009904D03*
X004869Y009904D03*
X005065Y009904D03*
X005262Y009904D03*
X005459Y009904D03*
X005656Y009904D03*
X005853Y009904D03*
X006050Y009904D03*
X006050Y005456D03*
X005853Y005456D03*
X005656Y005456D03*
X005459Y005456D03*
X005262Y005456D03*
X005065Y005456D03*
X004869Y005456D03*
X004672Y005456D03*
X004475Y005456D03*
X004278Y005456D03*
X004081Y005456D03*
X003884Y005456D03*
X003687Y005456D03*
X003491Y005456D03*
X003294Y005456D03*
X003097Y005456D03*
D13*
X002349Y006204D03*
X002349Y006400D03*
X002349Y006597D03*
X002349Y006794D03*
X002349Y006991D03*
X002349Y007188D03*
X002349Y007385D03*
X002349Y007582D03*
X002349Y007778D03*
X002349Y007975D03*
X002349Y008172D03*
X002349Y008369D03*
X002349Y008566D03*
X002349Y008763D03*
X002349Y008960D03*
X002349Y009156D03*
X006798Y009156D03*
X006798Y008960D03*
X006798Y008763D03*
X006798Y008566D03*
X006798Y008369D03*
X006798Y008172D03*
X006798Y007975D03*
X006798Y007778D03*
X006798Y007582D03*
X006798Y007385D03*
X006798Y007188D03*
X006798Y006991D03*
X006798Y006794D03*
X006798Y006597D03*
X006798Y006400D03*
X006798Y006204D03*
D14*
X009904Y005830D03*
X009904Y006617D03*
X009904Y007404D03*
X009904Y008192D03*
X009904Y008979D03*
X009904Y009767D03*
X009904Y010554D03*
X009904Y005042D03*
X009904Y004255D03*
X009904Y003467D03*
X001243Y003467D03*
X001243Y004255D03*
X001243Y005042D03*
X001243Y005830D03*
X001243Y006617D03*
X001243Y007404D03*
X001243Y008192D03*
X001243Y008979D03*
X001243Y009767D03*
X001243Y010554D03*
D15*
X008289Y007480D03*
X008958Y007480D03*
X008958Y006630D03*
X008289Y006630D03*
X008289Y005780D03*
X008958Y005780D03*
X008958Y004930D03*
X008289Y004930D03*
D16*
X006173Y004565D03*
X006173Y003895D03*
D17*
X006173Y002358D03*
X005673Y002358D03*
X005173Y002358D03*
X004673Y002358D03*
X004673Y000902D03*
X005173Y000902D03*
X005673Y000902D03*
X006173Y000902D03*
X006673Y000902D03*
X006673Y002358D03*
D18*
X002173Y002780D03*
X002573Y002580D03*
X002773Y003180D03*
X002773Y003530D03*
X002673Y004280D03*
X003123Y004380D03*
X003373Y004630D03*
X003773Y004680D03*
X003923Y004980D03*
X004473Y005080D03*
X004373Y004630D03*
X005173Y005080D03*
X005773Y004930D03*
X006073Y005080D03*
X005773Y004430D03*
X005723Y004030D03*
X004773Y003330D03*
X004573Y003580D03*
X004273Y002830D03*
X004273Y001930D03*
X003673Y001130D03*
X004023Y000830D03*
X005423Y001630D03*
X005923Y001630D03*
X006423Y001630D03*
X007073Y001630D03*
X007623Y001880D03*
X007973Y001730D03*
X008273Y001480D03*
X007623Y002280D03*
X007623Y002630D03*
X007223Y003780D03*
X006873Y003780D03*
X007073Y005330D03*
X007073Y005880D03*
X006173Y006180D03*
X005723Y006030D03*
X005423Y006280D03*
X005173Y006730D03*
X004873Y006880D03*
X004873Y007530D03*
X004673Y007880D03*
X005173Y008380D03*
X005073Y008930D03*
X005823Y008530D03*
X006273Y008980D03*
X005873Y009280D03*
X004173Y009330D03*
X004223Y008780D03*
X002973Y009180D03*
X003973Y010380D03*
X001673Y007830D03*
X001973Y007680D03*
X001773Y006980D03*
X001923Y006430D03*
X002473Y005930D03*
X002873Y006280D03*
X003073Y006580D03*
X002873Y006880D03*
X003123Y007130D03*
X003473Y006080D03*
X003973Y005980D03*
X004273Y006280D03*
X004573Y006080D03*
X001823Y003730D03*
X003223Y002730D03*
X007173Y000630D03*
X008673Y003430D03*
X008423Y004230D03*
X008023Y005330D03*
X007573Y006780D03*
X007973Y008080D03*
X007673Y008380D03*
X009973Y002530D03*
M02*
