G75*
%MOIN*%
%OFA0B0*%
%FSLAX24Y24*%
%IPPOS*%
%LPD*%
%AMOC8*
5,1,8,0,0,1.08239X$1,22.5*
%
%ADD10C,0.0030*%
%ADD11C,0.0100*%
%ADD12C,0.0080*%
%ADD13C,0.0050*%
%ADD14C,0.0040*%
%ADD15C,0.0118*%
D10*
X002025Y001491D02*
X002074Y001442D01*
X002170Y001442D01*
X002219Y001491D01*
X002219Y001732D01*
X002320Y001684D02*
X002368Y001732D01*
X002465Y001732D01*
X002514Y001684D01*
X002465Y001587D02*
X002368Y001587D01*
X002320Y001636D01*
X002320Y001684D01*
X002417Y001781D02*
X002417Y001394D01*
X002465Y001442D02*
X002514Y001491D01*
X002514Y001539D01*
X002465Y001587D01*
X002465Y001442D02*
X002368Y001442D01*
X002320Y001491D01*
X002025Y001491D02*
X002025Y001732D01*
X002615Y001732D02*
X002615Y001587D01*
X002711Y001636D01*
X002760Y001636D01*
X002808Y001587D01*
X002808Y001491D01*
X002760Y001442D01*
X002663Y001442D01*
X002615Y001491D01*
X002615Y001732D02*
X002808Y001732D01*
X002110Y002792D02*
X002013Y002792D01*
X001965Y002841D01*
X001864Y002841D02*
X001815Y002792D01*
X001718Y002792D01*
X001670Y002841D01*
X001670Y003034D01*
X001718Y003082D01*
X001815Y003082D01*
X001864Y003034D01*
X001965Y003034D02*
X002013Y003082D01*
X002110Y003082D01*
X002158Y003034D01*
X002158Y002986D01*
X002110Y002937D01*
X002158Y002889D01*
X002158Y002841D01*
X002110Y002792D01*
X002110Y002937D02*
X002061Y002937D01*
X002674Y003742D02*
X002770Y003742D01*
X002819Y003791D01*
X002819Y004032D01*
X002920Y003984D02*
X002968Y004032D01*
X003065Y004032D01*
X003114Y003984D01*
X003215Y003984D02*
X003263Y004032D01*
X003360Y004032D01*
X003408Y003984D01*
X003408Y003936D01*
X003360Y003887D01*
X003408Y003839D01*
X003408Y003791D01*
X003360Y003742D01*
X003263Y003742D01*
X003215Y003791D01*
X003114Y003791D02*
X003114Y003839D01*
X003065Y003887D01*
X002968Y003887D01*
X002920Y003936D01*
X002920Y003984D01*
X003017Y004081D02*
X003017Y003694D01*
X003065Y003742D02*
X003114Y003791D01*
X003065Y003742D02*
X002968Y003742D01*
X002920Y003791D01*
X002674Y003742D02*
X002625Y003791D01*
X002625Y004032D01*
X003311Y003887D02*
X003360Y003887D01*
X004089Y003745D02*
X004089Y003552D01*
X004234Y003552D01*
X004186Y003648D01*
X004186Y003697D01*
X004234Y003745D01*
X004331Y003745D01*
X004379Y003697D01*
X004379Y003600D01*
X004331Y003552D01*
X004379Y003450D02*
X004379Y003257D01*
X004379Y003354D02*
X004089Y003354D01*
X004186Y003257D01*
X004137Y003156D02*
X004089Y003107D01*
X004089Y003011D01*
X004137Y002962D01*
X004331Y002962D01*
X004379Y003011D01*
X004379Y003107D01*
X004331Y003156D01*
X005351Y001751D02*
X005351Y001364D01*
X005399Y001412D02*
X005447Y001461D01*
X005447Y001509D01*
X005399Y001557D01*
X005302Y001557D01*
X005254Y001606D01*
X005254Y001654D01*
X005302Y001702D01*
X005399Y001702D01*
X005447Y001654D01*
X005549Y001557D02*
X005694Y001557D01*
X005742Y001509D01*
X005742Y001461D01*
X005694Y001412D01*
X005597Y001412D01*
X005549Y001461D01*
X005549Y001557D01*
X005645Y001654D01*
X005742Y001702D01*
X005399Y001412D02*
X005302Y001412D01*
X005254Y001461D01*
X005153Y001461D02*
X005104Y001412D01*
X005008Y001412D01*
X004959Y001461D01*
X004959Y001702D01*
X005153Y001702D02*
X005153Y001461D01*
X006537Y003062D02*
X006489Y003111D01*
X006489Y003207D01*
X006537Y003256D01*
X006586Y003357D02*
X006489Y003454D01*
X006779Y003454D01*
X006779Y003550D02*
X006779Y003357D01*
X006731Y003256D02*
X006779Y003207D01*
X006779Y003111D01*
X006731Y003062D01*
X006537Y003062D01*
X006634Y003652D02*
X006634Y003845D01*
X006489Y003797D02*
X006634Y003652D01*
X006779Y003797D02*
X006489Y003797D01*
X007287Y005462D02*
X007481Y005462D01*
X007529Y005511D01*
X007529Y005607D01*
X007481Y005656D01*
X007529Y005757D02*
X007529Y005950D01*
X007529Y005854D02*
X007239Y005854D01*
X007336Y005757D01*
X007287Y005656D02*
X007239Y005607D01*
X007239Y005511D01*
X007287Y005462D01*
X007739Y005462D02*
X007739Y005607D01*
X007787Y005656D01*
X007884Y005656D01*
X007933Y005607D01*
X007933Y005462D01*
X008029Y005462D02*
X007739Y005462D01*
X007933Y005559D02*
X008029Y005656D01*
X007981Y005757D02*
X008029Y005805D01*
X008029Y005902D01*
X007981Y005950D01*
X007787Y005950D01*
X007739Y005902D01*
X007739Y005805D01*
X007787Y005757D01*
X007836Y005757D01*
X007884Y005805D01*
X007884Y005950D01*
X007529Y006052D02*
X007529Y006245D01*
X007529Y006148D02*
X007239Y006148D01*
X007336Y006052D01*
X008559Y005804D02*
X008559Y005611D01*
X008608Y005562D01*
X008704Y005562D01*
X008753Y005611D01*
X008854Y005562D02*
X009047Y005562D01*
X008951Y005562D02*
X008951Y005852D01*
X008854Y005756D01*
X008753Y005804D02*
X008704Y005852D01*
X008608Y005852D01*
X008559Y005804D01*
X009149Y005852D02*
X009342Y005852D01*
X009342Y005804D01*
X009149Y005611D01*
X009149Y005562D01*
X007599Y007862D02*
X007599Y008152D01*
X007454Y008007D01*
X007647Y008007D01*
X007353Y008007D02*
X007304Y007959D01*
X007159Y007959D01*
X007159Y007862D02*
X007159Y008152D01*
X007304Y008152D01*
X007353Y008104D01*
X007353Y008007D01*
X007256Y007959D02*
X007353Y007862D01*
X006042Y007554D02*
X006042Y007506D01*
X005994Y007457D01*
X005897Y007457D01*
X005849Y007506D01*
X005849Y007554D01*
X005897Y007602D01*
X005994Y007602D01*
X006042Y007554D01*
X005994Y007457D02*
X006042Y007409D01*
X006042Y007361D01*
X005994Y007312D01*
X005897Y007312D01*
X005849Y007361D01*
X005849Y007409D01*
X005897Y007457D01*
X005747Y007312D02*
X005554Y007312D01*
X005651Y007312D02*
X005651Y007602D01*
X005554Y007506D01*
X005453Y007554D02*
X005404Y007602D01*
X005308Y007602D01*
X005259Y007554D01*
X005259Y007361D01*
X005308Y007312D01*
X005404Y007312D01*
X005453Y007361D01*
X004142Y008107D02*
X003949Y008107D01*
X004094Y008252D01*
X004094Y007962D01*
X003847Y008011D02*
X003799Y007962D01*
X003702Y007962D01*
X003654Y008011D01*
X003553Y008011D02*
X003553Y008252D01*
X003654Y008204D02*
X003702Y008252D01*
X003799Y008252D01*
X003847Y008204D01*
X003799Y008107D02*
X003702Y008107D01*
X003654Y008156D01*
X003654Y008204D01*
X003751Y008301D02*
X003751Y007914D01*
X003847Y008011D02*
X003847Y008059D01*
X003799Y008107D01*
X003553Y008011D02*
X003504Y007962D01*
X003408Y007962D01*
X003359Y008011D01*
X003359Y008252D01*
X003458Y008662D02*
X003554Y008662D01*
X003603Y008711D01*
X003704Y008662D02*
X003897Y008856D01*
X003897Y008904D01*
X003849Y008952D01*
X003752Y008952D01*
X003704Y008904D01*
X003603Y008904D02*
X003554Y008952D01*
X003458Y008952D01*
X003409Y008904D01*
X003409Y008711D01*
X003458Y008662D01*
X003704Y008662D02*
X003897Y008662D01*
X003999Y008711D02*
X004192Y008904D01*
X004192Y008711D01*
X004144Y008662D01*
X004047Y008662D01*
X003999Y008711D01*
X003999Y008904D01*
X004047Y008952D01*
X004144Y008952D01*
X004192Y008904D01*
X004759Y009327D02*
X004807Y009278D01*
X005001Y009278D01*
X005049Y009327D01*
X005049Y009423D01*
X005001Y009472D01*
X005049Y009573D02*
X004856Y009766D01*
X004807Y009766D01*
X004759Y009718D01*
X004759Y009621D01*
X004807Y009573D01*
X004807Y009472D02*
X004759Y009423D01*
X004759Y009327D01*
X005049Y009573D02*
X005049Y009766D01*
X005049Y009868D02*
X005049Y010061D01*
X005049Y009964D02*
X004759Y009964D01*
X004856Y009868D01*
X004008Y010492D02*
X003815Y010492D01*
X004008Y010686D01*
X004008Y010734D01*
X003960Y010782D01*
X003863Y010782D01*
X003815Y010734D01*
X003714Y010734D02*
X003714Y010686D01*
X003520Y010492D01*
X003714Y010492D01*
X003714Y010734D02*
X003665Y010782D01*
X003568Y010782D01*
X003520Y010734D01*
X003419Y010734D02*
X003370Y010782D01*
X003274Y010782D01*
X003225Y010734D01*
X003225Y010541D01*
X003274Y010492D01*
X003370Y010492D01*
X003419Y010541D01*
X003807Y011128D02*
X004001Y011128D01*
X004049Y011177D01*
X004049Y011273D01*
X004001Y011322D01*
X004049Y011423D02*
X003856Y011616D01*
X003807Y011616D01*
X003759Y011568D01*
X003759Y011471D01*
X003807Y011423D01*
X003807Y011322D02*
X003759Y011273D01*
X003759Y011177D01*
X003807Y011128D01*
X004049Y011423D02*
X004049Y011616D01*
X004001Y011718D02*
X004049Y011766D01*
X004049Y011863D01*
X004001Y011911D01*
X003953Y011911D01*
X003904Y011863D01*
X003904Y011814D01*
X003904Y011863D02*
X003856Y011911D01*
X003807Y011911D01*
X003759Y011863D01*
X003759Y011766D01*
X003807Y011718D01*
X004409Y012912D02*
X004409Y013106D01*
X004506Y013202D01*
X004603Y013106D01*
X004603Y012912D01*
X004704Y012912D02*
X004704Y013202D01*
X004897Y012912D01*
X004897Y013202D01*
X004999Y013154D02*
X005047Y013202D01*
X005144Y013202D01*
X005192Y013154D01*
X005192Y013106D01*
X004999Y012912D01*
X005192Y012912D01*
X005293Y012961D02*
X005293Y013154D01*
X005342Y013202D01*
X005438Y013202D01*
X005487Y013154D01*
X005293Y012961D01*
X005342Y012912D01*
X005438Y012912D01*
X005487Y012961D01*
X005487Y013154D01*
X005588Y013202D02*
X005588Y013057D01*
X005685Y013106D01*
X005733Y013106D01*
X005781Y013057D01*
X005781Y012961D01*
X005733Y012912D01*
X005636Y012912D01*
X005588Y012961D01*
X005588Y013202D02*
X005781Y013202D01*
X005883Y013106D02*
X005979Y013202D01*
X005979Y012912D01*
X005883Y012912D02*
X006076Y012912D01*
X005692Y013562D02*
X005499Y013562D01*
X005692Y013756D01*
X005692Y013804D01*
X005644Y013852D01*
X005547Y013852D01*
X005499Y013804D01*
X005397Y013804D02*
X005349Y013852D01*
X005252Y013852D01*
X005204Y013804D01*
X005204Y013756D01*
X005252Y013707D01*
X005349Y013707D01*
X005397Y013659D01*
X005397Y013611D01*
X005349Y013562D01*
X005252Y013562D01*
X005204Y013611D01*
X005103Y013611D02*
X005103Y013852D01*
X005301Y013901D02*
X005301Y013514D01*
X005103Y013611D02*
X005054Y013562D01*
X004958Y013562D01*
X004909Y013611D01*
X004909Y013852D01*
X004603Y013057D02*
X004409Y013057D01*
X006639Y011402D02*
X006639Y011305D01*
X006687Y011257D01*
X006687Y011156D02*
X006639Y011107D01*
X006639Y011011D01*
X006687Y010962D01*
X006881Y010962D01*
X006929Y011011D01*
X006929Y011107D01*
X006881Y011156D01*
X006929Y011257D02*
X006736Y011450D01*
X006687Y011450D01*
X006639Y011402D01*
X006929Y011450D02*
X006929Y011257D01*
X007509Y010052D02*
X007509Y009811D01*
X007558Y009762D01*
X007654Y009762D01*
X007703Y009811D01*
X007703Y010052D01*
X007804Y010004D02*
X007804Y009956D01*
X007852Y009907D01*
X007949Y009907D01*
X007997Y009859D01*
X007997Y009811D01*
X007949Y009762D01*
X007852Y009762D01*
X007804Y009811D01*
X007901Y009714D02*
X007901Y010101D01*
X007949Y010052D02*
X007852Y010052D01*
X007804Y010004D01*
X007949Y010052D02*
X007997Y010004D01*
X008099Y009956D02*
X008195Y010052D01*
X008195Y009762D01*
X008099Y009762D02*
X008292Y009762D01*
X008807Y010923D02*
X009001Y010923D01*
X009049Y010971D01*
X009049Y011068D01*
X009001Y011116D01*
X009049Y011218D02*
X009049Y011411D01*
X009049Y011314D02*
X008759Y011314D01*
X008856Y011218D01*
X008807Y011116D02*
X008759Y011068D01*
X008759Y010971D01*
X008807Y010923D01*
X004042Y007554D02*
X004042Y007361D01*
X003994Y007312D01*
X003897Y007312D01*
X003849Y007361D01*
X003897Y007457D02*
X004042Y007457D01*
X004042Y007554D02*
X003994Y007602D01*
X003897Y007602D01*
X003849Y007554D01*
X003849Y007506D01*
X003897Y007457D01*
X003747Y007312D02*
X003554Y007312D01*
X003651Y007312D02*
X003651Y007602D01*
X003554Y007506D01*
X003453Y007554D02*
X003404Y007602D01*
X003308Y007602D01*
X003259Y007554D01*
X003259Y007361D01*
X003308Y007312D01*
X003404Y007312D01*
X003453Y007361D01*
X002699Y006611D02*
X002699Y006418D01*
X002506Y006611D01*
X002457Y006611D01*
X002409Y006563D01*
X002409Y006466D01*
X002457Y006418D01*
X002409Y006220D02*
X002699Y006220D01*
X002699Y006316D02*
X002699Y006123D01*
X002651Y006022D02*
X002699Y005973D01*
X002699Y005877D01*
X002651Y005828D01*
X002457Y005828D01*
X002409Y005877D01*
X002409Y005973D01*
X002457Y006022D01*
X002506Y006123D02*
X002409Y006220D01*
X007889Y002850D02*
X007889Y002657D01*
X008034Y002657D01*
X007986Y002754D01*
X007986Y002802D01*
X008034Y002850D01*
X008131Y002850D01*
X008179Y002802D01*
X008179Y002705D01*
X008131Y002657D01*
X008179Y002556D02*
X008083Y002459D01*
X008083Y002507D02*
X008083Y002362D01*
X008179Y002362D02*
X007889Y002362D01*
X007889Y002507D01*
X007937Y002556D01*
X008034Y002556D01*
X008083Y002507D01*
X008589Y002507D02*
X008589Y002362D01*
X008879Y002362D01*
X008783Y002362D02*
X008783Y002507D01*
X008734Y002556D01*
X008637Y002556D01*
X008589Y002507D01*
X008734Y002657D02*
X008734Y002802D01*
X008783Y002850D01*
X008831Y002850D01*
X008879Y002802D01*
X008879Y002705D01*
X008831Y002657D01*
X008734Y002657D01*
X008637Y002754D01*
X008589Y002850D01*
X008879Y002556D02*
X008783Y002459D01*
X009289Y002412D02*
X009289Y002557D01*
X009337Y002606D01*
X009434Y002606D01*
X009483Y002557D01*
X009483Y002412D01*
X009579Y002412D02*
X009289Y002412D01*
X009483Y002509D02*
X009579Y002606D01*
X009579Y002707D02*
X009531Y002707D01*
X009337Y002900D01*
X009289Y002900D01*
X009289Y002707D01*
X010039Y002755D02*
X010039Y002852D01*
X010087Y002900D01*
X010136Y002900D01*
X010184Y002852D01*
X010184Y002755D01*
X010136Y002707D01*
X010087Y002707D01*
X010039Y002755D01*
X010184Y002755D02*
X010233Y002707D01*
X010281Y002707D01*
X010329Y002755D01*
X010329Y002852D01*
X010281Y002900D01*
X010233Y002900D01*
X010184Y002852D01*
X010184Y002606D02*
X010087Y002606D01*
X010039Y002557D01*
X010039Y002412D01*
X010329Y002412D01*
X010233Y002412D02*
X010233Y002557D01*
X010184Y002606D01*
X010233Y002509D02*
X010329Y002606D01*
X010184Y001800D02*
X010184Y001607D01*
X010039Y001752D01*
X010329Y001752D01*
X010281Y001506D02*
X010087Y001506D01*
X010039Y001457D01*
X010039Y001312D01*
X010329Y001312D01*
X010329Y001457D01*
X010281Y001506D01*
X009579Y001457D02*
X009579Y001312D01*
X009289Y001312D01*
X009289Y001457D01*
X009337Y001506D01*
X009531Y001506D01*
X009579Y001457D01*
X009531Y001607D02*
X009579Y001655D01*
X009579Y001752D01*
X009531Y001800D01*
X009483Y001800D01*
X009434Y001752D01*
X009434Y001704D01*
X009434Y001752D02*
X009386Y001800D01*
X009337Y001800D01*
X009289Y001752D01*
X009289Y001655D01*
X009337Y001607D01*
X008879Y001607D02*
X008686Y001800D01*
X008637Y001800D01*
X008589Y001752D01*
X008589Y001655D01*
X008637Y001607D01*
X008637Y001506D02*
X008589Y001457D01*
X008589Y001312D01*
X008879Y001312D01*
X008879Y001457D01*
X008831Y001506D01*
X008637Y001506D01*
X008879Y001607D02*
X008879Y001800D01*
X008179Y001800D02*
X008179Y001607D01*
X008179Y001704D02*
X007889Y001704D01*
X007986Y001607D01*
X007937Y001506D02*
X007889Y001457D01*
X007889Y001312D01*
X008179Y001312D01*
X008179Y001457D01*
X008131Y001506D01*
X007937Y001506D01*
D11*
X004544Y013747D02*
X004546Y013760D01*
X004551Y013773D01*
X004560Y013784D01*
X004571Y013791D01*
X004584Y013796D01*
X004597Y013797D01*
X004611Y013794D01*
X004623Y013788D01*
X004633Y013779D01*
X004640Y013767D01*
X004644Y013754D01*
X004644Y013740D01*
X004640Y013727D01*
X004633Y013715D01*
X004623Y013706D01*
X004611Y013700D01*
X004597Y013697D01*
X004584Y013698D01*
X004571Y013703D01*
X004560Y013710D01*
X004551Y013721D01*
X004546Y013734D01*
X004544Y013747D01*
D12*
X002206Y011763D02*
X002206Y003692D01*
X001221Y003692D01*
X001221Y011763D01*
X002206Y011763D01*
X009883Y011763D02*
X009883Y003692D01*
X010867Y003692D01*
X010867Y011763D01*
X009883Y011763D01*
X009880Y001602D02*
X009804Y001486D01*
X009794Y001480D02*
X009702Y001602D01*
X009613Y001480D02*
X009794Y001480D01*
X009975Y001480D01*
X010313Y001480D02*
X010494Y001480D01*
X010402Y001602D01*
X010494Y001480D02*
X010675Y001480D01*
X010580Y001602D02*
X010504Y001486D01*
X009275Y001480D02*
X009094Y001480D01*
X009002Y001602D01*
X008913Y001480D02*
X009094Y001480D01*
X009104Y001486D02*
X009180Y001602D01*
X008575Y001480D02*
X008394Y001480D01*
X008302Y001602D01*
X008213Y001480D02*
X008394Y001480D01*
X008404Y001486D02*
X008480Y001602D01*
D13*
X001658Y001076D02*
X001658Y002218D01*
X003430Y002218D01*
X003430Y001076D01*
X001658Y001076D01*
X004607Y001805D02*
X004607Y002789D01*
X006182Y002789D01*
X006182Y001805D01*
X004607Y001805D01*
X006194Y001897D02*
X006196Y001917D01*
X006202Y001935D01*
X006211Y001953D01*
X006223Y001968D01*
X006238Y001980D01*
X006256Y001989D01*
X006274Y001995D01*
X006294Y001997D01*
X006314Y001995D01*
X006332Y001989D01*
X006350Y001980D01*
X006365Y001968D01*
X006377Y001953D01*
X006386Y001935D01*
X006392Y001917D01*
X006394Y001897D01*
X006392Y001877D01*
X006386Y001859D01*
X006377Y001841D01*
X006365Y001826D01*
X006350Y001814D01*
X006332Y001805D01*
X006314Y001799D01*
X006294Y001797D01*
X006274Y001799D01*
X006256Y001805D01*
X006238Y001814D01*
X006223Y001826D01*
X006211Y001841D01*
X006202Y001859D01*
X006196Y001877D01*
X006194Y001897D01*
X004888Y007673D02*
X004396Y007673D01*
X004396Y007713D01*
X004888Y007697D02*
X004888Y007673D01*
X004575Y008386D02*
X004577Y008394D01*
X004582Y008400D01*
X004589Y008404D01*
X004597Y008404D01*
X004604Y008400D01*
X004609Y008394D01*
X004611Y008386D01*
X004609Y008378D01*
X004604Y008372D01*
X004597Y008368D01*
X004589Y008368D01*
X004582Y008372D01*
X004577Y008378D01*
X004575Y008386D01*
X004396Y008433D02*
X004396Y008461D01*
X004888Y008461D01*
X004888Y008421D01*
X007214Y010302D02*
X007214Y010892D01*
X008474Y010892D01*
X008474Y010302D01*
X007214Y010302D01*
X006398Y013354D02*
X004390Y013354D01*
X004390Y014141D01*
X006398Y014141D01*
X006398Y013354D01*
D14*
X005659Y006112D02*
X005501Y006112D01*
X005659Y006112D02*
X005659Y005954D01*
X005659Y004340D02*
X005659Y004183D01*
X005501Y004183D01*
X003887Y004183D02*
X003730Y004183D01*
X003730Y004340D01*
X003730Y005954D02*
X003730Y006112D01*
X003887Y006112D01*
D15*
X005551Y006004D03*
M02*
