%
M48
M72
T01C0.0100
T02C0.0236
T03C0.0315
%
T01
X2644Y2547
X2794Y2947
X2944Y3297
X2844Y3747
X3294Y3847
X3394Y4197
X3594Y3597
X3644Y2647
X3394Y2297
X3094Y2547
X3894Y1297
X4294Y1547
X6194Y4147
X6144Y4597
X6094Y4947
X6644Y4697
X6944Y4447
X7194Y4197
X7544Y3947
X7894Y3947
X7744Y3397
X7694Y2947
X7494Y2597
X7994Y2597
X8944Y3597
X8494Y4047
X8894Y4247
X8994Y4647
X8444Y4647
X9044Y5747
X9544Y5747
X8494Y5997
X8044Y6447
X7894Y5897
X7394Y5797
X7044Y5847
X7794Y7297
X7394Y7647
X6594Y8497
X6044Y8497
X5544Y8497
X5494Y7947
X6144Y7597
X5344Y7047
X3844Y6847
X3594Y6647
X3594Y7047
X3144Y6547
X3144Y6197
X2244Y6497
X2344Y8397
X3244Y8397
X4694Y10297
X5144Y9747
X5544Y9897
X5294Y10197
X5494Y10547
X5994Y9747
X6344Y10197
X6844Y9297
X7644Y8947
X8994Y7597
X8894Y6997
X9294Y8847
X9444Y10497
X5644Y9197
X3394Y10797
X9644Y4097
X9694Y3597
T02
X5144Y4747
X5144Y5147
X5144Y5547
X4694Y5547
X4694Y5147
X4694Y4747
X4244Y4747
X4244Y5147
X4244Y5547
T03
X1714Y5759
X1714Y4972
X1714Y4185
X1714Y6547
X1714Y7334
X1714Y8122
X1714Y8909
X1714Y9696
X1714Y10484
X1714Y11271
X10375Y11271
X10375Y10484
X10375Y9696
X10375Y8909
X10375Y8122
X10375Y7334
X10375Y6547
X10375Y5759
X10375Y4972
X10375Y4185
M30
